<svg width="51" height="50" viewBox="0 0 51 50" fill="none" xmlns="http://www.w3.org/2000/svg">
<g clip-path="url(#clip0_1184_11856)">
<path d="M45.793 30.9471L32.1699 26.9529C31.3887 25.6541 31.2812 24.6678 31.3984 23.9256C32.1895 23.4764 32.9121 22.9295 33.5566 22.2849C35.4316 20.4197 36.4668 17.8611 36.4668 15.0877V12.4998C37.2578 6.43533 36.4961 2.99783 34.0645 1.69901C32.4531 0.839632 29.9922 0.204866 27.6484 0.0388506C25.6758 -0.0978682 22.9609 0.0486162 20.9102 1.42557C20.8613 1.4158 20.8223 1.40604 20.7734 1.39627C19.6895 1.18143 17.668 0.790804 16.0664 2.30448C14.3184 3.9451 13.8301 7.18729 14.5234 12.49V15.0779C14.5234 18.2127 15.6953 20.8689 17.9121 22.7342C18.4199 23.1639 18.9863 23.5447 19.5918 23.8767C19.7188 24.6189 19.6211 25.615 18.8301 26.9334L5.20703 30.9471C3.89844 31.3279 3.01953 32.5096 3.01953 33.867V46.9529C3.01953 48.6326 4.38672 49.9998 6.06641 49.9998H44.9336C46.6133 49.9998 47.9805 48.6326 47.9805 46.9529V33.867C47.9805 32.5096 47.1016 31.3279 45.793 30.9471ZM30.0703 29.9412L25.5 43.5349L20.9297 29.9412H30.0703ZM18.2148 4.58963C18.4199 4.39432 18.7031 4.32596 19.0449 4.32596C19.377 4.32596 19.7578 4.39432 20.1875 4.47244C20.9004 4.60916 21.7109 4.76541 22.4141 4.19901C23.4395 3.37869 25.2266 3.0076 27.4434 3.15408C29.6016 3.30057 31.584 3.90604 32.5996 4.45291C33.1563 4.74588 33.625 5.91776 33.6445 8.26151L33.1758 7.6658C32.3164 6.57205 30.8223 6.20096 29.5527 6.76737C28.5566 7.20682 27.2285 7.47049 25.5098 7.55838C23.791 7.47049 22.4629 7.20682 21.4668 6.76737C20.1973 6.20096 18.7031 6.57205 17.8438 7.6658L17.3652 8.27127C17.3652 5.74198 17.9121 4.87284 18.2148 4.58963ZM17.6582 15.0877V12.9392L20.2461 9.64823C21.6133 10.2439 23.3027 10.576 25.4219 10.6834C25.4707 10.6834 25.5195 10.6834 25.5684 10.6834C27.6875 10.5857 29.3867 10.2439 30.7441 9.64823L33.332 12.9392V15.0877C33.332 17.0506 32.6484 18.7791 31.3398 20.0779C29.9238 21.4842 27.9316 22.2556 25.7051 22.2556C25.6855 22.2556 25.6758 22.2556 25.6562 22.2556C21.9746 22.2263 17.6582 20.3416 17.6582 15.0877ZM25.666 25.3709C25.6855 25.3709 25.7051 25.3709 25.7344 25.3709C26.6035 25.3709 27.4629 25.283 28.2734 25.1072C28.332 25.6736 28.459 26.24 28.6641 26.8162H22.3457C22.5605 26.2205 22.6875 25.6346 22.7461 25.0486C23.6738 25.2537 24.6504 25.3709 25.666 25.3709ZM6.14453 33.9256L17.8145 30.4978L23.3223 46.8748H6.14453V33.9256ZM44.8555 46.8748H27.6777L33.1855 30.5076L44.8652 33.9353L44.8555 46.8748ZM33.3125 39.8728C33.3125 39.0135 34.0156 38.3103 34.875 38.3103H40.3828C41.2422 38.3103 41.9453 39.0135 41.9453 39.8728C41.9453 40.7322 41.2422 41.4353 40.3828 41.4353H34.875C34.0156 41.4353 33.3125 40.742 33.3125 39.8728Z" fill="#2A6490"/>
</g>
<defs>
<clipPath id="clip0_1184_11856">
<rect width="50" height="50" fill="white" transform="translate(0.5)"/>
</clipPath>
</defs>
</svg>
