<svg width="24" height="24" viewBox="0 0 24 24" fill="none" xmlns="http://www.w3.org/2000/svg">
<path opacity="0.3" d="M3.9998 19H19.9998C20.5998 19 20.9998 18.6 20.9998 18V6C20.9998 5.4 20.5998 5 19.9998 5H3.9998C3.3998 5 2.9998 5.4 2.9998 6V10L1.2998 12L2.9998 14V18C2.9998 18.6 3.3998 19 3.9998 19Z" fill="#737373"/>
<path d="M20 20H4C2.9 20 2 19.1 2 18V14.4L0 12L2 9.6V6C2 4.9 2.9 4 4 4H20C21.1 4 22 4.9 22 6V18C22 19.1 21.1 20 20 20ZM2.6 12L4 13.6V18H20V6H4V10.4L2.6 12Z" fill="#737373"/>
<path d="M7 9H17V11H7V9ZM7 13H15V15H7V13Z" fill="#737373"/>
</svg>
