<svg width="84" height="84" viewBox="0 0 84 84" fill="none" xmlns="http://www.w3.org/2000/svg">
<rect x="1" y="1" width="82" height="82" rx="9" fill="#FCFCFC"/>
<path d="M31.1998 24.157C31.2003 23.1925 31.0069 22.2378 30.6313 21.3494C30.2557 20.4611 29.7054 19.6573 29.0131 18.9857C28.3208 18.3141 27.5007 17.7885 26.6013 17.44C25.702 17.0915 24.7418 16.9273 23.7778 16.957C21.9089 17.0338 20.1413 17.8273 18.842 19.1729C17.5427 20.5184 16.8113 22.3126 16.7998 24.183C16.8051 25.5185 17.1821 26.8262 17.8886 27.9595C18.595 29.0929 19.6031 30.0072 20.7998 30.6V34.6C20.7998 35.4487 21.1369 36.2626 21.7371 36.8627C22.3372 37.4629 23.1511 37.8 23.9998 37.8C24.8485 37.8 25.6624 37.4629 26.2625 36.8627C26.8627 36.2626 27.1998 35.4487 27.1998 34.6V30.6C28.4006 30.0053 29.4113 29.087 30.118 27.9486C30.8248 26.8102 31.1995 25.497 31.1998 24.157Z" fill="#FFD04D"/>
<path d="M27.1998 32.2V34.6C27.1997 35.0859 27.0868 35.5652 26.8698 36C26.7178 36.3198 26.5114 36.6108 26.2598 36.86C25.9006 37.2211 25.46 37.4909 24.9751 37.6468C24.4901 37.8026 23.9749 37.84 23.4725 37.7558C22.9702 37.6716 22.4953 37.4682 22.0877 37.1627C21.6801 36.8573 21.3516 36.4585 21.1298 36C20.9129 35.5652 20.7999 35.0859 20.7998 34.6V32.2H27.1998Z" fill="#687F99"/>
<path d="M23 12.2H25V14.599H23V12.2ZM12 23.2H14.4V25.2H12V23.2ZM33.6 23.2H36V25.2H33.6V23.2ZM14.808 16.422L16.222 15.008L17.919 16.705L16.505 18.12L14.808 16.422ZM30.081 31.695L31.495 30.281L33.192 31.978L31.778 33.392L30.081 31.695ZM14.808 31.978L16.505 30.281L17.919 31.695L16.222 33.392L14.808 31.978ZM30.081 16.705L31.778 15.008L33.193 16.423L31.496 18.12L30.081 16.705Z" fill="#FFDE73"/>
<path d="M55 72V62C55 61.4696 55.2107 60.9609 55.5858 60.5858C55.9609 60.2107 56.4696 60 57 60H66C66.5304 60 67.0391 60.2107 67.4142 60.5858C67.7893 60.9609 68 61.4696 68 62V72H55Z" fill="#469EC1"/>
<path d="M61.5 60C63.2949 60 64.75 58.5449 64.75 56.75C64.75 54.9551 63.2949 53.5 61.5 53.5C59.7051 53.5 58.25 54.9551 58.25 56.75C58.25 58.5449 59.7051 60 61.5 60Z" fill="#E6BC8A"/>
<path d="M49 37H37C36.4477 37 36 37.4477 36 38V50C36 50.5523 36.4477 51 37 51H49C49.5523 51 50 50.5523 50 50V38C50 37.4477 49.5523 37 49 37Z" fill="#017699"/>
<path d="M67.946 44.583C67.978 44.038 68 43.5 68 43C67.9972 39.2757 67.1629 35.5989 65.5581 32.2381C63.9532 28.8773 61.6183 25.9171 58.7237 23.5737C55.829 21.2302 52.4477 19.5626 48.8265 18.6924C45.2052 17.8223 41.4354 17.7716 37.792 18.544L38.208 20.501C41.5599 19.79 45.0283 19.8363 48.36 20.6367C51.6917 21.437 54.8027 22.9712 57.4659 25.1272C60.1291 27.2832 62.2773 30.0066 63.7538 33.0987C65.2302 36.1908 65.9976 39.5735 66 43C66 43.5 65.978 44.035 65.943 44.583H63.5L67 50.417L70.5 44.583H67.946ZM50.5 67L44.5 63.4V65.932C44 65.968 43.507 66 43 66C36.9021 65.9931 31.056 63.5677 26.7441 59.2558C22.4323 54.944 20.0069 49.0979 20 43C20 42.362 20.026 41.717 20.079 41.082L18.085 40.918C18.0287 41.6106 18.0003 42.3051 18 43C18.0074 49.6281 20.6437 55.9827 25.3305 60.6695C30.0173 65.3563 36.3719 67.9926 43 68C43.507 68 44 67.965 44.5 67.933V70.6L50.5 67Z" fill="#017699"/>
<path d="M27.1998 34V34.6C27.1997 35.0859 27.0868 35.5652 26.8698 36H21.1298C20.9129 35.5652 20.7999 35.0859 20.7998 34.6V34H27.1998Z" fill="#7089A6"/>
<rect x="1" y="1" width="82" height="82" rx="9" stroke="#F5F5F7" stroke-width="2"/>
</svg>
