<svg width="50" height="50" viewBox="0 0 50 50" fill="none" xmlns="http://www.w3.org/2000/svg">
<g clip-path="url(#clip0_1184_11849)">
<path d="M39.5833 6.24967H37.5V2.08301H33.3333V6.24967H16.6667V2.08301H12.5V6.24967H10.4167C8.10417 6.24967 6.25 8.12467 6.25 10.4163V39.583C6.25 41.8747 8.10417 43.7497 10.4167 43.7497H39.5833C41.875 43.7497 43.75 41.8747 43.75 39.583V10.4163C43.75 8.12467 41.875 6.24967 39.5833 6.24967ZM39.5833 39.583H10.4167V18.7497H39.5833V39.583ZM39.5833 14.583H10.4167V10.4163H39.5833V14.583ZM14.5833 22.9163H25V33.333H14.5833V22.9163Z" fill="#2A6490"/>
</g>
<defs>
<clipPath id="clip0_1184_11849">
<rect width="50" height="50" fill="white"/>
</clipPath>
</defs>
</svg>
