<svg width="29" height="29" viewBox="0 0 29 29" fill="none" xmlns="http://www.w3.org/2000/svg">
<g clip-path="url(#clip0_1356_10683)">
<path d="M27.7723 0.841949H1.60267C1.0627 0.841949 0.625 1.27964 0.625 1.81968V5.27422C0.625 5.81425 1.0627 6.25189 1.60267 6.25189H27.7723C28.3123 6.25189 28.7499 5.8142 28.7499 5.27422V1.81968C28.75 1.27964 28.3123 0.841949 27.7723 0.841949ZM26.7946 4.29649H2.5804V2.79735H26.7947L26.7946 4.29649Z" fill="white"/>
<path d="M25.099 5.27429V21.113H4.24153V5.27429H2.28613V22.0906C2.28613 22.6307 2.72383 23.0683 3.26381 23.0683H26.0766C26.6167 23.0683 27.0543 22.6306 27.0543 22.0906V5.27429H25.099Z" fill="white"/>
<path d="M17.5392 13.9105H14.378V10.7493C14.378 10.2092 13.9403 9.77159 13.4003 9.77159C12.025 9.77159 10.738 10.3015 9.77596 11.2639C8.81356 12.2259 8.28369 13.5132 8.28369 14.8882C8.28369 17.7095 10.579 20.0048 13.4003 20.0048C14.7756 20.0048 16.0629 19.4749 17.0246 18.5125C17.987 17.5505 18.5169 16.2632 18.5169 14.8882C18.5169 14.3482 18.0792 13.9105 17.5392 13.9105ZM15.6418 17.1297C15.0493 17.7225 14.2531 18.049 13.4002 18.049C11.6573 18.049 10.239 16.631 10.239 14.8878C10.239 14.0353 10.5656 13.2391 11.1587 12.6463C11.5165 12.2881 11.9487 12.0274 12.4225 11.8768V14.8878C12.4225 15.4278 12.8602 15.8655 13.4002 15.8655H16.4115C16.261 16.3394 16.0003 16.7715 15.6418 17.1297Z" fill="white"/>
<path d="M19.5669 8.72186C18.6048 7.75945 17.3178 7.22958 15.9425 7.22958C15.4025 7.22958 14.9648 7.66728 14.9648 8.20726V12.3461C14.9648 12.8862 15.4025 13.3238 15.9425 13.3238H20.114C20.6541 13.3238 21.0917 12.8858 21.0917 12.3461C21.0917 11.012 20.5361 9.69074 19.5669 8.72186ZM16.9202 11.3685V9.33517C17.3941 9.48541 17.8262 9.74644 18.1844 10.1043C18.5448 10.4654 18.814 10.9014 18.9724 11.3684H16.9202V11.3685Z" fill="white"/>
<path d="M15.423 21.4661C15.0782 21.0503 14.4616 20.9929 14.0461 21.3383L8.66877 25.8031C8.25327 26.1479 8.19586 26.7645 8.541 27.1797C8.73458 27.4127 9.01325 27.533 9.29384 27.533C9.51384 27.533 9.73543 27.4593 9.91792 27.3075L15.2952 22.8427C15.7108 22.4979 15.7681 21.8813 15.423 21.4661Z" fill="white"/>
<path d="M20.6737 25.8033L15.2967 21.3385C14.8815 20.9934 14.2649 21.0507 13.9198 21.4663C13.575 21.8818 13.632 22.4981 14.0476 22.8429L19.4249 27.3076C19.6074 27.4592 19.8287 27.5331 20.0486 27.5331C20.3292 27.5331 20.6079 27.4129 20.8015 27.1799C21.1462 26.7643 21.0892 26.148 20.6737 25.8033Z" fill="white"/>
</g>
<defs>
<clipPath id="clip0_1356_10683">
<rect width="28.125" height="28.125" fill="white" transform="translate(0.625 0.125)"/>
</clipPath>
</defs>
</svg>
