<svg width="18" height="21" viewBox="0 0 18 21" fill="none" xmlns="http://www.w3.org/2000/svg">
<path d="M8.6875 9.125C6.74687 9.125 5.17188 10.7 5.17188 12.6406C5.17188 14.75 7.63281 16.1562 7.63281 17.5625C8.125 17.5625 9.74219 17.5625 9.74219 17.5625C9.74219 16.1562 12.2031 14.75 12.2031 12.6406C12.2031 10.7 10.6281 9.125 8.6875 9.125ZM8.6875 7.71875V4.90625C4.80625 4.90625 1.65625 8.05625 1.65625 11.9375C1.65625 13.5828 2.23281 15.1719 3.2875 16.4375C3.54062 16.7328 3.49844 17.1828 3.20312 17.4219C3.0625 17.5344 2.90781 17.5906 2.73906 17.5906C2.54219 17.5906 2.33125 17.5063 2.20469 17.3375C0.939062 15.8328 0.25 13.9062 0.25 11.9375C0.25 7.28281 4.03281 3.5 8.6875 3.5V0.6875L12.2031 4.20312L8.6875 7.71875ZM14.6359 17.5906C14.4812 17.5906 14.3125 17.5344 14.1859 17.4219C13.8906 17.1687 13.8484 16.7328 14.1016 16.4375C15.1422 15.1719 15.7188 13.5828 15.7188 11.9375C15.7188 10.2922 15.1422 8.70312 14.0875 7.4375C13.8344 7.14219 13.8766 6.69219 14.1719 6.45312C14.4672 6.2 14.9172 6.24219 15.1563 6.5375C16.4359 8.05625 17.125 9.96875 17.125 11.9375C17.125 13.9062 16.4359 15.8188 15.1703 17.3375C15.0297 17.5063 14.8328 17.5906 14.6359 17.5906ZM8.6875 20.375C8.11094 20.375 7.63281 19.8969 7.63281 19.3203V18.9688H9.74219V19.3203C9.74219 19.8969 9.26406 20.375 8.6875 20.375Z" fill="white"/>
</svg>
