<svg width="29" height="29" viewBox="0 0 29 29" fill="none" xmlns="http://www.w3.org/2000/svg">
<g clip-path="url(#clip0_1356_10636)">
<path d="M10.3441 12.7635C12.1604 12.7635 13.8488 13.3728 15.2265 14.5254L16.3959 13.1277C14.6862 11.6971 12.5935 10.9412 10.3441 10.9412C5.08542 10.9412 0.807129 15.2195 0.807129 20.4782V25.0037C0.807129 25.5069 1.21505 25.9148 1.71828 25.9148H14.5962V24.0925H2.62949V20.4781C2.62949 16.2244 6.09018 12.7635 10.3441 12.7635Z" fill="white"/>
<path d="M10.3447 0.25C6.89462 0.25 4.08789 3.05673 4.08789 6.50677C4.08789 9.95681 6.89462 12.7635 10.3447 12.7635C13.7944 12.7635 16.6014 9.95681 16.6014 6.50677C16.6014 3.05673 13.7947 0.25 10.3447 0.25ZM10.3447 10.9411C7.89965 10.9411 5.91025 8.95172 5.91025 6.50671C5.91025 4.06171 7.89965 2.0723 10.3447 2.0723C12.7897 2.0723 14.7791 4.06171 14.7791 6.50671C14.7791 8.95172 12.7897 10.9411 10.3447 10.9411Z" fill="white"/>
<path d="M20.1841 11.6094C15.5617 11.6094 11.8013 15.3698 11.8013 19.9922C11.8013 24.6147 15.5617 28.375 20.1841 28.375C24.8065 28.375 28.5672 24.6146 28.5672 19.9922C28.5672 15.3698 24.8065 11.6094 20.1841 11.6094ZM20.1841 26.5527C16.5664 26.5527 13.6236 23.6096 13.6236 19.9922C13.6236 16.3748 16.5668 13.4317 20.1841 13.4317C23.8018 13.4317 26.7449 16.3748 26.7449 19.9922C26.7449 23.6096 23.8018 26.5527 20.1841 26.5527Z" fill="white"/>
<path d="M22.9184 19.658H20.7012V16.4386C20.7012 15.9353 20.2933 15.5274 19.7901 15.5274C19.2868 15.5274 18.8789 15.9353 18.8789 16.4386V20.5693C18.8789 21.0725 19.2868 21.4804 19.7901 21.4804H22.9181C23.4217 21.4804 23.8296 21.0725 23.8296 20.5693C23.8296 20.066 23.4217 19.658 22.9184 19.658Z" fill="white"/>
</g>
<defs>
<clipPath id="clip0_1356_10636">
<rect width="28.125" height="28.125" fill="white" transform="translate(0.625 0.25)"/>
</clipPath>
</defs>
</svg>
