<svg viewBox="0 0 24 24" xmlns="http://www.w3.org/2000/svg"><path d="M17.14 2H6.85C4.17 2 1.99 4.18 1.99 6.86v10.28c0 2.68 2.17 4.86 4.85 4.86h10.28c2.68 0 4.86-2.18 4.86-4.86V6.86C21.98 4.18 19.8 2 17.12 2ZM8.92 9.17c-.56 0-1.03-.46-1.03-1.02 0-.57.45-1.03 1.01-1.03h.01c.57 0 1.03.46 1.03 1.03 0 .56-.46 1.02-1.03 1.02Zm.72 1.55v5.13c0 .42-.33.75-.75.75 -.41 0-.75-.33-.75-.75v-5.13c0-.42.34-.75.75-.75 .42 0 .75.33.75.75Zm6.2 5.13c0 .42-.34.75-.75.75 -.42 0-.75-.33-.75-.75v-2.34c0-.63-.13-.74-.23-.83 -.12-.11-.33-.18-.59-.19 -.21.01-.42.08-.54.19 -.1.09-.23.2-.23.83v2.34c0 .42-.33.75-.75.75 -.41 0-.75-.33-.75-.75v-2.34c0-.91.22-1.49.73-1.95 .39-.35.92-.54 1.54-.57 .67.03 1.2.22 1.6.57 .5.46.72 1.04.72 1.95v2.34Z"/></svg>