<svg width="64" height="44" viewBox="0 0 64 44" fill="none" xmlns="http://www.w3.org/2000/svg">
<rect width="64" height="44" rx="22" fill="white"/>
<path opacity="0.25" d="M22 15C22 13.3432 23.3432 12 25 12H39C40.6569 12 42 13.3432 42 15V29C42 30.6569 40.6569 32 39 32H25C23.3432 32 22 30.6569 22 29V15Z" fill="#12131A"/>
<path d="M27 18C27.5523 18 28 17.5523 28 17C28 16.4477 27.5523 16 27 16C26.4477 16 26 16.4477 26 17C26 17.5523 26.4477 18 27 18Z" fill="#12131A"/>
<path d="M27 20C26.4477 20 26 20.4477 26 21V27C26 27.5523 26.4477 28 27 28C27.5523 28 28 27.5523 28 27V21C28 20.4477 27.5523 20 27 20Z" fill="#12131A"/>
<path d="M34 22C32.8954 22 32 22.8954 32 24V27C32 27.5523 31.5523 28 31 28C30.4477 28 30 27.5523 30 27V21C30 20.4477 30.4477 20 31 20C31.4054 20 31.7544 20.2412 31.9114 20.5879C32.5193 20.215 33.2346 20 34 20C36.2091 20 38 21.7909 38 24V27C38 27.5523 37.5523 28 37 28C36.4477 28 36 27.5523 36 27V24C36 22.8954 35.1046 22 34 22Z" fill="#12131A"/>
</svg>
