<svg width="341" height="100" viewBox="0 0 341 100" fill="none" xmlns="http://www.w3.org/2000/svg">
<mask id="mask0_1528_11043" style="mask-type:luminance" maskUnits="userSpaceOnUse" x="0" y="0" width="341" height="100">
<path d="M340.4 0H0V100H340.4V0Z" fill="white"/>
</mask>
<g mask="url(#mask0_1528_11043)">
<path d="M248.38 66.2196C247.8 65.7996 247.01 65.5895 246.04 65.5895H242.35C241.93 65.5895 241.63 65.4896 241.45 65.2896C241.26 65.0796 241.17 64.8096 241.17 64.4396V63.9696C241.17 63.5896 241.25 63.3095 241.41 63.1595C241.57 62.9995 241.82 62.9195 242.16 62.9195H248.8V60.5396H242.56C241.96 60.5396 241.43 60.5896 240.98 60.6996C240.5 60.8096 240.1 61.0096 239.78 61.3096C239.46 61.5996 239.22 61.9796 239.07 62.4496C238.92 62.8896 238.85 63.4496 238.85 64.1096V64.6295C238.85 65.7795 239.17 66.5995 239.81 67.0595C240.41 67.4995 241.25 67.7196 242.31 67.7196H245.95C246.3 67.7196 246.56 67.7995 246.74 67.9595C246.91 68.1095 246.99 68.3396 246.99 68.6596V69.5695C246.99 70.2695 246.69 70.5595 245.94 70.5595H239.11V72.9396H246.01C247.18 72.9396 248.03 72.6195 248.55 71.9995C249.05 71.3896 249.31 70.4796 249.31 69.2896V68.5396C249.31 67.4696 248.99 66.6895 248.37 66.2495" fill="#78787A"/>
<path d="M272.23 60.5396H267.11V63.0295H272.23C273.17 63.0295 273.59 63.5195 273.59 64.6295V65.1596H269.52C267.52 65.1596 266.46 66.1796 266.46 68.1096V69.8195C266.46 70.8195 266.71 71.5995 267.21 72.1295C267.71 72.6595 268.49 72.9296 269.51 72.9296H275.9V64.5695C275.9 61.9395 274.63 60.5495 272.22 60.5495M273.58 67.3795V70.5796H269.64C268.97 70.5796 268.7 70.2895 268.7 69.5895V68.4096C268.7 67.6796 268.97 67.3795 269.64 67.3795H273.58Z" fill="#78787A"/>
<path d="M278.88 62.5H280.51L281.11 57.98H278.27L278.88 62.5Z" fill="#78787A"/>
<path d="M289.05 60.4897H283.93V62.9797H289.05C289.99 62.9797 290.41 63.4697 290.41 64.5797V65.1097H286.34C284.34 65.1097 283.28 66.1297 283.28 68.0597V69.7697C283.28 70.7697 283.53 71.5497 284.03 72.0797C284.53 72.6097 285.31 72.8797 286.33 72.8797H292.72V64.5197C292.72 61.8897 291.45 60.4997 289.04 60.4997M290.4 67.3297V70.5297H286.46C285.79 70.5297 285.52 70.2397 285.52 69.5397V68.3597C285.52 67.6297 285.79 67.3297 286.46 67.3297H290.4Z" fill="#78787A"/>
<path d="M302.64 62.7496V60.5396H299.78V56.6196H297.4V68.8296C297.4 72.2096 299.32 72.9196 300.92 72.9196H302.6V70.5896H301.08C300.48 70.5896 299.78 70.3996 299.78 68.8996V62.7496H302.64Z" fill="#78787A"/>
<path d="M217.26 60.5098H214.36C212.28 60.5098 210.58 62.2498 210.58 64.3798V69.0598C210.58 71.1898 212.27 72.9298 214.36 72.9298H217.26C219.34 72.9298 221.04 71.1898 221.04 69.0598V64.3798C221.04 62.2498 219.35 60.5098 217.26 60.5098ZM218.72 64.3798V69.0598C218.72 69.8798 218.07 70.5498 217.26 70.5498H214.36C213.56 70.5498 212.9 69.8798 212.9 69.0598V64.3798C212.9 63.5598 213.55 62.8898 214.36 62.8898H217.26C218.06 62.8898 218.72 63.5598 218.72 64.3798Z" fill="#78787A"/>
<path d="M234.57 65.6195C234.55 62.1195 232.21 60.5195 230.04 60.5195H224.96V72.8995H227.28V62.8995H230.04C231.17 62.8995 232.24 63.9995 232.24 65.1595V72.4395L232.26 72.8895H234.56V65.6295V65.6095L234.57 65.6195Z" fill="#78787A"/>
<path d="M207.45 65.6195C207.43 62.4795 205.55 60.8795 203.6 60.5795L203.56 60.5195H202.92H201.09L201.12 60.5495C200.02 60.6695 198.99 61.2095 198.25 62.0595C197.4 61.0895 196.17 60.5195 194.88 60.5195H189.81V72.8895H192.13V62.8895H194.87C196.07 62.8895 197.08 63.9095 197.08 65.0895C197.08 65.0995 197.08 65.1095 197.08 72.5295V72.8895H199.4V72.5295C199.4 65.4995 199.4 65.1095 199.4 65.0895C199.4 63.8695 200.39 62.8895 201.61 62.8895H202.92C204.05 62.8895 205.12 63.9895 205.12 65.1495V72.4295L205.15 72.8795H207.45V65.6195Z" fill="#78787A"/>
<path d="M263.07 65.6396V65.6196C263.05 62.1196 260.71 60.5196 258.54 60.5196H255.78V56.6196H253.46V72.8996H255.78V62.8996H258.54C259.67 62.8996 260.74 63.9996 260.74 65.1596V72.4396L260.76 72.8896H263.06V65.6296L263.07 65.6396Z" fill="#78787A"/>
<path d="M282.31 30.7799C282.31 29.0599 278.72 27.3799 278.72 27.3799C278.72 27.3799 275.06 30.8999 275.18 30.9999L279.23 34.3999C279.23 34.3999 282.31 32.4899 282.31 30.7799Z" fill="#007496"/>
<path d="M261.44 31.0099L265.49 34.3999C265.49 34.3999 268.57 32.4999 268.57 30.7799C268.57 29.0599 264.98 27.3799 264.98 27.3799C264.98 27.3799 261.32 30.8999 261.44 30.9999" fill="#007496"/>
<path d="M259.45 30.7799C259.45 29.0599 255.86 27.3799 255.86 27.3799C255.86 27.3799 252.2 30.8999 252.32 30.9999L256.37 34.3999C256.37 34.3999 259.45 32.4899 259.45 30.7799Z" fill="#007496"/>
<path d="M263.05 23.8697C263.05 22.1497 259.46 20.4697 259.46 20.4697C259.46 20.4697 255.8 23.9897 255.92 24.0897L259.97 27.4897C259.97 27.4897 263.05 25.5797 263.05 23.8697Z" fill="#007496"/>
<path d="M302.63 37.6097C302.59 36.6097 301.99 32.9997 297.1 32.9997H294.2L286.9 40.6697V47.2797C286.9 47.6397 286.94 47.9597 287.01 48.2797C284.87 48.2797 282.35 48.2897 281.11 46.1697C280.61 45.3197 280.46 44.3097 280.45 43.3297V37.1297L276.61 41.0597V47.2797C276.61 47.6097 276.64 47.9497 276.68 48.2797C274.55 48.2797 272.04 48.2797 270.8 46.1697C270.3 45.3197 270.15 44.3097 270.14 43.3297V33.9597L266.3 37.8897V47.2797C266.3 47.6097 266.33 47.9497 266.37 48.2797C265.38 48.1797 264.41 47.6997 263.65 47.0697C262.53 46.1497 261.88 44.8197 261.86 43.3497V35.9197L258.03 39.8497V47.2797C258.03 47.6197 258.07 47.9597 258.14 48.2797C257.14 48.1897 256.15 47.6997 255.38 47.0697C254.26 46.1497 253.61 44.8197 253.6 43.3497V33.9597L249.77 37.8897V47.2797C249.77 47.6197 249.81 47.9497 249.88 48.2797C247.74 48.2797 245.21 48.2997 243.97 46.1697C243.47 45.3197 243.32 44.3097 243.31 43.3297V19.4697L239.48 23.3997V47.5097H239.49C239.54 49.0197 240.03 50.5097 241.34 51.3597C242.37 52.0197 243.62 52.1997 244.81 52.2197C245.32 52.2297 245.82 52.2097 246.33 52.1997C246.52 52.1997 246.9 51.7897 246.99 51.7197C247.47 51.2997 247.94 50.8297 248.39 50.3697C248.84 49.8997 249.29 49.4397 249.71 48.9397C249.74 48.9097 249.86 48.7397 249.97 48.5797C250.24 49.5197 250.79 50.3597 251.57 50.9997C252.41 51.6897 253.52 52.2097 254.61 52.2197C254.8 52.2197 255.19 51.8097 255.27 51.7397C255.75 51.3097 256.22 50.8497 256.67 50.3897C257.12 49.9297 257.57 49.4597 257.99 48.9597C258.02 48.9297 258.14 48.7497 258.25 48.5897C258.52 49.5297 259.07 50.3597 259.84 50.9897C260.68 51.6797 261.79 52.1997 262.88 52.2097C263.07 52.2097 263.46 51.7997 263.54 51.7297C264.02 51.2997 264.49 50.8397 264.93 50.3797C265.38 49.9197 265.83 49.4497 266.25 48.9497C266.27 48.9197 266.37 48.7897 266.46 48.6497C266.69 49.7297 267.21 50.7097 268.18 51.3397C269.21 51.9997 270.46 52.1797 271.65 52.1997C272.16 52.2097 272.66 52.1897 273.17 52.1797C273.36 52.1797 273.75 51.7697 273.83 51.6997C274.31 51.2797 274.78 50.8097 275.23 50.3497C275.68 49.8797 276.13 49.4197 276.55 48.9197C276.57 48.8897 276.67 48.7597 276.76 48.6197V48.6397C276.99 49.7197 277.51 50.6997 278.48 51.3297C279.51 51.9897 280.76 52.1697 281.95 52.1897C282.46 52.1997 282.97 52.1797 283.47 52.1697C283.66 52.1697 284.04 51.7597 284.12 51.6897C284.6 51.2697 285.07 50.7997 285.52 50.3397C285.97 49.8697 286.42 49.4097 286.84 48.9097C286.87 48.8797 286.98 48.7197 287.08 48.5697C287.88 51.2697 291.16 52.1897 293.79 52.1897H294.69L302.64 44.1897C302.64 44.1897 302.64 37.6797 302.64 37.5897M294.18 47.8497C290.56 47.8497 290.75 44.7597 290.73 43.3197V36.8297H296.26C298.18 36.8297 298.8 39.7297 298.8 43.1297C298.8 43.2097 298.8 46.9597 298.8 47.8497C297.91 47.8497 294.27 47.8497 294.17 47.8497" fill="#007496"/>
<path d="M214.09 33.6598L218.27 37.1698C218.27 37.1698 221.5 35.1698 221.5 33.3598C221.5 31.5498 217.73 29.7998 217.73 29.7998C217.73 29.7998 214.65 32.7598 214.11 33.4498C214.06 31.6598 210.34 29.9198 210.34 29.9198C210.34 29.9198 206.49 33.6098 206.63 33.7198L210.88 37.2898C210.88 37.2898 213.9 35.4198 214.09 33.6598Z" fill="#007496"/>
<path d="M244.05 16.4898L248.71 11.9598V10.5098L245.67 13.3998L239.13 11.2098L238.8 11.0998L234.26 15.5998V17.0198L237.07 14.2098L243.75 16.3898L244.05 16.4898Z" fill="#007496"/>
<path d="M234.43 38.1698C234.16 37.6798 233.53 36.7598 233.53 36.7598L229.32 40.8398C229.32 40.8398 231.14 43.9098 231.17 45.8098C231.18 46.5998 231.17 45.7798 231.17 46.5698V48.0998H198.02C195.06 48.0998 193.86 47.2698 193.85 43.2198L195.88 41.1298V38.7998L189.81 45.0298C189.81 45.0298 189.81 47.2598 189.81 47.3298C189.85 48.3798 190.07 49.4298 190.68 50.2898C191.19 51.0098 191.93 51.5098 192.74 51.7998C194.11 52.2898 195.54 52.2198 196.97 52.2098H229.19L235.37 46.6498V44.8798C235.37 42.5898 235.58 40.2398 234.41 38.1698" fill="#007496"/>
<path d="M191.71 86.5195C191.71 86.5195 191.49 86.4595 191.2 86.3895C190.92 86.3195 190.72 86.2595 190.61 86.2095C190.5 86.1595 190.43 86.1095 190.39 86.0495C190.35 85.9895 190.34 85.9095 190.34 85.7995V85.7095C190.34 85.5795 190.4 85.4695 190.52 85.3695C190.64 85.2695 190.82 85.2195 191.06 85.2195C191.33 85.2195 191.53 85.2695 191.67 85.3795C191.8 85.4795 191.87 85.6395 191.87 85.8295V85.8795H192.39V85.8295C192.39 85.6795 192.37 85.5395 192.32 85.4195C192.27 85.2995 192.2 85.1895 192.12 85.1095C192.04 85.0295 191.94 84.9595 191.82 84.9095C191.7 84.8495 191.58 84.8195 191.46 84.7995C191.34 84.7795 191.2 84.7695 191.06 84.7695C190.7 84.7695 190.4 84.8595 190.17 85.0295C189.93 85.1995 189.82 85.4395 189.82 85.7195V85.7695C189.82 86.0095 189.87 86.2195 189.98 86.3695C190.09 86.5295 190.27 86.6495 190.54 86.7295C190.58 86.7395 190.72 86.7795 191.05 86.8595C191.34 86.9295 191.53 86.9895 191.64 87.0395C191.75 87.0895 191.82 87.1395 191.85 87.1995C191.89 87.2595 191.9 87.3495 191.9 87.4495V87.5595C191.9 87.6895 191.84 87.7995 191.72 87.8995C191.6 87.9995 191.42 88.0495 191.18 88.0495C190.91 88.0495 190.71 87.9995 190.57 87.8895C190.44 87.7795 190.37 87.6395 190.37 87.4395V87.2795H189.84V87.4395C189.84 87.5895 189.87 87.7295 189.91 87.8495C189.96 87.9695 190.03 88.0795 190.11 88.1595C190.19 88.2395 190.29 88.3095 190.41 88.3595C190.52 88.4095 190.64 88.4495 190.77 88.4695C190.89 88.4895 191.03 88.4995 191.17 88.4995C191.53 88.4995 191.83 88.4095 192.06 88.2395C192.3 88.0695 192.42 87.8395 192.42 87.5495V87.4695C192.42 87.2295 192.37 87.0195 192.26 86.8695C192.16 86.7095 191.97 86.5895 191.71 86.5095" fill="#78787A"/>
<path d="M198.71 85.6699C198.59 85.6999 198.48 85.7399 198.38 85.7999C198.27 85.8599 198.18 85.9399 198.1 86.0299C198.02 86.1199 197.96 86.2499 197.92 86.3899C197.87 86.5299 197.85 86.6999 197.85 86.8799V87.1899C197.85 87.3699 197.87 87.5399 197.92 87.6799C197.96 87.8299 198.03 87.9499 198.1 88.0399C198.18 88.1299 198.27 88.2099 198.38 88.2699C198.49 88.3299 198.6 88.3699 198.71 88.3999C198.82 88.4199 198.94 88.4399 199.07 88.4399H200.22V85.6299H199.07C198.94 85.6299 198.82 85.6399 198.71 85.6699ZM198.34 86.9999C198.34 86.6699 198.4 86.4399 198.52 86.2999C198.64 86.1599 198.82 86.0999 199.08 86.0999H199.74V87.9999H199.08C198.83 87.9999 198.64 87.9299 198.52 87.7999C198.4 87.6599 198.34 87.4299 198.34 87.0999V87.0199V86.9999Z" fill="#78787A"/>
<path d="M201.62 84.5898H201.13V88.4398H201.62V84.5898Z" fill="#78787A"/>
<path d="M203.02 84.5898H202.53V88.4398H203.02V84.5898Z" fill="#78787A"/>
<path d="M205.07 86.16C204.96 86.07 204.91 85.94 204.91 85.77V85.69C204.91 85.55 204.97 85.44 205.08 85.35C205.2 85.26 205.37 85.22 205.59 85.22C205.81 85.22 205.98 85.26 206.1 85.35C206.21 85.43 206.27 85.55 206.27 85.69V85.89H206.76V85.68C206.76 85.62 206.76 85.55 206.74 85.48C206.73 85.41 206.69 85.33 206.64 85.24C206.59 85.15 206.53 85.07 206.44 85C206.36 84.93 206.24 84.87 206.09 84.82C205.94 84.77 205.77 84.75 205.58 84.75C205.39 84.75 205.22 84.77 205.07 84.82C204.92 84.87 204.81 84.93 204.72 85C204.64 85.07 204.57 85.15 204.52 85.24C204.47 85.33 204.44 85.41 204.43 85.48C204.42 85.55 204.41 85.61 204.41 85.67V85.78C204.41 85.84 204.41 85.9 204.43 85.96C204.43 86.02 204.46 86.08 204.49 86.16C204.52 86.24 204.56 86.31 204.62 86.39C204.66 86.44 204.71 86.49 204.77 86.53C204.54 86.69 204.42 86.95 204.42 87.29V87.46C204.42 87.56 204.43 87.65 204.46 87.74C204.48 87.83 204.53 87.92 204.58 88.01C204.64 88.1 204.72 88.17 204.8 88.24C204.89 88.3 205.01 88.36 205.14 88.39C205.27 88.43 205.43 88.45 205.6 88.45H206.74V86.76H207.15V86.3H205.58C205.34 86.3 205.17 86.25 205.06 86.16M205.6 87.99C205.37 87.99 205.2 87.94 205.08 87.84C204.96 87.74 204.9 87.61 204.9 87.45V87.3C204.9 87.14 204.95 87.01 205.05 86.91C205.15 86.81 205.29 86.76 205.46 86.76H206.25V87.99H205.6Z" fill="#78787A"/>
<path d="M210.34 87.6798L209.31 84.8598L209.3 84.8198H208.54V88.4398H209.07V85.5998L210.08 88.4098L210.1 88.4398H210.58L211.62 85.5898V88.4398H212.15V84.8198H211.38L210.34 87.6798Z" fill="#78787A"/>
<path d="M215.13 85.9698C215.05 85.8798 214.96 85.7998 214.85 85.7398C214.74 85.6798 214.63 85.6398 214.52 85.6098C214.3 85.5598 214.02 85.5598 213.8 85.6098C213.68 85.6298 213.58 85.6798 213.47 85.7398C213.36 85.7998 213.27 85.8798 213.19 85.9698C213.11 86.0598 213.05 86.1898 213.01 86.3298C212.96 86.4698 212.94 86.6398 212.94 86.8198V87.2498C212.94 87.4298 212.96 87.5998 213.01 87.7398C213.05 87.8898 213.12 88.0098 213.19 88.0998C213.26 88.1898 213.36 88.2698 213.47 88.3298C213.58 88.3898 213.69 88.4298 213.8 88.4598C213.91 88.4798 214.03 88.4998 214.16 88.4998C214.3 88.4998 214.43 88.4798 214.56 88.4498C214.69 88.4198 214.8 88.3698 214.91 88.2998C215.02 88.2298 215.12 88.1298 215.2 87.9998C215.28 87.8698 215.33 87.7198 215.36 87.5598V87.4998H214.86V87.5398C214.81 87.7198 214.73 87.8498 214.62 87.9298C214.51 88.0098 214.35 88.0498 214.15 88.0498C213.89 88.0498 213.71 87.9898 213.59 87.8498C213.48 87.7198 213.42 87.5098 213.41 87.2198H215.37V86.8198C215.37 86.6398 215.35 86.4698 215.3 86.3298C215.25 86.1798 215.19 86.0598 215.12 85.9698M214.88 86.7698H213.41C213.43 86.5098 213.49 86.3298 213.6 86.2098C213.72 86.0898 213.9 86.0298 214.14 86.0298C214.38 86.0298 214.57 86.0898 214.68 86.2098C214.79 86.3198 214.86 86.5098 214.88 86.7698Z" fill="#78787A"/>
<path d="M217.98 85.6298H217.31C217.18 85.6298 217.06 85.6398 216.95 85.6698C216.83 85.6998 216.73 85.7399 216.62 85.7999C216.51 85.8599 216.42 85.9398 216.34 86.0398C216.26 86.1398 216.2 86.2598 216.16 86.3998C216.11 86.5398 216.09 86.7098 216.09 86.8898V87.1898C216.09 87.3698 216.11 87.5398 216.16 87.6798C216.2 87.8298 216.27 87.9498 216.34 88.0398C216.42 88.1298 216.51 88.2098 216.62 88.2698C216.73 88.3298 216.84 88.3698 216.95 88.3998C217.06 88.4198 217.18 88.4398 217.31 88.4398H218.46V84.5898H217.98V85.6298ZM216.58 86.9898C216.58 86.6598 216.64 86.4298 216.76 86.2898C216.88 86.1498 217.06 86.0898 217.32 86.0898H217.99V87.9898H217.32C217.07 87.9898 216.88 87.9198 216.76 87.7898C216.64 87.6498 216.58 87.4198 216.58 87.0898V87.0098V86.9898Z" fill="#78787A"/>
<path d="M219.86 85.6299H219.37V88.4399H219.86V85.6299Z" fill="#78787A"/>
<path d="M222.66 87.1497C222.66 87.4897 222.61 87.7196 222.5 87.8596C222.39 87.9896 222.21 88.0596 221.95 88.0596C221.69 88.0596 221.51 87.9896 221.4 87.8596C221.29 87.7296 221.24 87.4897 221.24 87.1497V85.6396H220.75V87.2597C220.75 87.4397 220.77 87.6096 220.81 87.7496C220.85 87.8996 220.91 88.0196 220.98 88.1096C221.05 88.2096 221.14 88.2796 221.25 88.3496C221.35 88.4096 221.46 88.4497 221.58 88.4797C221.69 88.5097 221.82 88.5196 221.95 88.5196C222.08 88.5196 222.21 88.5097 222.32 88.4797C222.43 88.4497 222.55 88.4096 222.65 88.3496C222.76 88.2896 222.84 88.2096 222.92 88.1096C222.99 88.0196 223.05 87.8896 223.09 87.7496C223.13 87.6096 223.15 87.4397 223.15 87.2597V85.6396H222.66V87.1497Z" fill="#78787A"/>
<path d="M230 88.4398H232.08V87.9898H230.52V86.8398H231.99V86.3898H230.52V85.2798H232.08V84.8198H230V88.4398Z" fill="#78787A"/>
<path d="M240.05 85.9698C239.97 85.8798 239.88 85.7998 239.77 85.7398C239.66 85.6798 239.55 85.6398 239.44 85.6098C239.22 85.5598 238.94 85.5598 238.72 85.6098C238.6 85.6298 238.5 85.6798 238.39 85.7398C238.28 85.7998 238.19 85.8798 238.11 85.9698C238.03 86.0598 237.97 86.1898 237.93 86.3298C237.88 86.4698 237.86 86.6398 237.86 86.8198V87.2498C237.86 87.4298 237.88 87.5998 237.93 87.7398C237.97 87.8898 238.04 88.0098 238.11 88.0998C238.18 88.1898 238.28 88.2698 238.39 88.3298C238.5 88.3898 238.61 88.4298 238.72 88.4598C238.83 88.4798 238.95 88.4998 239.08 88.4998C239.22 88.4998 239.35 88.4798 239.48 88.4498C239.61 88.4198 239.72 88.3698 239.83 88.2998C239.94 88.2298 240.04 88.1298 240.12 87.9998C240.2 87.8798 240.25 87.7298 240.28 87.5598V87.4998H239.78V87.5398C239.73 87.7198 239.65 87.8498 239.54 87.9298C239.43 88.0098 239.27 88.0498 239.07 88.0498C238.81 88.0498 238.63 87.9898 238.51 87.8498C238.4 87.7198 238.34 87.5098 238.33 87.2198H240.29V86.8198C240.29 86.6398 240.27 86.4698 240.22 86.3298C240.17 86.1798 240.11 86.0598 240.04 85.9698M239.8 86.7698H238.33C238.35 86.5098 238.41 86.3298 238.52 86.2098C238.64 86.0898 238.82 86.0298 239.06 86.0298C239.3 86.0298 239.49 86.0898 239.6 86.2098C239.71 86.3198 239.78 86.5098 239.8 86.7698Z" fill="#78787A"/>
<path d="M245.2 86.0299C245.12 85.9399 245.03 85.8599 244.92 85.7999C244.82 85.7399 244.7 85.6999 244.59 85.6699C244.48 85.6499 244.36 85.6299 244.23 85.6299H243.08V89.4799H243.57V88.4399H244.23C244.36 88.4399 244.48 88.4299 244.59 88.3999C244.7 88.3799 244.82 88.3299 244.92 88.2699C245.03 88.2099 245.12 88.1299 245.2 88.0399C245.28 87.9499 245.34 87.8199 245.39 87.6799C245.44 87.5399 245.46 87.3699 245.46 87.1899V86.8799C245.46 86.6999 245.44 86.5299 245.39 86.3899C245.35 86.2499 245.28 86.1199 245.2 86.0299ZM244.97 86.9999V87.0799C244.97 87.4099 244.91 87.6399 244.79 87.7799C244.67 87.9199 244.49 87.9799 244.23 87.9799H243.57V86.0799H244.23C244.49 86.0799 244.67 86.1499 244.79 86.2899C244.91 86.4299 244.97 86.6599 244.97 86.9899" fill="#78787A"/>
<path d="M248.71 85.6299H248.22V88.4399H248.71V85.6299Z" fill="#78787A"/>
<path d="M251.19 86.8998C251.13 86.8798 250.97 86.8398 250.75 86.7898C250.51 86.7398 250.35 86.6898 250.25 86.6598C250.12 86.6198 250.07 86.5798 250.05 86.5498C250.02 86.5198 250.01 86.4598 250.01 86.3698V86.3498C250.01 86.2598 250.06 86.1898 250.15 86.1198C250.26 86.0498 250.42 86.0198 250.63 86.0198C251.27 86.0198 251.27 86.3098 251.27 86.3998V86.4498H251.76V86.3998C251.76 86.2498 251.73 86.1198 251.67 86.0098C251.61 85.8998 251.52 85.8098 251.41 85.7398C251.3 85.6798 251.18 85.6298 251.06 85.5998C250.93 85.5698 250.79 85.5498 250.63 85.5498C250.31 85.5498 250.05 85.6198 249.84 85.7498C249.63 85.8898 249.52 86.0698 249.52 86.3098V86.3398C249.52 86.5398 249.56 86.6998 249.65 86.8098C249.74 86.9298 249.89 87.0098 250.09 87.0698C250.14 87.0898 250.28 87.1198 250.52 87.1798C250.75 87.2398 250.92 87.2798 251.02 87.3098C251.15 87.3498 251.2 87.3898 251.23 87.4198C251.26 87.4498 251.28 87.5098 251.28 87.5898V87.6398C251.28 87.7298 251.28 88.0198 250.69 88.0198C250.06 88.0198 250.06 87.7298 250.06 87.6298V87.3998H249.57V87.6298C249.57 87.7798 249.6 87.9098 249.66 88.0198C249.72 88.1298 249.81 88.2198 249.92 88.2898C250.03 88.3498 250.14 88.3998 250.27 88.4298C250.4 88.4598 250.54 88.4798 250.69 88.4798C250.83 88.4798 250.96 88.4698 251.09 88.4398C251.21 88.4098 251.33 88.3698 251.43 88.3098C251.54 88.2498 251.62 88.1598 251.68 88.0498C251.74 87.9398 251.77 87.8098 251.77 87.6598V87.6198C251.77 87.4198 251.72 87.2598 251.64 87.1398C251.55 87.0298 251.4 86.9398 251.2 86.8798" fill="#78787A"/>
<path d="M254.65 85.9698C254.57 85.8798 254.48 85.7998 254.37 85.7398C254.26 85.6798 254.15 85.6398 254.04 85.6098C253.82 85.5598 253.54 85.5598 253.32 85.6098C253.2 85.6298 253.09 85.6798 252.99 85.7398C252.88 85.7998 252.79 85.8798 252.71 85.9698C252.63 86.0698 252.57 86.1898 252.53 86.3298C252.48 86.4698 252.46 86.6398 252.46 86.8198V87.2498C252.46 87.4298 252.48 87.5998 252.53 87.7398C252.57 87.8798 252.64 88.0098 252.71 88.0998C252.79 88.1898 252.88 88.2698 252.99 88.3298C253.1 88.3898 253.21 88.4298 253.32 88.4598C253.43 88.4798 253.55 88.4998 253.68 88.4998C253.82 88.4998 253.95 88.4798 254.08 88.4498C254.21 88.4198 254.33 88.3698 254.44 88.2998C254.55 88.2298 254.65 88.1298 254.73 87.9998C254.81 87.8798 254.86 87.7298 254.89 87.5598V87.4998H254.39V87.5398C254.34 87.7198 254.26 87.8498 254.15 87.9298C254.04 88.0098 253.88 88.0498 253.68 88.0498C253.42 88.0498 253.24 87.9898 253.13 87.8498C253.02 87.7198 252.96 87.5098 252.95 87.2198H254.91V86.8198C254.91 86.6398 254.89 86.4698 254.84 86.3298C254.79 86.1798 254.73 86.0598 254.65 85.9698ZM254.41 86.7698H252.94C252.96 86.5098 253.02 86.3298 253.13 86.2098C253.25 86.0898 253.43 86.0298 253.67 86.0298C253.91 86.0298 254.1 86.0898 254.21 86.2098C254.32 86.3198 254.39 86.5098 254.41 86.7698Z" fill="#78787A"/>
<path d="M257.28 86.8998C257.22 86.8798 257.06 86.8398 256.84 86.7898C256.6 86.7398 256.44 86.6898 256.34 86.6598C256.21 86.6198 256.16 86.5798 256.14 86.5498C256.11 86.5098 256.1 86.4598 256.1 86.3698V86.3498C256.1 86.2598 256.15 86.1798 256.25 86.1198C256.36 86.0498 256.52 86.0198 256.73 86.0198C257.37 86.0198 257.37 86.3098 257.37 86.3998V86.4498H257.86V86.3998C257.86 86.2498 257.83 86.1198 257.77 86.0098C257.71 85.8998 257.62 85.8098 257.52 85.7398C257.41 85.6798 257.29 85.6298 257.16 85.5998C257.03 85.5698 256.89 85.5498 256.73 85.5498C256.41 85.5498 256.15 85.6198 255.94 85.7498C255.73 85.8898 255.62 86.0698 255.62 86.3098V86.3398C255.62 86.5398 255.66 86.6998 255.75 86.8098C255.84 86.9298 255.99 87.0098 256.19 87.0698C256.24 87.0898 256.39 87.1198 256.62 87.1798C256.86 87.2398 257.02 87.2798 257.12 87.3098C257.25 87.3498 257.3 87.3898 257.33 87.4198C257.36 87.4498 257.38 87.5098 257.38 87.5898V87.6398C257.38 87.7298 257.38 88.0198 256.79 88.0198C256.16 88.0198 256.16 87.7298 256.16 87.6298V87.3998H255.67V87.6298C255.67 87.7798 255.7 87.9098 255.76 88.0198C255.82 88.1298 255.91 88.2198 256.02 88.2898C256.13 88.3498 256.25 88.3998 256.37 88.4298C256.5 88.4598 256.64 88.4798 256.79 88.4798C256.93 88.4798 257.07 88.4698 257.19 88.4398C257.31 88.4098 257.43 88.3698 257.53 88.3098C257.63 88.2498 257.72 88.1598 257.78 88.0498C257.84 87.9398 257.87 87.8098 257.87 87.6598V87.6198C257.87 87.4198 257.82 87.2598 257.74 87.1398C257.65 87.0298 257.5 86.9398 257.3 86.8798" fill="#78787A"/>
<path d="M260.52 85.4299C260.65 85.2899 260.86 85.2099 261.13 85.2099C261.38 85.2099 261.58 85.2699 261.7 85.3899C261.83 85.5099 261.91 85.7099 261.93 85.9799V86.0299H262.46V85.9699C262.46 85.7899 262.43 85.6299 262.38 85.4899C262.33 85.3399 262.26 85.2299 262.17 85.1399C262.09 85.0499 261.98 84.9699 261.87 84.9099C261.75 84.8499 261.63 84.8099 261.51 84.7899C261.26 84.7399 260.96 84.7399 260.72 84.7899C260.6 84.8099 260.47 84.8599 260.36 84.9199C260.24 84.9799 260.14 85.0599 260.06 85.1499C259.98 85.2399 259.91 85.3599 259.86 85.5099C259.81 85.6599 259.79 85.8199 259.79 85.9999V87.2399C259.79 87.4199 259.82 87.5899 259.86 87.7299C259.91 87.8799 259.98 87.9999 260.06 88.0899C260.14 88.1799 260.24 88.2599 260.36 88.3199C260.47 88.3799 260.6 88.4299 260.72 88.4499C260.84 88.4699 260.98 88.4899 261.12 88.4899C261.42 88.4899 261.68 88.4599 261.89 88.3899C262.1 88.3299 262.29 88.2199 262.44 88.0599L262.46 88.0399V86.4799H261.29V86.9299H261.93V87.8399C261.84 87.8999 261.73 87.9499 261.63 87.9699C261.51 87.9999 261.34 88.0199 261.12 88.0199C260.85 88.0199 260.64 87.9499 260.51 87.7999C260.38 87.6499 260.31 87.4099 260.31 87.0899V86.1099C260.31 85.7799 260.38 85.5399 260.51 85.3999" fill="#78787A"/>
<path d="M265.4 85.9698C265.32 85.8798 265.23 85.7998 265.12 85.7398C265.01 85.6798 264.9 85.6398 264.78 85.6098C264.67 85.5898 264.55 85.5698 264.42 85.5698C264.29 85.5698 264.17 85.5798 264.06 85.6098C263.95 85.6298 263.83 85.6798 263.73 85.7398C263.62 85.7998 263.53 85.8798 263.45 85.9698C263.37 86.0598 263.31 86.1898 263.27 86.3298C263.22 86.4698 263.2 86.6398 263.2 86.8198V87.2498C263.2 87.4298 263.22 87.5998 263.27 87.7398C263.31 87.8898 263.38 88.0098 263.45 88.0998C263.52 88.1898 263.62 88.2698 263.73 88.3298C263.84 88.3898 263.95 88.4398 264.06 88.4598C264.17 88.4798 264.29 88.4998 264.42 88.4998C264.56 88.4998 264.69 88.4798 264.82 88.4498C264.95 88.4198 265.06 88.3698 265.17 88.2998C265.28 88.2298 265.38 88.1298 265.46 87.9998C265.54 87.8798 265.59 87.7298 265.62 87.5598V87.4998H265.12V87.5398C265.07 87.7198 264.99 87.8498 264.88 87.9298C264.77 88.0098 264.61 88.0498 264.41 88.0498C264.16 88.0498 263.97 87.9798 263.86 87.8498C263.75 87.7198 263.69 87.5098 263.68 87.2198H265.64V86.8198C265.64 86.6398 265.62 86.4698 265.57 86.3298C265.52 86.1898 265.46 86.0698 265.38 85.9698M265.14 86.7698H263.67C263.69 86.5098 263.75 86.3298 263.86 86.2098C263.98 86.0898 264.16 86.0298 264.4 86.0298C264.64 86.0298 264.83 86.0898 264.94 86.2098C265.05 86.3198 265.12 86.5098 265.14 86.7698Z" fill="#78787A"/>
<path d="M268.52 85.9097C268.42 85.8097 268.29 85.7396 268.12 85.6996C267.96 85.6596 267.76 85.6396 267.52 85.6396H266.47V88.4496H266.96V86.0996H267.57C267.72 86.0996 267.85 86.1096 267.95 86.1396C268.04 86.1596 268.12 86.1997 268.17 86.2597C268.22 86.3097 268.26 86.3796 268.28 86.4496C268.3 86.5296 268.31 86.6296 268.31 86.7396V88.4496H268.8V86.7997C268.8 86.5997 268.78 86.4196 268.74 86.2796C268.7 86.1396 268.63 86.0196 268.53 85.9196" fill="#78787A"/>
<path d="M271.75 85.9698C271.67 85.8698 271.58 85.7998 271.47 85.7398C271.36 85.6798 271.25 85.6398 271.14 85.6098C270.92 85.5598 270.64 85.5598 270.42 85.6098C270.3 85.6298 270.19 85.6798 270.09 85.7398C269.98 85.7998 269.89 85.8798 269.81 85.9698C269.73 86.0598 269.67 86.1898 269.63 86.3298C269.58 86.4698 269.56 86.6398 269.56 86.8198V87.2498C269.56 87.4298 269.58 87.5998 269.63 87.7398C269.67 87.8898 269.74 88.0098 269.81 88.0998C269.88 88.1898 269.98 88.2698 270.09 88.3298C270.2 88.3898 270.31 88.4298 270.42 88.4598C270.53 88.4798 270.65 88.4998 270.78 88.4998C270.92 88.4998 271.05 88.4798 271.18 88.4498C271.31 88.4198 271.42 88.3698 271.53 88.2998C271.64 88.2298 271.74 88.1298 271.82 87.9998C271.9 87.8798 271.95 87.7298 271.98 87.5598V87.4998H271.48V87.5398C271.43 87.7198 271.35 87.8498 271.24 87.9298C271.13 88.0098 270.97 88.0498 270.77 88.0498C270.51 88.0498 270.33 87.9898 270.22 87.8498C270.11 87.7198 270.05 87.5098 270.04 87.2198H272V86.8198C272 86.6398 271.98 86.4698 271.93 86.3298C271.88 86.1898 271.82 86.0698 271.75 85.9698ZM271.51 86.7698H270.04C270.06 86.5098 270.12 86.3298 270.23 86.2098C270.35 86.0898 270.53 86.0298 270.77 86.0298C271.01 86.0298 271.2 86.0898 271.31 86.2098C271.42 86.3198 271.49 86.5098 271.51 86.7698Z" fill="#78787A"/>
<path d="M272.81 88.4399H273.3V86.0899H274.09V85.6299H272.81V88.4399Z" fill="#78787A"/>
<path d="M275.36 85.6699C275.24 85.6999 275.14 85.7399 275.03 85.7999C274.92 85.8599 274.83 85.9399 274.75 86.0299C274.67 86.1199 274.61 86.2499 274.57 86.3899C274.52 86.5299 274.5 86.6999 274.5 86.8799V87.1899C274.5 87.3699 274.52 87.5399 274.57 87.6799C274.61 87.8299 274.68 87.9499 274.75 88.0399C274.83 88.1299 274.92 88.2099 275.03 88.2699C275.14 88.3299 275.25 88.3699 275.36 88.3999C275.47 88.4199 275.59 88.4399 275.72 88.4399H276.87V85.6299H275.72C275.59 85.6299 275.47 85.6399 275.36 85.6699ZM274.99 86.9999C274.99 86.6699 275.05 86.4399 275.17 86.2999C275.28 86.1599 275.47 86.0999 275.73 86.0999H276.39V87.9999H275.73C275.47 87.9999 275.29 87.9299 275.17 87.7999C275.05 87.6599 274.99 87.4299 274.99 87.0999V87.0199V86.9999Z" fill="#78787A"/>
<path d="M278.27 84.5898H277.78V88.4398H278.27V84.5898Z" fill="#78787A"/>
<path d="M281.54 84.8198H280.9L279.76 88.3698L279.74 88.4398H280.29L280.53 87.6798H281.91L282.15 88.4398H282.7L281.55 84.8598V84.8198H281.54ZM281.76 87.2198H280.68L281.22 85.5398L281.76 87.2198Z" fill="#78787A"/>
<path d="M285.16 87.1497C285.16 87.4797 285.11 87.7196 285 87.8596C284.9 87.9896 284.71 88.0596 284.45 88.0596C284.19 88.0596 284 87.9896 283.9 87.8596C283.79 87.7296 283.74 87.4897 283.74 87.1497V85.6396H283.25V87.2597C283.25 87.4397 283.27 87.6096 283.31 87.7496C283.35 87.8996 283.41 88.0196 283.48 88.1096C283.55 88.2096 283.64 88.2796 283.75 88.3496C283.85 88.4096 283.96 88.4497 284.08 88.4797C284.19 88.5097 284.31 88.5196 284.45 88.5196C284.59 88.5196 284.71 88.5097 284.82 88.4797C284.93 88.4497 285.04 88.4096 285.15 88.3496C285.25 88.2896 285.34 88.2096 285.41 88.1096C285.48 88.0196 285.54 87.8896 285.58 87.7496C285.62 87.6096 285.64 87.4397 285.64 87.2597V85.6396H285.16V87.1497Z" fill="#78787A"/>
<path d="M290.52 85.9096C290.42 85.8096 290.29 85.7396 290.12 85.6996C289.96 85.6596 289.76 85.6396 289.52 85.6396H288.95V84.5996H288.46V88.4496H288.95V86.0996H289.56C289.71 86.0996 289.84 86.1096 289.94 86.1396C290.03 86.1596 290.11 86.1996 290.16 86.2596C290.21 86.3196 290.25 86.3796 290.27 86.4496C290.29 86.5296 290.3 86.6296 290.3 86.7396V88.4496H290.79V86.7996C290.79 86.5896 290.77 86.4196 290.73 86.2796C290.69 86.1396 290.62 86.0196 290.52 85.9196" fill="#78787A"/>
<path d="M293.76 85.9698C293.68 85.8698 293.59 85.7998 293.48 85.7398C293.37 85.6798 293.26 85.6398 293.15 85.6098C292.93 85.5598 292.65 85.5598 292.43 85.6098C292.31 85.6398 292.2 85.6798 292.1 85.7398C291.99 85.7998 291.9 85.8798 291.82 85.9698C291.74 86.0598 291.68 86.1798 291.64 86.3298C291.59 86.4698 291.57 86.6398 291.57 86.8198V87.2498C291.57 87.4298 291.59 87.5998 291.64 87.7398C291.69 87.8898 291.75 88.0098 291.82 88.0998C291.89 88.1898 291.99 88.2698 292.1 88.3298C292.21 88.3898 292.32 88.4298 292.43 88.4598C292.54 88.4798 292.66 88.4998 292.79 88.4998C292.92 88.4998 293.04 88.4898 293.15 88.4598C293.26 88.4398 293.38 88.3898 293.48 88.3298C293.59 88.2698 293.68 88.1898 293.76 88.0998C293.84 88.0098 293.9 87.8798 293.95 87.7398C294 87.5998 294.02 87.4298 294.02 87.2498V86.8198C294.02 86.6398 294 86.4698 293.95 86.3298C293.9 86.1898 293.84 86.0698 293.76 85.9698ZM293.53 86.9298V87.1498C293.53 87.4798 293.47 87.7098 293.35 87.8498C293.23 87.9898 293.05 88.0498 292.79 88.0498C292.53 88.0498 292.35 87.9798 292.23 87.8498C292.11 87.7098 292.05 87.4698 292.05 87.1498V86.9298C292.05 86.5998 292.11 86.3698 292.23 86.2298C292.35 86.0898 292.53 86.0298 292.79 86.0298C293.05 86.0298 293.24 86.0998 293.35 86.2298C293.47 86.3698 293.53 86.5998 293.53 86.9298Z" fill="#78787A"/>
<path d="M297.27 85.6299H296.78V88.4399H297.27V85.6299Z" fill="#78787A"/>
<path d="M298.95 84.8198H298.46V85.6298H298.01V86.0898H298.46V88.4398H298.95V86.0898H299.41V85.6298H298.95V84.8198Z" fill="#78787A"/>
<path d="M302.11 85.6299L301.26 87.8899L300.42 85.6699V85.6399H299.88L300.89 88.3099C300.92 88.3799 300.97 88.4399 301.04 88.4699L300.65 89.4899H301.17L302.63 85.6399H302.1L302.11 85.6299Z" fill="#78787A"/>
<path d="M294.82 88.4399H295.31V86.0899H296.09V85.6299H294.82V88.4399Z" fill="#78787A"/>
<path d="M246.26 88.4399H246.75V86.0899H247.53V85.6299H246.26V88.4399Z" fill="#78787A"/>
<path d="M241.11 88.4399H241.6V86.0899H242.39V85.6299H241.11V88.4399Z" fill="#78787A"/>
<path d="M287.26 84.8198H286.77V85.6298H286.32V86.0898H286.77V88.4398H287.26V86.0898H287.72V85.6298H287.26V84.8198Z" fill="#78787A"/>
<path d="M236.92 84.8198H236.43V85.6298H235.98V86.0898H236.43V88.4398H236.92V86.0898H237.39V85.6298H236.92V84.8198Z" fill="#78787A"/>
<path d="M234.96 85.9097C234.86 85.8097 234.73 85.7396 234.56 85.6996C234.4 85.6596 234.2 85.6396 233.96 85.6396H232.91V88.4496H233.4V86.0996H234.01C234.16 86.0996 234.29 86.1096 234.39 86.1396C234.48 86.1596 234.55 86.1997 234.61 86.2597C234.66 86.3097 234.7 86.3796 234.72 86.4496C234.74 86.5296 234.75 86.6296 234.75 86.7396V88.4496H235.24V86.7997C235.24 86.5897 235.22 86.4196 235.18 86.2796C235.14 86.1396 235.07 86.0196 234.97 85.9196" fill="#78787A"/>
<path d="M248.72 84.9398C248.72 84.9398 248.67 84.8698 248.62 84.8498C248.53 84.8098 248.4 84.8098 248.31 84.8498C248.26 84.8698 248.23 84.8998 248.21 84.9398C248.19 84.9698 248.18 84.9998 248.17 85.0298C248.17 85.0598 248.17 85.0798 248.17 85.1098C248.17 85.1398 248.17 85.1598 248.18 85.1898C248.18 85.2198 248.2 85.2498 248.21 85.2698C248.23 85.3098 248.26 85.3398 248.31 85.3598C248.31 85.3598 248.41 85.3898 248.46 85.3898C248.51 85.3898 248.57 85.3898 248.61 85.3598C248.66 85.3398 248.69 85.3098 248.71 85.2698C248.73 85.2398 248.74 85.2098 248.75 85.1798C248.75 85.1498 248.75 85.1298 248.75 85.0998C248.75 85.0698 248.75 85.0498 248.75 85.0198C248.75 84.9898 248.73 84.9598 248.72 84.9398Z" fill="#78787A"/>
<path d="M219.87 84.9398C219.87 84.9398 219.82 84.8698 219.77 84.8498C219.68 84.8098 219.55 84.8098 219.46 84.8498C219.42 84.8698 219.38 84.8998 219.36 84.9398C219.34 84.9698 219.33 84.9998 219.33 85.0198C219.33 85.0398 219.33 85.0698 219.33 85.0998C219.33 85.1298 219.33 85.1498 219.33 85.1798C219.33 85.1998 219.34 85.2298 219.36 85.2698C219.38 85.3098 219.41 85.3398 219.46 85.3598C219.5 85.3798 219.56 85.3898 219.61 85.3898C219.66 85.3898 219.72 85.3798 219.76 85.3598C219.81 85.3398 219.84 85.3098 219.86 85.2698C219.88 85.2398 219.89 85.2098 219.89 85.1798C219.89 85.1598 219.89 85.1298 219.89 85.0998C219.89 85.0698 219.89 85.0498 219.89 85.0198C219.89 84.9898 219.87 84.9698 219.86 84.9298" fill="#78787A"/>
<path d="M297.27 84.9398C297.27 84.9398 297.22 84.8698 297.17 84.8498C297.08 84.8098 296.95 84.8098 296.86 84.8498C296.81 84.8698 296.78 84.8998 296.76 84.9398C296.74 84.9698 296.73 84.9998 296.72 85.0298C296.72 85.0598 296.72 85.0798 296.72 85.1098C296.72 85.1398 296.72 85.1598 296.72 85.1898C296.72 85.2198 296.74 85.2498 296.75 85.2698C296.77 85.3098 296.8 85.3398 296.85 85.3598C296.85 85.3598 296.95 85.3898 297 85.3898C297.05 85.3898 297.11 85.3898 297.15 85.3598C297.2 85.3398 297.23 85.3098 297.25 85.2698C297.27 85.2398 297.28 85.2098 297.29 85.1798C297.29 85.1498 297.29 85.1298 297.29 85.0998C297.29 85.0698 297.29 85.0498 297.29 85.0198C297.29 84.9898 297.27 84.9598 297.26 84.9398" fill="#78787A"/>
<path d="M227.6 85.9199C227.51 85.8199 227.38 85.7499 227.22 85.6999C227.07 85.6599 226.87 85.6299 226.65 85.6299H224.03V88.4399H224.52V86.0899H225.66V88.4399H226.15V86.0899H226.64C226.79 86.0899 226.92 86.0999 227.02 86.1299C227.11 86.1499 227.18 86.1899 227.24 86.2499C227.29 86.3099 227.33 86.3699 227.35 86.4399C227.37 86.5199 227.38 86.6099 227.38 86.7299V88.4399H227.87V86.7799C227.87 86.5799 227.85 86.4099 227.81 86.2699C227.77 86.1299 227.71 86.0099 227.61 85.9099" fill="#78787A"/>
<path d="M196.83 85.9199C196.74 85.8199 196.61 85.7499 196.45 85.6999C196.3 85.6599 196.1 85.6299 195.88 85.6299H193.26V88.4399H193.75V86.0899H194.89V88.4399H195.38V86.0899H195.87C196.02 86.0899 196.15 86.0999 196.25 86.1299C196.34 86.1499 196.42 86.1899 196.47 86.2499C196.52 86.3099 196.56 86.3699 196.58 86.4399C196.6 86.5199 196.61 86.6199 196.61 86.7299V88.4399H197.1V86.7799C197.1 86.5799 197.08 86.4099 197.05 86.2699C197.01 86.1299 196.95 86.0099 196.85 85.9099" fill="#78787A"/>
<path d="M302.63 77.3398H302.12V82.3198H302.63V77.3398Z" fill="#78787A"/>
<path d="M300.53 77.3396V81.7996H299.34V80.6996C299.34 80.3796 299.31 80.1196 299.26 79.9096C299.21 79.6996 299.12 79.5296 299 79.4096C298.88 79.2896 298.73 79.1996 298.55 79.1496C298.37 79.0996 298.15 79.0696 297.89 79.0696H297.05V79.5796H297.92C298.08 79.5796 298.22 79.5896 298.33 79.6296C298.44 79.6596 298.53 79.7096 298.61 79.7896C298.69 79.8696 298.75 79.9796 298.78 80.1096C298.81 80.2496 298.83 80.4196 298.83 80.6296V81.7996H298.32V81.0696C298.32 80.9096 298.3 80.7596 298.26 80.6396C298.22 80.5096 298.17 80.4096 298.1 80.3296C298.03 80.2496 297.95 80.1796 297.86 80.1296C297.77 80.0796 297.67 80.0396 297.57 80.0196C297.47 79.9996 297.37 79.9896 297.25 79.9896C297.13 79.9896 297.03 79.9996 296.93 80.0196C296.83 80.0396 296.74 80.0796 296.64 80.1296C296.55 80.1796 296.47 80.2496 296.4 80.3296C296.33 80.4096 296.28 80.5096 296.24 80.6396C296.2 80.7696 296.18 80.9096 296.18 81.0696V81.0996C296.18 81.2596 296.2 81.5296 296.24 81.6596C296.26 81.7196 296.29 81.7496 296.31 81.7996H294.77V79.1896H294.26V81.7996H292.39V79.1896H291.88V81.7996H290.13V80.2796C290.13 80.1196 290.11 79.9696 290.07 79.8496C290.03 79.7196 289.98 79.6196 289.91 79.5396C289.84 79.4596 289.76 79.3996 289.67 79.3396C289.58 79.2896 289.48 79.2496 289.38 79.2296C289.28 79.2096 289.18 79.1996 289.06 79.1996H288.61C288.51 79.1996 288.41 79.2096 288.32 79.2296C288.22 79.2496 288.13 79.2896 288.03 79.3396C287.94 79.3896 287.86 79.4596 287.79 79.5396C287.72 79.6196 287.67 79.7196 287.63 79.8496C287.59 79.9796 287.57 80.1196 287.57 80.2796V81.2296C287.57 81.3896 287.59 81.5296 287.63 81.6596C287.67 81.7896 287.72 81.8896 287.79 81.9696C287.86 82.0496 287.93 82.1196 288.03 82.1696C288.12 82.2196 288.22 82.2596 288.32 82.2796C288.42 82.2996 288.53 82.3096 288.64 82.3096H301.01V77.3296H300.5L300.53 77.3396ZM289.65 81.8096C289.22 81.8096 288.68 81.8096 288.67 81.8096C288.48 81.8096 288.34 81.7596 288.25 81.6596C288.16 81.5596 288.12 81.3896 288.12 81.1496V80.3896C288.12 80.1496 288.16 79.9796 288.25 79.8796C288.33 79.7796 288.46 79.7296 288.64 79.7296H289.09C289.28 79.7296 289.42 79.7796 289.51 79.8796C289.6 79.9796 289.64 80.1496 289.64 80.3896V81.8196L289.65 81.8096ZM297.82 81.8096H297.27C297.08 81.8096 296.95 81.7496 296.86 81.6496C296.74 81.5196 296.73 81.2996 296.73 81.2996C296.73 81.2696 296.73 81.1196 296.73 81.0996C296.73 80.8996 296.78 80.7596 296.86 80.6696C296.95 80.5696 297.09 80.5196 297.27 80.5196C297.45 80.5196 297.6 80.5696 297.69 80.6696C297.78 80.7696 297.82 80.9396 297.82 81.1796V81.8096Z" fill="#78787A"/>
<path d="M292.66 78.6998H292.72V78.3498H292.3C292.22 78.3098 292.17 78.2198 292.19 78.1398C292.21 78.0198 292.35 77.9498 292.56 77.9498H292.77V77.5898H292.52C292.07 77.5898 291.84 77.7598 291.83 78.1098C291.83 78.1798 291.85 78.2598 291.88 78.3498H291.57V78.6998H292.67H292.66Z" fill="#78787A"/>
<path d="M294.86 83.4396C294.86 83.4396 294.97 83.4696 295.04 83.4696C295.11 83.4696 295.17 83.4596 295.22 83.4396C295.27 83.4196 295.3 83.3896 295.32 83.3496C295.34 83.3096 295.35 83.2796 295.36 83.2496C295.36 83.2196 295.36 83.1896 295.36 83.1596C295.36 83.1296 295.36 83.0996 295.36 83.0696C295.36 83.0396 295.34 83.0096 295.32 82.9696C295.3 82.9296 295.27 82.8996 295.22 82.8796C295.17 82.8596 295.11 82.8496 295.04 82.8496C294.97 82.8496 294.91 82.8596 294.86 82.8796C294.81 82.8996 294.78 82.9296 294.76 82.9696C294.74 83.0096 294.73 83.0396 294.72 83.0696C294.72 83.0996 294.71 83.1296 294.71 83.1596C294.71 83.1896 294.71 83.2196 294.72 83.2496C294.72 83.2796 294.74 83.3096 294.76 83.3496C294.78 83.3896 294.81 83.4196 294.86 83.4396Z" fill="#78787A"/>
<path d="M294.21 83.4396C294.21 83.4396 294.29 83.3896 294.31 83.3496C294.33 83.3096 294.34 83.2796 294.35 83.2496C294.35 83.2196 294.36 83.1896 294.36 83.1596C294.36 83.1296 294.36 83.0996 294.35 83.0696C294.35 83.0396 294.33 83.0096 294.31 82.9696C294.29 82.9296 294.26 82.8996 294.21 82.8796C294.16 82.8596 294.1 82.8496 294.03 82.8496C293.96 82.8496 293.9 82.8596 293.85 82.8796C293.8 82.8996 293.77 82.9296 293.75 82.9696C293.73 83.0096 293.72 83.0396 293.71 83.0696C293.71 83.0996 293.71 83.1296 293.71 83.1596C293.71 83.1896 293.71 83.2196 293.71 83.2496C293.71 83.2796 293.73 83.3096 293.75 83.3496C293.77 83.3896 293.8 83.4196 293.85 83.4396C293.9 83.4596 293.96 83.4696 294.03 83.4696C294.1 83.4696 294.16 83.4596 294.21 83.4396Z" fill="#78787A"/>
<path d="M289.11 78.5298C289.11 78.5298 289.16 78.5998 289.21 78.6198C289.26 78.6398 289.32 78.6498 289.39 78.6498C289.46 78.6498 289.52 78.6398 289.57 78.6198C289.62 78.5998 289.65 78.5698 289.67 78.5298C289.69 78.4898 289.7 78.4598 289.71 78.4298C289.71 78.3998 289.71 78.3698 289.71 78.3398C289.71 78.3098 289.71 78.2798 289.71 78.2498C289.71 78.2198 289.69 78.1898 289.67 78.1498C289.65 78.1098 289.62 78.0798 289.57 78.0598C289.52 78.0398 289.46 78.0298 289.39 78.0298C289.32 78.0298 289.26 78.0398 289.21 78.0598C289.16 78.0798 289.13 78.1098 289.11 78.1498C289.09 78.1898 289.08 78.2198 289.07 78.2498C289.07 78.2798 289.07 78.3098 289.07 78.3398C289.07 78.3698 289.07 78.3998 289.07 78.4298C289.07 78.4598 289.09 78.4898 289.11 78.5298Z" fill="#78787A"/>
<path d="M288.11 78.5298C288.11 78.5298 288.16 78.5998 288.21 78.6198C288.26 78.6398 288.32 78.6498 288.39 78.6498C288.46 78.6498 288.52 78.6398 288.57 78.6198C288.62 78.5998 288.65 78.5698 288.67 78.5298C288.69 78.4898 288.7 78.4598 288.71 78.4298C288.71 78.3998 288.71 78.3698 288.71 78.3398C288.71 78.3098 288.71 78.2798 288.71 78.2498C288.71 78.2198 288.69 78.1898 288.67 78.1498C288.65 78.1098 288.62 78.0798 288.57 78.0598C288.52 78.0398 288.46 78.0298 288.39 78.0298C288.32 78.0298 288.26 78.0398 288.21 78.0598C288.16 78.0798 288.13 78.1098 288.11 78.1498C288.09 78.1898 288.08 78.2198 288.07 78.2498C288.07 78.2798 288.07 78.3098 288.07 78.3398C288.07 78.3698 288.07 78.3998 288.07 78.4298C288.07 78.4598 288.09 78.4898 288.11 78.5298Z" fill="#78787A"/>
<path d="M266.36 77.3396V81.7996H265.02V77.3396H264.51V81.7996H263.46V80.2796C263.46 80.1196 263.44 79.9796 263.4 79.8496C263.36 79.7196 263.31 79.6196 263.24 79.5396C263.17 79.4596 263.09 79.3996 263 79.3396C262.91 79.2896 262.81 79.2496 262.71 79.2296C262.61 79.2096 262.51 79.1996 262.39 79.1996C262.39 79.1996 261.95 79.1996 261.94 79.1996C261.84 79.1996 261.74 79.2096 261.65 79.2296C261.55 79.2496 261.45 79.2896 261.36 79.3396C261.27 79.3896 261.19 79.4596 261.12 79.5396C261.05 79.6196 261 79.7196 260.96 79.8496C260.92 79.9696 260.91 80.0996 260.9 80.2496C260.9 80.2496 260.9 80.2696 260.9 80.2796V80.5996C260.9 81.0196 260.82 81.3296 260.67 81.5096C260.52 81.6996 260.25 81.7996 259.88 81.7996H259.28V79.1896H258.77V81.7996H256.6V79.1896H256.09V81.7996H255.61C255.24 81.7996 254.98 81.6996 254.83 81.5096C254.68 81.3196 254.6 80.9896 254.6 80.5296V79.4696H254.1V80.5296C254.1 80.9896 254.02 81.3196 253.87 81.5096C253.72 81.6996 253.46 81.7996 253.08 81.7996H252.6V79.4696H252.09V81.7996H249.75V77.3396H249.24V82.3196H253.07C253.24 82.3196 253.4 82.2996 253.54 82.2696C253.69 82.2396 253.82 82.1796 253.95 82.1096C254.08 82.0296 254.19 81.9296 254.28 81.8096C254.3 81.7896 254.31 81.7596 254.32 81.7296C254.34 81.7496 254.35 81.7796 254.37 81.8096C254.46 81.9296 254.57 82.0296 254.7 82.1096C254.83 82.1896 254.97 82.2396 255.11 82.2696C255.24 82.2996 255.38 82.3096 255.53 82.3096H259.84C260.01 82.3096 260.17 82.2896 260.31 82.2596C260.45 82.2296 260.59 82.1696 260.72 82.0996C260.83 82.0296 260.92 81.9496 261 81.8496C261.02 81.8896 261.04 81.9396 261.06 81.9696C261.13 82.0496 261.2 82.1196 261.3 82.1696C261.39 82.2196 261.49 82.2596 261.59 82.2796C261.69 82.2996 261.79 82.3096 261.91 82.3096H266.81V77.3296H266.3L266.36 77.3396ZM262.95 81.8096H261.97C261.78 81.8096 261.64 81.7596 261.55 81.6496C261.46 81.5496 261.42 81.3796 261.42 81.1396V80.3796C261.42 80.1396 261.46 79.9696 261.55 79.8696C261.63 79.7696 261.77 79.7196 261.94 79.7196H262.39C262.58 79.7196 262.72 79.7696 262.81 79.8696C262.9 79.9696 262.94 80.1396 262.94 80.3796V81.8096H262.95Z" fill="#78787A"/>
<path d="M248.62 76.62L249.12 76.24C249.27 76.39 249.45 76.47 249.65 76.47C249.85 76.47 250.05 76.39 250.24 76.23V76.64C250.08 76.78 249.88 76.85 249.63 76.85C249.41 76.85 249.25 76.79 249.12 76.67L248.83 76.88L248.62 76.61V76.62Z" fill="#78787A"/>
<path d="M247.79 81.8097H244.36C243.99 81.8097 243.73 81.7097 243.58 81.5197C243.43 81.3297 243.35 80.9997 243.35 80.5397V79.9497H242.85V80.7297C242.85 80.9697 242.88 81.1797 242.93 81.3597C242.98 81.5497 243.06 81.6997 243.15 81.8197C243.24 81.9397 243.35 82.0397 243.48 82.1197C243.61 82.1997 243.75 82.2497 243.89 82.2797C244.02 82.3097 244.16 82.3197 244.31 82.3197H247.8H248.31V79.1997H247.8V81.8097H247.79Z" fill="#78787A"/>
<path d="M254.65 78.1596C254.65 78.1596 254.62 78.2296 254.61 78.2596C254.61 78.2896 254.61 78.3195 254.61 78.3395C254.61 78.3695 254.61 78.3996 254.61 78.4296C254.61 78.4596 254.63 78.4895 254.65 78.5295C254.67 78.5695 254.7 78.5996 254.75 78.6196C254.8 78.6396 254.86 78.6496 254.93 78.6496C255 78.6496 255.06 78.6396 255.11 78.6196C255.16 78.5996 255.19 78.5695 255.21 78.5295C255.23 78.4895 255.24 78.4596 255.25 78.4296C255.25 78.3996 255.25 78.3695 255.25 78.3395C255.25 78.3095 255.25 78.2796 255.25 78.2596C255.25 78.2296 255.23 78.1996 255.21 78.1596C255.19 78.1196 255.16 78.0895 255.11 78.0695C255.06 78.0495 255.01 78.0396 254.93 78.0396C254.85 78.0396 254.8 78.0495 254.75 78.0695C254.7 78.0895 254.67 78.1196 254.65 78.1596Z" fill="#78787A"/>
<path d="M258.77 78.5298C258.77 78.5298 258.82 78.5998 258.87 78.6198C258.92 78.6398 258.98 78.6498 259.05 78.6498C259.12 78.6498 259.18 78.6398 259.23 78.6198C259.28 78.5998 259.31 78.5698 259.33 78.5298C259.35 78.4898 259.36 78.4598 259.37 78.4298C259.37 78.3998 259.37 78.3698 259.37 78.3398C259.37 78.3098 259.37 78.2798 259.37 78.2498C259.37 78.2198 259.35 78.1898 259.33 78.1498C259.31 78.1098 259.28 78.0798 259.23 78.0598C259.18 78.0398 259.12 78.0298 259.05 78.0298C258.98 78.0298 258.92 78.0398 258.87 78.0598C258.82 78.0798 258.79 78.1098 258.77 78.1498C258.75 78.1898 258.74 78.2198 258.73 78.2498C258.73 78.2798 258.73 78.3098 258.73 78.3398C258.73 78.3698 258.73 78.3998 258.73 78.4298C258.73 78.4598 258.75 78.4898 258.77 78.5298Z" fill="#78787A"/>
<path d="M254.22 77.7397C254.22 77.7397 254.27 77.8098 254.32 77.8298C254.37 77.8498 254.43 77.8597 254.5 77.8597C254.57 77.8597 254.63 77.8498 254.68 77.8298C254.73 77.8098 254.76 77.7797 254.78 77.7397C254.8 77.6997 254.81 77.6697 254.82 77.6397C254.82 77.6097 254.82 77.5798 254.82 77.5498C254.82 77.5198 254.82 77.4897 254.82 77.4597C254.82 77.4297 254.8 77.3997 254.78 77.3597C254.76 77.3197 254.73 77.2897 254.68 77.2697C254.63 77.2497 254.57 77.2397 254.5 77.2397C254.43 77.2397 254.37 77.2497 254.32 77.2697C254.27 77.2897 254.24 77.3197 254.22 77.3597C254.2 77.3997 254.19 77.4297 254.18 77.4597C254.18 77.4897 254.18 77.5198 254.18 77.5498C254.18 77.5798 254.18 77.6097 254.18 77.6397C254.18 77.6697 254.2 77.6997 254.22 77.7397Z" fill="#78787A"/>
<path d="M253.65 78.5298C253.65 78.5298 253.7 78.5998 253.75 78.6198C253.8 78.6398 253.86 78.6498 253.93 78.6498C254 78.6498 254.06 78.6398 254.11 78.6198C254.16 78.5998 254.19 78.5698 254.21 78.5298C254.23 78.4898 254.24 78.4598 254.25 78.4298C254.25 78.3998 254.25 78.3698 254.25 78.3398C254.25 78.3098 254.25 78.2798 254.25 78.2498C254.25 78.2198 254.23 78.1898 254.21 78.1498C254.19 78.1098 254.16 78.0798 254.11 78.0598C254.06 78.0398 254.01 78.0298 253.93 78.0298C253.85 78.0298 253.8 78.0398 253.75 78.0598C253.7 78.0798 253.67 78.1098 253.65 78.1498C253.63 78.1898 253.62 78.2198 253.61 78.2498C253.61 78.2798 253.61 78.3098 253.61 78.3398C253.61 78.3698 253.61 78.3998 253.61 78.4298C253.61 78.4598 253.63 78.4898 253.65 78.5298Z" fill="#78787A"/>
<path d="M245.79 78.5298C245.79 78.5298 245.84 78.5998 245.89 78.6198C245.94 78.6398 246 78.6498 246.07 78.6498C246.14 78.6498 246.2 78.6398 246.25 78.6198C246.3 78.5998 246.33 78.5698 246.35 78.5298C246.37 78.4898 246.38 78.4598 246.39 78.4298C246.39 78.3998 246.39 78.3698 246.39 78.3398C246.39 78.3098 246.39 78.2798 246.39 78.2498C246.39 78.2198 246.37 78.1898 246.35 78.1498C246.33 78.1098 246.3 78.0798 246.25 78.0598C246.2 78.0398 246.14 78.0298 246.07 78.0298C246 78.0298 245.94 78.0398 245.89 78.0598C245.84 78.0798 245.81 78.1098 245.79 78.1498C245.77 78.1898 245.76 78.2198 245.75 78.2498C245.75 78.2798 245.75 78.3098 245.75 78.3398C245.75 78.3698 245.75 78.3998 245.75 78.4298C245.75 78.4598 245.77 78.4898 245.79 78.5298Z" fill="#78787A"/>
<path d="M244.79 78.5298C244.79 78.5298 244.84 78.5998 244.89 78.6198C244.94 78.6398 245 78.6498 245.07 78.6498C245.14 78.6498 245.2 78.6398 245.25 78.6198C245.3 78.5998 245.33 78.5698 245.35 78.5298C245.37 78.4898 245.38 78.4598 245.39 78.4298C245.39 78.3998 245.39 78.3698 245.39 78.3398C245.39 78.3098 245.39 78.2798 245.39 78.2498C245.39 78.2198 245.37 78.1898 245.35 78.1498C245.33 78.1098 245.3 78.0798 245.25 78.0598C245.2 78.0398 245.15 78.0298 245.07 78.0298C244.99 78.0298 244.94 78.0398 244.89 78.0598C244.84 78.0798 244.81 78.1098 244.79 78.1498C244.77 78.1898 244.76 78.2198 244.75 78.2498C244.75 78.2798 244.75 78.3098 244.75 78.3398C244.75 78.3698 244.75 78.3998 244.75 78.4298C244.75 78.4598 244.77 78.4898 244.79 78.5298Z" fill="#78787A"/>
<path d="M240.5 77.3398H239.99V82.3198H240.5V77.3398Z" fill="#78787A"/>
<path d="M238.39 77.3398V81.7999H237.2V80.4799C237.2 80.0299 236.89 79.5798 236.42 79.3598C236.05 79.1798 235.32 79.0198 234.28 79.6798V79.1998H233.77V81.7999H232.6C232.28 81.7999 231.99 81.7698 231.74 81.6998C232.23 81.2398 232.6 80.7998 232.64 80.2898C232.68 79.7098 232.34 79.3198 231.7 79.2198C231.03 79.1198 230.19 79.3599 230.15 79.3699L230.02 79.4099L229.98 79.5398C229.84 79.9698 229.8 80.6598 230.3 81.3498C230.42 81.5098 230.55 81.6498 230.7 81.7698C230.63 81.7898 230.56 81.7999 230.5 81.7999H228.45V79.1898H227.94V81.7999H226.02V79.2098H225.51V81.7698C225.51 81.9798 225.49 82.1598 225.46 82.3098C225.43 82.4498 225.38 82.5698 225.31 82.6498C225.24 82.7298 225.16 82.7998 225.06 82.8398C224.97 82.8798 224.85 82.8998 224.71 82.9198V83.4799C224.86 83.4699 224.99 83.4498 225.11 83.4198C225.23 83.3898 225.35 83.3398 225.46 83.2598C225.58 83.1898 225.67 83.0899 225.75 82.9799C225.83 82.8699 225.89 82.7198 225.94 82.5298C225.96 82.4598 225.97 82.3898 225.98 82.3198H230.49C230.73 82.3198 230.98 82.2298 231.23 82.0898C231.61 82.2498 232.06 82.3198 232.58 82.3198H238.87V77.3398H238.36H238.39ZM231.22 81.4898C231.02 81.3798 230.86 81.2299 230.73 81.0499C230.39 80.5799 230.37 80.1798 230.44 79.8298C230.68 79.7698 231.21 79.6699 231.63 79.7299C232.11 79.7999 232.15 80.0498 232.13 80.2498C232.09 80.7198 231.67 81.1298 231.21 81.4898M236.68 81.7999H234.27V80.2999C235 79.7499 235.69 79.5698 236.19 79.8098C236.52 79.9698 236.68 80.2598 236.68 80.4698V81.7898V81.7999Z" fill="#78787A"/>
<path d="M230.88 78.5298C230.88 78.5298 230.93 78.5998 230.98 78.6198C231.03 78.6398 231.09 78.6498 231.16 78.6498C231.23 78.6498 231.29 78.6398 231.34 78.6198C231.39 78.5998 231.42 78.5698 231.44 78.5298C231.46 78.4898 231.47 78.4598 231.48 78.4298C231.48 78.3998 231.48 78.3698 231.48 78.3398C231.48 78.3098 231.48 78.2798 231.48 78.2498C231.48 78.2198 231.46 78.1898 231.44 78.1498C231.42 78.1098 231.39 78.0798 231.34 78.0598C231.29 78.0398 231.24 78.0298 231.16 78.0298C231.08 78.0298 231.03 78.0398 230.98 78.0598C230.93 78.0798 230.9 78.1098 230.88 78.1498C230.86 78.1898 230.85 78.2198 230.84 78.2498C230.84 78.2798 230.84 78.3098 230.84 78.3398C230.84 78.3698 230.84 78.3998 230.84 78.4298C230.84 78.4598 230.86 78.4898 230.88 78.5298Z" fill="#78787A"/>
<path d="M223.36 78.5298C223.36 78.5298 223.41 78.5998 223.46 78.6198C223.51 78.6398 223.57 78.6498 223.64 78.6498C223.71 78.6498 223.77 78.6398 223.82 78.6198C223.87 78.5998 223.9 78.5698 223.92 78.5298C223.94 78.4898 223.95 78.4598 223.96 78.4298C223.96 78.3998 223.96 78.3698 223.96 78.3398C223.96 78.3098 223.96 78.2798 223.96 78.2498C223.96 78.2198 223.94 78.1898 223.92 78.1498C223.9 78.1098 223.87 78.0798 223.82 78.0598C223.77 78.0398 223.72 78.0298 223.64 78.0298C223.56 78.0298 223.51 78.0398 223.46 78.0598C223.41 78.0798 223.38 78.1098 223.36 78.1498C223.34 78.1898 223.33 78.2198 223.32 78.2498C223.32 78.2798 223.32 78.3098 223.32 78.3398C223.32 78.3698 223.32 78.3998 223.32 78.4298C223.32 78.4598 223.34 78.4898 223.36 78.5298Z" fill="#78787A"/>
<path d="M222.36 78.5298C222.36 78.5298 222.41 78.5998 222.46 78.6198C222.51 78.6398 222.57 78.6498 222.64 78.6498C222.71 78.6498 222.77 78.6398 222.82 78.6198C222.87 78.5998 222.9 78.5698 222.92 78.5298C222.94 78.4898 222.95 78.4598 222.96 78.4298C222.96 78.3998 222.96 78.3698 222.96 78.3398C222.96 78.3098 222.96 78.2798 222.96 78.2498C222.96 78.2198 222.94 78.1898 222.92 78.1498C222.9 78.1098 222.87 78.0798 222.82 78.0598C222.77 78.0398 222.71 78.0298 222.64 78.0298C222.57 78.0298 222.51 78.0398 222.46 78.0598C222.41 78.0798 222.38 78.1098 222.36 78.1498C222.34 78.1898 222.33 78.2198 222.32 78.2498C222.32 78.2798 222.32 78.3098 222.32 78.3398C222.32 78.3698 222.32 78.3998 222.32 78.4298C222.32 78.4598 222.34 78.4898 222.36 78.5298Z" fill="#78787A"/>
<path d="M228.54 83.4396C228.54 83.4396 228.65 83.4696 228.72 83.4696C228.79 83.4696 228.85 83.4596 228.9 83.4396C228.95 83.4196 228.98 83.3896 229 83.3496C229.02 83.3096 229.03 83.2796 229.04 83.2496C229.04 83.2196 229.04 83.1896 229.04 83.1596C229.04 83.1296 229.04 83.0996 229.04 83.0696C229.04 83.0396 229.02 83.0096 229 82.9696C228.98 82.9296 228.95 82.8996 228.9 82.8796C228.85 82.8596 228.79 82.8496 228.72 82.8496C228.65 82.8496 228.59 82.8596 228.54 82.8796C228.49 82.8996 228.46 82.9296 228.44 82.9696C228.42 83.0096 228.41 83.0396 228.4 83.0696C228.4 83.0996 228.4 83.1296 228.4 83.1596C228.4 83.1896 228.4 83.2196 228.4 83.2496C228.4 83.2796 228.42 83.3096 228.44 83.3496C228.46 83.3896 228.49 83.4196 228.54 83.4396Z" fill="#78787A"/>
<path d="M227.99 82.9799C227.99 82.9799 227.94 82.9099 227.89 82.8899C227.84 82.8699 227.78 82.8599 227.71 82.8599C227.64 82.8599 227.58 82.8699 227.53 82.8899C227.48 82.9099 227.45 82.9399 227.43 82.9799C227.41 83.0199 227.4 83.0499 227.39 83.0799C227.39 83.1099 227.39 83.1399 227.39 83.1699C227.39 83.1999 227.39 83.2299 227.39 83.2599C227.39 83.2899 227.41 83.3199 227.43 83.3599C227.45 83.3999 227.48 83.4299 227.53 83.4499C227.58 83.4699 227.64 83.4799 227.71 83.4799C227.78 83.4799 227.84 83.4699 227.89 83.4499C227.94 83.4299 227.97 83.3999 227.99 83.3599C228.01 83.3199 228.02 83.2899 228.03 83.2599C228.03 83.2299 228.04 83.1999 228.04 83.1699C228.04 83.1399 228.04 83.1099 228.03 83.0799C228.03 83.0499 228.01 83.0199 227.99 82.9799Z" fill="#78787A"/>
<path d="M222.32 82.18C222.41 82.23 222.51 82.27 222.61 82.29C222.71 82.31 222.82 82.32 222.93 82.32H224.42V80.29C224.42 80.13 224.4 79.99 224.36 79.86C224.32 79.73 224.27 79.63 224.2 79.55C224.13 79.47 224.05 79.4 223.96 79.35C223.87 79.3 223.77 79.26 223.67 79.24C223.57 79.22 223.47 79.21 223.35 79.21H222.9C222.8 79.21 222.7 79.22 222.61 79.24C222.51 79.26 222.42 79.3 222.32 79.35C222.23 79.4 222.15 79.47 222.08 79.55C222.01 79.63 221.96 79.73 221.92 79.86C221.88 79.99 221.86 80.13 221.86 80.29V81.24C221.86 81.4 221.88 81.55 221.92 81.67C221.96 81.8 222.01 81.9 222.08 81.98C222.15 82.06 222.23 82.13 222.32 82.18ZM222.38 80.38C222.38 80.14 222.42 79.97 222.51 79.87C222.59 79.77 222.72 79.72 222.9 79.72H223.35C223.54 79.72 223.68 79.77 223.77 79.87C223.86 79.97 223.9 80.14 223.9 80.38V81.81H222.93C222.74 81.81 222.6 81.76 222.51 81.65C222.42 81.55 222.38 81.38 222.38 81.14V80.38Z" fill="#78787A"/>
<path d="M285.36 77.3398H284.85V82.3198H285.36V77.3398Z" fill="#78787A"/>
<path d="M271.27 78.5298C271.27 78.5298 271.32 78.5998 271.37 78.6198C271.42 78.6398 271.48 78.6498 271.55 78.6498C271.62 78.6498 271.68 78.6398 271.73 78.6198C271.78 78.5998 271.81 78.5698 271.83 78.5298C271.85 78.4898 271.86 78.4598 271.87 78.4298C271.87 78.3998 271.87 78.3698 271.87 78.3398C271.87 78.3098 271.87 78.2798 271.87 78.2498C271.87 78.2198 271.85 78.1898 271.83 78.1498C271.81 78.1098 271.78 78.0798 271.73 78.0598C271.68 78.0398 271.62 78.0298 271.55 78.0298C271.48 78.0298 271.42 78.0398 271.37 78.0598C271.32 78.0798 271.29 78.1098 271.27 78.1498C271.25 78.1898 271.24 78.2198 271.23 78.2498C271.23 78.2798 271.23 78.3098 271.23 78.3398C271.23 78.3698 271.23 78.3998 271.23 78.4298C271.23 78.4598 271.25 78.4898 271.27 78.5298Z" fill="#78787A"/>
<path d="M270.27 78.5298C270.27 78.5298 270.32 78.5998 270.37 78.6198C270.42 78.6398 270.48 78.6498 270.55 78.6498C270.62 78.6498 270.68 78.6398 270.73 78.6198C270.78 78.5998 270.81 78.5698 270.83 78.5298C270.85 78.4898 270.86 78.4598 270.87 78.4298C270.87 78.3998 270.87 78.3698 270.87 78.3398C270.87 78.3098 270.87 78.2798 270.87 78.2498C270.87 78.2198 270.85 78.1898 270.83 78.1498C270.81 78.1098 270.78 78.0798 270.73 78.0598C270.68 78.0398 270.62 78.0298 270.55 78.0298C270.48 78.0298 270.42 78.0398 270.37 78.0598C270.32 78.0798 270.29 78.1098 270.27 78.1498C270.25 78.1898 270.24 78.2198 270.23 78.2498C270.23 78.2798 270.23 78.3098 270.23 78.3398C270.23 78.3698 270.23 78.3998 270.23 78.4298C270.23 78.4598 270.25 78.4898 270.27 78.5298Z" fill="#78787A"/>
<path d="M283.26 77.3398V81.7999H282.12C281.81 81.7999 281.53 81.7698 281.29 81.7198C281.76 81.2998 282.13 80.7398 282.16 80.2398C282.18 79.9798 282.13 79.3599 281.23 79.2299C280.57 79.1299 279.72 79.3698 279.68 79.3798L279.55 79.4198L279.51 79.5499C279.39 79.9199 279.31 80.7098 279.79 81.3798C279.9 81.5398 280.03 81.6698 280.19 81.7898C280.14 81.7998 280.09 81.8098 280.04 81.8098H278.17V77.3498H277.66V82.3298H280.04C280.27 82.3298 280.52 82.2498 280.77 82.1098C281.13 82.2498 281.57 82.3198 282.06 82.3298H283.78V77.3498H283.27L283.26 77.3398ZM280.72 81.5198C280.5 81.4098 280.33 81.2598 280.2 81.0698C279.91 80.6598 279.89 80.1498 279.96 79.8298C280.21 79.7698 280.73 79.6699 281.15 79.7299C281.68 79.8099 281.66 80.0798 281.66 80.1998C281.63 80.6298 281.19 81.1898 280.73 81.5198" fill="#78787A"/>
<path d="M276.67 82.3197V80.2797C276.67 80.1197 276.65 79.9697 276.61 79.8497C276.57 79.7297 276.52 79.6197 276.45 79.5397C276.38 79.4597 276.3 79.3897 276.21 79.3397C276.12 79.2897 276.02 79.2497 275.92 79.2297C275.82 79.2097 275.72 79.1997 275.6 79.1997H275.15C275.05 79.1997 274.95 79.2097 274.86 79.2297C274.76 79.2497 274.67 79.2897 274.57 79.3397C274.48 79.3897 274.4 79.4597 274.33 79.5397C274.26 79.6197 274.21 79.7197 274.17 79.8497C274.13 79.9697 274.12 80.0997 274.11 80.2497V80.5297C274.11 80.9897 274.03 81.3197 273.88 81.5097C273.73 81.6997 273.47 81.7997 273.1 81.7997H272.31V80.2797C272.31 80.1197 272.29 79.9697 272.25 79.8497C272.21 79.7197 272.16 79.6197 272.09 79.5397C272.02 79.4597 271.94 79.3897 271.85 79.3397C271.76 79.2897 271.66 79.2497 271.56 79.2297C271.46 79.2097 271.36 79.1997 271.24 79.1997H270.79C270.69 79.1997 270.59 79.2097 270.5 79.2297C270.4 79.2497 270.31 79.2897 270.21 79.3397C270.12 79.3897 270.04 79.4597 269.97 79.5397C269.9 79.6197 269.85 79.7197 269.81 79.8497C269.77 79.9797 269.75 80.1197 269.75 80.2797V81.2297C269.75 81.3897 269.77 81.5397 269.81 81.6597C269.85 81.7897 269.9 81.8897 269.97 81.9697C270.04 82.0497 270.11 82.1197 270.21 82.1697C270.3 82.2197 270.4 82.2597 270.5 82.2797C270.6 82.2997 270.7 82.3097 270.82 82.3097H273.1C273.27 82.3097 273.43 82.2897 273.57 82.2597C273.71 82.2297 273.85 82.1697 273.98 82.0997C274.09 82.0297 274.18 81.9397 274.27 81.8497C274.29 81.8897 274.31 81.9397 274.33 81.9697C274.4 82.0497 274.47 82.1197 274.57 82.1697C274.66 82.2197 274.76 82.2597 274.86 82.2797C274.96 82.2997 275.06 82.3097 275.18 82.3097H276.67V82.3197ZM270.41 81.6497C270.32 81.5497 270.28 81.3797 270.28 81.1397V80.3797C270.28 80.1397 270.32 79.9697 270.41 79.8697C270.49 79.7697 270.62 79.7197 270.8 79.7197H271.25C271.44 79.7197 271.58 79.7697 271.67 79.8697C271.76 79.9697 271.8 80.1397 271.8 80.3797V81.8097H270.83C270.64 81.8097 270.5 81.7597 270.41 81.6497ZM274.76 81.6497C274.67 81.5497 274.63 81.3797 274.63 81.1397V80.3797C274.63 80.1397 274.67 79.9697 274.76 79.8697C274.84 79.7697 274.97 79.7197 275.15 79.7197H275.6C275.79 79.7197 275.93 79.7697 276.02 79.8697C276.11 79.9697 276.15 80.1397 276.15 80.3797V81.8097H275.17C274.98 81.8097 274.84 81.7597 274.75 81.6497" fill="#78787A"/>
<path d="M215.99 77.3398H215.48V82.3198H215.99V77.3398Z" fill="#78787A"/>
<path d="M202.69 81.8096H202.22C201.85 81.8096 201.59 81.7096 201.43 81.5196C201.28 81.3296 201.2 80.9996 201.2 80.5396V79.4796H200.7V80.5396C200.7 80.9996 200.62 81.3296 200.47 81.5196C200.32 81.7096 200.05 81.8096 199.68 81.8096H199.2V79.4796H198.69V81.8096H197.29V80.4796C197.29 80.0296 196.98 79.5796 196.51 79.3596C196.14 79.1796 195.4 79.0196 194.37 79.6796V77.3496H193.85V81.8096H192.48V80.2896C192.48 80.1296 192.46 79.9796 192.42 79.8596C192.38 79.7296 192.33 79.6296 192.26 79.5496C192.19 79.4696 192.11 79.4096 192.02 79.3496C191.93 79.2996 191.83 79.2596 191.73 79.2396C191.63 79.2196 191.53 79.2096 191.41 79.2096H190.96C190.86 79.2096 190.76 79.2196 190.67 79.2396C190.57 79.2596 190.48 79.2996 190.38 79.3496C190.29 79.3996 190.21 79.4696 190.14 79.5496C190.07 79.6296 190.02 79.7296 189.98 79.8596C189.94 79.9896 189.92 80.1296 189.92 80.2896V81.2396C189.92 81.3996 189.94 81.5396 189.98 81.6696C190.02 81.7996 190.07 81.8996 190.14 81.9796C190.2 82.0596 190.28 82.1296 190.38 82.1796C190.47 82.2296 190.57 82.2696 190.67 82.2896C190.77 82.3096 190.87 82.3196 190.99 82.3196H199.67C199.84 82.3196 200 82.2996 200.14 82.2696C200.28 82.2396 200.42 82.1796 200.55 82.1096C200.68 82.0296 200.79 81.9296 200.88 81.8096C200.9 81.7896 200.91 81.7596 200.93 81.7296C200.94 81.7596 200.96 81.7796 200.97 81.8096C201.06 81.9296 201.17 82.0296 201.3 82.1096C201.43 82.1896 201.57 82.2396 201.71 82.2696C201.84 82.2996 201.98 82.3096 202.13 82.3096H203.17V79.1896H202.66V81.7996L202.69 81.8096ZM191.98 81.8096C191.55 81.8096 191.01 81.8096 191 81.8096C190.81 81.8096 190.67 81.7596 190.59 81.6596C190.5 81.5596 190.46 81.3896 190.46 81.1496V80.3896C190.46 80.1496 190.5 79.9796 190.59 79.8796C190.67 79.7796 190.8 79.7296 190.98 79.7296H191.43C191.62 79.7296 191.76 79.7796 191.85 79.8796C191.94 79.9796 191.98 80.1496 191.98 80.3896V81.8196V81.8096ZM196.79 81.8096H194.38V80.3096C195.11 79.7596 195.8 79.5796 196.3 79.8196C196.63 79.9796 196.79 80.2696 196.79 80.4796V81.8096Z" fill="#78787A"/>
<path d="M191.44 78.5298C191.44 78.5298 191.49 78.5998 191.54 78.6198C191.59 78.6398 191.65 78.6498 191.72 78.6498C191.79 78.6498 191.85 78.6398 191.9 78.6198C191.95 78.5998 191.98 78.5698 192 78.5298C192.02 78.4898 192.03 78.4598 192.04 78.4298C192.04 78.3998 192.04 78.3698 192.04 78.3398C192.04 78.3098 192.04 78.2798 192.04 78.2498C192.04 78.2198 192.02 78.1898 192 78.1498C191.98 78.1098 191.95 78.0798 191.9 78.0598C191.85 78.0398 191.8 78.0298 191.72 78.0298C191.64 78.0298 191.59 78.0398 191.54 78.0598C191.49 78.0798 191.46 78.1098 191.44 78.1498C191.42 78.1898 191.41 78.2198 191.4 78.2498C191.4 78.2798 191.4 78.3098 191.4 78.3398C191.4 78.3698 191.4 78.3998 191.4 78.4298C191.4 78.4598 191.42 78.4898 191.44 78.5298Z" fill="#78787A"/>
<path d="M190.45 78.5298C190.45 78.5298 190.5 78.5998 190.55 78.6198C190.6 78.6398 190.66 78.6498 190.73 78.6498C190.8 78.6498 190.86 78.6398 190.91 78.6198C190.96 78.5998 190.99 78.5698 191.01 78.5298C191.03 78.4898 191.04 78.4598 191.05 78.4298C191.05 78.3998 191.05 78.3698 191.05 78.3398C191.05 78.3098 191.05 78.2798 191.05 78.2498C191.05 78.2198 191.03 78.1898 191.01 78.1498C190.99 78.1098 190.96 78.0798 190.91 78.0598C190.86 78.0398 190.81 78.0298 190.73 78.0298C190.65 78.0298 190.6 78.0398 190.55 78.0598C190.5 78.0798 190.47 78.1098 190.45 78.1498C190.43 78.1898 190.42 78.2198 190.41 78.2498C190.41 78.2798 190.41 78.3098 190.41 78.3398C190.41 78.3698 190.41 78.3998 190.41 78.4298C190.41 78.4598 190.43 78.4898 190.45 78.5298Z" fill="#78787A"/>
<path d="M208.48 78.5298C208.48 78.5298 208.53 78.5998 208.58 78.6198C208.63 78.6398 208.69 78.6498 208.76 78.6498C208.83 78.6498 208.89 78.6398 208.94 78.6198C208.99 78.5998 209.02 78.5698 209.04 78.5298C209.06 78.4898 209.07 78.4598 209.08 78.4298C209.08 78.3998 209.08 78.3698 209.08 78.3398C209.08 78.3098 209.08 78.2798 209.08 78.2498C209.08 78.2198 209.06 78.1898 209.04 78.1498C209.02 78.1098 208.99 78.0798 208.94 78.0598C208.89 78.0398 208.84 78.0298 208.76 78.0298C208.68 78.0298 208.63 78.0398 208.58 78.0598C208.53 78.0798 208.5 78.1098 208.48 78.1498C208.46 78.1898 208.45 78.2198 208.44 78.2498C208.44 78.2798 208.44 78.3098 208.44 78.3398C208.44 78.3698 208.44 78.3998 208.44 78.4298C208.44 78.4598 208.46 78.4898 208.48 78.5298Z" fill="#78787A"/>
<path d="M207.48 78.5298C207.48 78.5298 207.53 78.5998 207.58 78.6198C207.63 78.6398 207.69 78.6498 207.76 78.6498C207.83 78.6498 207.89 78.6398 207.94 78.6198C207.99 78.5998 208.02 78.5698 208.04 78.5298C208.06 78.4898 208.07 78.4598 208.08 78.4298C208.08 78.3998 208.08 78.3698 208.08 78.3398C208.08 78.3098 208.08 78.2798 208.08 78.2498C208.08 78.2198 208.06 78.1898 208.04 78.1498C208.02 78.1098 207.99 78.0798 207.94 78.0598C207.89 78.0398 207.83 78.0298 207.76 78.0298C207.69 78.0298 207.63 78.0398 207.58 78.0598C207.53 78.0798 207.5 78.1098 207.48 78.1498C207.46 78.1898 207.45 78.2198 207.44 78.2498C207.44 78.2798 207.44 78.3098 207.44 78.3398C207.44 78.3698 207.44 78.3998 207.44 78.4298C207.44 78.4598 207.46 78.4898 207.48 78.5298Z" fill="#78787A"/>
<path d="M219.52 82.3197V80.2797C219.52 80.1197 219.5 79.9797 219.46 79.8497C219.42 79.7297 219.37 79.6197 219.3 79.5397C219.23 79.4597 219.15 79.3997 219.06 79.3397C218.97 79.2897 218.87 79.2497 218.77 79.2297C218.67 79.2097 218.57 79.1997 218.45 79.1997H218C217.9 79.1997 217.8 79.2097 217.71 79.2297C217.61 79.2497 217.52 79.2897 217.42 79.3397C217.33 79.3897 217.25 79.4597 217.18 79.5397C217.11 79.6197 217.06 79.7197 217.02 79.8497C216.98 79.9797 216.96 80.1197 216.96 80.2797V81.2297C216.96 81.3897 216.98 81.5397 217.02 81.6597C217.06 81.7897 217.11 81.8897 217.18 81.9697C217.25 82.0497 217.33 82.1197 217.42 82.1697C217.51 82.2197 217.61 82.2597 217.71 82.2797C217.81 82.2997 217.91 82.3097 218.03 82.3097H218.99C218.99 83.0397 218.57 83.1097 218.22 83.1097H217.68V83.6697H218.22C219.6 83.6697 219.52 82.5197 219.52 82.3097M219.01 80.6497V81.7997H218.03C217.84 81.7997 217.7 81.7497 217.61 81.6397C217.52 81.5397 217.48 81.3697 217.48 81.1297V80.3697C217.48 80.1297 217.52 79.9597 217.61 79.8597C217.7 79.7597 217.83 79.7097 218 79.7097C218 79.7097 218.44 79.7097 218.45 79.7097C218.64 79.7097 218.78 79.7597 218.87 79.8597C218.96 79.9597 219 80.1297 219 80.3697V80.6497H219.01Z" fill="#78787A"/>
<path d="M213.89 77.3398V81.7998H212.66V80.2798C212.66 80.1198 212.64 79.9798 212.6 79.8498C212.56 79.7198 212.51 79.6198 212.44 79.5398C212.37 79.4598 212.29 79.3998 212.2 79.3398C212.11 79.2898 212.01 79.2498 211.91 79.2298C211.81 79.2098 211.71 79.1998 211.59 79.1998C211.59 79.1998 211.15 79.1998 211.14 79.1998C211.04 79.1998 210.94 79.2098 210.85 79.2298C210.75 79.2498 210.66 79.2898 210.56 79.3398C210.47 79.3898 210.39 79.4598 210.32 79.5398C210.25 79.6198 210.2 79.7198 210.16 79.8498C210.12 79.9698 210.11 80.0998 210.1 80.2498C210.1 80.2498 210.1 80.2698 210.1 80.2798V80.5998C210.1 81.0198 210.02 81.3298 209.87 81.5098C209.72 81.6998 209.46 81.7998 209.08 81.7998H208.48V79.1898H207.97V81.7998H206.64V80.2798C206.64 80.1198 206.62 79.9798 206.58 79.8498C206.54 79.7198 206.49 79.6198 206.42 79.5398C206.35 79.4598 206.27 79.3998 206.18 79.3398C206.09 79.2898 205.99 79.2498 205.89 79.2298C205.79 79.2098 205.69 79.1998 205.57 79.1998C205.57 79.1998 205.13 79.1998 205.12 79.1998C205.02 79.1998 204.92 79.2098 204.83 79.2298C204.73 79.2498 204.64 79.2898 204.54 79.3398C204.45 79.3898 204.37 79.4598 204.3 79.5398C204.23 79.6198 204.18 79.7198 204.14 79.8498C204.1 79.9798 204.08 80.1198 204.08 80.2798V81.2298C204.08 81.3898 204.1 81.5298 204.14 81.6598C204.18 81.7898 204.23 81.8898 204.3 81.9698C204.37 82.0498 204.44 82.1198 204.54 82.1698C204.63 82.2198 204.73 82.2598 204.83 82.2798C204.93 82.2998 205.03 82.3098 205.15 82.3098H206.11C206.11 83.0398 205.69 83.0998 205.34 83.0998H204.79V83.6598H205.34C206.72 83.6598 206.64 82.5098 206.64 82.2998H209.08C209.25 82.2998 209.41 82.2798 209.55 82.2498C209.7 82.2198 209.83 82.1598 209.96 82.0898C210.07 82.0198 210.16 81.9398 210.24 81.8398C210.26 81.8798 210.28 81.9298 210.3 81.9598C210.37 82.0398 210.45 82.1098 210.54 82.1598C210.63 82.2098 210.73 82.2498 210.83 82.2698C210.93 82.2898 211.03 82.2998 211.15 82.2998H214.37V77.3198H213.86L213.89 77.3398ZM206.16 80.6598V81.8098H205.18C204.99 81.8098 204.85 81.7598 204.77 81.6498C204.68 81.5498 204.64 81.3798 204.64 81.1398V80.3798C204.64 80.1398 204.68 79.9698 204.77 79.8698C204.85 79.7698 204.98 79.7198 205.16 79.7198H205.61C205.8 79.7198 205.94 79.7698 206.03 79.8698C206.12 79.9698 206.16 80.1398 206.16 80.3798V80.6598ZM212.16 81.8098H211.18C210.99 81.8098 210.85 81.7598 210.76 81.6498C210.67 81.5498 210.63 81.3798 210.63 81.1398V80.3798C210.63 80.1398 210.67 79.9698 210.76 79.8698C210.85 79.7698 210.98 79.7198 211.15 79.7198H211.6C211.79 79.7198 211.93 79.7698 212.02 79.8698C212.11 79.9698 212.15 80.1398 212.15 80.3798V81.8098H212.16Z" fill="#78787A"/>
<path d="M153.52 10.5098H151.18V88.4998H153.52V10.5098Z" fill="#007496"/>
</g>
<path d="M61.39 46.4399C62.25 45.2699 63.3 44.4699 64.54 44.0199C67.01 47.5699 68.6 51.2199 69.3 54.9799C69.04 56.2899 68.68 57.4399 68.22 58.4499C66.73 59.2199 65.26 59.5999 63.81 59.5999C62.36 59.5999 61.04 59.1599 59.91 58.2899C58.78 57.4099 58.21 56.3199 58.21 55.0199C58.21 53.7199 58.62 52.3999 59.45 51.0599C60.28 49.7299 61.31 48.6199 62.55 47.7399L61.39 46.4399ZM64.08 40.2099L61.46 42.2699L59.19 39.5099C60.05 38.5999 61.01 37.8399 62.06 37.2399C62.69 38.0299 63.24 38.7299 63.71 39.3399C64.78 38.3599 65.68 37.6599 66.41 37.2399L68.61 40.0699L65.81 42.2699L64.09 40.2099H64.08ZM60.79 54.2399C61.44 55.3099 62.71 55.8499 64.6 55.8499C65.23 55.8499 65.85 55.7099 66.46 55.4299C65.83 53.1899 65 51.2499 63.97 49.6199C62.29 50.9999 61.23 52.5399 60.79 54.2399ZM79.76 54.9799C80.62 55.5599 81.72 55.8599 83.05 55.8599C83.17 55.8599 83.22 55.9199 83.22 56.0299V59.4299C83.22 59.5499 83.16 59.5999 83.05 59.5999C81.51 59.5999 80.39 59.1799 79.69 58.3399C79.29 59.9499 78.41 61.5499 77.03 63.1499C75.65 64.7499 73.97 66.1299 71.99 67.2999C70.92 66.6899 69.99 65.7399 69.23 64.4299C73.36 62.2799 76.03 59.8699 77.24 57.1799C76.73 54.5699 75.71 52.0699 74.2 49.6899C75.2 48.8299 76.38 48.2399 77.73 47.9399C78.8 50.1999 79.48 52.5499 79.76 54.9699V54.9799ZM99.57 55.2899C100.25 55.6599 101.27 55.8499 102.65 55.8499C102.77 55.8499 102.83 55.9099 102.83 56.0199V59.4199C102.83 59.5399 102.77 59.5899 102.65 59.5899C101.25 59.5899 100.12 59.0199 99.26 57.8699C98.77 58.5699 98.25 59.1399 97.68 59.5899H83.05C82.93 59.5899 82.87 59.5299 82.87 59.4199V56.0199C82.87 55.8999 82.93 55.8499 83.05 55.8499H96.42V55.5699C96.42 52.2099 93.97 50.5299 89.07 50.5299C87.95 50.5299 86.89 50.6099 85.89 50.7699C85.19 50.2299 84.64 49.3699 84.25 48.1799C85.53 46.4099 87.15 44.4999 89.11 42.4599C91.07 40.4199 92.97 38.6599 94.82 37.1899C96.22 37.3299 97.39 38.0299 98.32 39.2899C94.66 41.7199 91.25 44.4499 88.1 47.4799C88.73 47.2699 89.58 47.1699 90.66 47.1699C93.27 47.1699 95.41 47.8699 97.06 49.2699C98.72 50.6699 99.56 52.6799 99.58 55.2899H99.57ZM102.65 59.5999C102.53 59.5999 102.47 59.5399 102.47 59.4299V56.0699C102.47 55.9499 102.53 55.8999 102.65 55.8999H107.34C105.5 54.9699 104.58 53.8199 104.58 52.4699C104.58 50.9799 105.2 49.4699 106.45 47.9399C107.7 46.4099 109.15 45.6499 110.81 45.6499C112.33 45.6499 113.62 46.2799 114.7 47.5399C115.77 48.7999 116.31 50.4299 116.31 52.4399C116.31 54.6999 115.57 57.0899 114.1 59.6099H102.66L102.65 59.5999ZM107.16 52.3199C108.23 53.9099 109.9 55.0099 112.17 55.6399C112.61 54.6599 112.83 53.5799 112.83 52.3899C112.83 51.4299 112.6 50.6399 112.15 50.0099C111.7 49.3799 111.11 49.0699 110.38 49.0699C109.65 49.0699 109.03 49.3799 108.42 50.0099C107.81 50.6399 107.39 51.4099 107.16 52.3199ZM110.03 42.8999L107.79 40.1399C108.63 39.2299 109.58 38.4799 110.63 37.8999L112.83 40.6999L110.03 42.9099V42.8999Z" fill="#007496"/>
</svg>
