<svg width="186" height="61" viewBox="0 0 186 61" fill="none" xmlns="http://www.w3.org/2000/svg">
<path d="M144.779 42.8228C144.338 42.5038 143.738 42.3442 143.001 42.3442H140.198C139.879 42.3442 139.651 42.2683 139.514 42.1163C139.37 41.9568 139.302 41.7517 139.302 41.4706V41.1135C139.302 40.8249 139.362 40.6121 139.484 40.4982C139.605 40.3766 139.795 40.3159 140.054 40.3159H145.098V38.5078H140.357C139.902 38.5078 139.499 38.5458 139.157 38.6294C138.793 38.7129 138.489 38.8649 138.246 39.0928C138.002 39.3131 137.82 39.6018 137.706 39.9588C137.592 40.2931 137.539 40.7185 137.539 41.2199V41.6149C137.539 42.4886 137.782 43.1115 138.268 43.461C138.724 43.7952 139.362 43.9624 140.168 43.9624H142.933C143.199 43.9624 143.396 44.0231 143.533 44.1447C143.662 44.2586 143.723 44.4334 143.723 44.6765V45.3678C143.723 45.8996 143.495 46.1199 142.925 46.1199H137.737V47.9279H142.978C143.867 47.9279 144.513 47.6848 144.908 47.2138C145.288 46.7504 145.485 46.0591 145.485 45.1551V44.5853C145.485 43.7724 145.242 43.1799 144.771 42.8456" fill="#78787A"/>
<path d="M162.897 38.5078H159.007V40.3994H162.897C163.611 40.3994 163.93 40.7717 163.93 41.6149V42.0176H160.838C159.319 42.0176 158.514 42.7924 158.514 44.2586V45.5577C158.514 46.3174 158.704 46.9099 159.083 47.3126C159.463 47.7152 160.056 47.9203 160.831 47.9203H165.685V41.5693C165.685 39.5714 164.72 38.5154 162.889 38.5154M163.923 43.7041V46.1351H160.929C160.421 46.1351 160.215 45.9147 160.215 45.383V44.4865C160.215 43.932 160.421 43.7041 160.929 43.7041H163.923Z" fill="#78787A"/>
<path d="M167.95 39.9963H169.188L169.644 36.5625H167.486L167.95 39.9963Z" fill="#78787A"/>
<path d="M175.675 38.4688H171.786V40.3604H175.675C176.389 40.3604 176.709 40.7326 176.709 41.5759V41.9785H173.617C172.097 41.9785 171.292 42.7534 171.292 44.2196V45.5186C171.292 46.2783 171.482 46.8709 171.862 47.2735C172.242 47.6761 172.834 47.8813 173.609 47.8813H178.463V41.5303C178.463 39.5323 177.499 38.4763 175.668 38.4763M176.701 43.665V46.096H173.708C173.199 46.096 172.994 45.8757 172.994 45.3439V44.4475C172.994 43.8929 173.199 43.665 173.708 43.665H176.701Z" fill="#78787A"/>
<path d="M185.999 40.1842V38.5053H183.827V35.5273H182.019V44.8031C182.019 47.3708 183.477 47.9102 184.693 47.9102H185.969V46.1402H184.814C184.358 46.1402 183.827 45.9958 183.827 44.8563V40.1842H185.999Z" fill="#78787A"/>
<path d="M121.137 38.4844H118.934C117.354 38.4844 116.062 39.8062 116.062 41.4244V44.9797C116.062 46.5978 117.346 47.9197 118.934 47.9197H121.137C122.717 47.9197 124.009 46.5978 124.009 44.9797V41.4244C124.009 39.8062 122.725 38.4844 121.137 38.4844ZM122.246 41.4244V44.9797C122.246 45.6026 121.753 46.1116 121.137 46.1116H118.934C118.326 46.1116 117.825 45.6026 117.825 44.9797V41.4244C117.825 40.8014 118.319 40.2924 118.934 40.2924H121.137C121.745 40.2924 122.246 40.8014 122.246 41.4244Z" fill="#78787A"/>
<path d="M134.288 42.3666C134.273 39.7077 132.495 38.4922 130.846 38.4922H126.987V47.8971H128.75V40.3002H130.846C131.705 40.3002 132.518 41.1359 132.518 42.0171V47.5476L132.533 47.8895H134.28V42.3742V42.359L134.288 42.3666Z" fill="#78787A"/>
<path d="M113.685 42.3666C113.67 39.9812 112.242 38.7657 110.76 38.5378L110.73 38.4922H110.244H108.853L108.876 38.515C108.041 38.6061 107.258 39.0164 106.696 39.6621C106.05 38.9252 105.116 38.4922 104.136 38.4922H100.284V47.8895H102.047V40.2926H104.128C105.04 40.2926 105.807 41.0675 105.807 41.9639C105.807 41.9715 105.807 41.9791 105.807 47.616V47.8895H107.57V47.616C107.57 42.2754 107.57 41.9791 107.57 41.9639C107.57 41.0371 108.322 40.2926 109.248 40.2926H110.244C111.102 40.2926 111.915 41.1283 111.915 42.0095V47.54L111.938 47.8819H113.685V42.3666Z" fill="#78787A"/>
<path d="M155.938 42.3797V42.3645C155.923 39.7056 154.145 38.4901 152.497 38.4901H150.4V35.5273H148.638V47.895H150.4V40.2982H152.497C153.355 40.2982 154.168 41.1338 154.168 42.0151V47.5456L154.183 47.8874H155.931V42.3721L155.938 42.3797Z" fill="#78787A"/>
<path d="M170.555 15.8993C170.555 14.5927 167.828 13.3164 167.828 13.3164C167.828 13.3164 165.048 15.9905 165.139 16.0665L168.216 18.6494C168.216 18.6494 170.555 17.1984 170.555 15.8993Z" fill="#007496"/>
<path d="M154.7 16.0741L157.777 18.6494C157.777 18.6494 160.117 17.206 160.117 15.8993C160.117 14.5927 157.39 13.3164 157.39 13.3164C157.39 13.3164 154.609 15.9905 154.7 16.0665" fill="#007496"/>
<path d="M153.188 15.8993C153.188 14.5927 150.461 13.3164 150.461 13.3164C150.461 13.3164 147.681 15.9905 147.772 16.0665L150.848 18.6494C150.848 18.6494 153.188 17.1984 153.188 15.8993Z" fill="#007496"/>
<path d="M155.924 10.6493C155.924 9.34268 153.196 8.06641 153.196 8.06641C153.196 8.06641 150.416 10.7405 150.507 10.8165L153.584 13.3994C153.584 13.3994 155.924 11.9484 155.924 10.6493Z" fill="#007496"/>
<path d="M185.992 21.0893C185.961 20.3296 185.506 17.5871 181.791 17.5871H179.588L174.042 23.4139V28.4355C174.042 28.709 174.072 28.9521 174.125 29.1952C172.5 29.1952 170.585 29.2028 169.643 27.5922C169.263 26.9465 169.15 26.1792 169.142 25.4347V20.7247L166.225 23.7102V28.4355C166.225 28.6862 166.248 28.9445 166.278 29.1952C164.66 29.1952 162.753 29.1952 161.811 27.5922C161.431 26.9465 161.317 26.1792 161.31 25.4347V18.3164L158.392 21.302V28.4355C158.392 28.6862 158.415 28.9445 158.446 29.1952C157.693 29.1192 156.957 28.7545 156.379 28.2759C155.528 27.577 155.035 26.5666 155.019 25.4499V19.8054L152.11 22.791V28.4355C152.11 28.6938 152.14 28.9521 152.193 29.1952C151.434 29.1268 150.682 28.7545 150.097 28.2759C149.246 27.577 148.752 26.5666 148.744 25.4499V18.3164L145.835 21.302V28.4355C145.835 28.6938 145.865 28.9445 145.918 29.1952C144.293 29.1952 142.371 29.2103 141.429 27.5922C141.049 26.9465 140.935 26.1792 140.927 25.4347V7.30859L138.018 10.2942V28.6102H138.025C138.063 29.7573 138.435 30.8893 139.431 31.535C140.213 32.0364 141.163 32.1731 142.067 32.1883C142.454 32.1959 142.834 32.1807 143.221 32.1731C143.366 32.1731 143.654 31.8617 143.723 31.8085C144.087 31.4894 144.445 31.1324 144.786 30.7829C145.128 30.4258 145.47 30.0764 145.789 29.6965C145.812 29.6738 145.903 29.5446 145.987 29.4231C146.192 30.1372 146.61 30.7753 147.202 31.2615C147.84 31.7857 148.684 32.1807 149.512 32.1883C149.656 32.1883 149.952 31.8769 150.013 31.8237C150.378 31.497 150.735 31.1476 151.077 30.7981C151.418 30.4486 151.76 30.0916 152.079 29.7117C152.102 29.689 152.193 29.5522 152.277 29.4307C152.482 30.1448 152.9 30.7753 153.485 31.2539C154.123 31.7781 154.966 32.1731 155.794 32.1807C155.939 32.1807 156.235 31.8693 156.296 31.8161C156.66 31.4894 157.017 31.14 157.352 30.7905C157.693 30.441 158.035 30.084 158.354 29.7041C158.37 29.6814 158.446 29.5826 158.514 29.4762C158.689 30.2967 159.084 31.0412 159.821 31.5198C160.603 32.0212 161.553 32.1579 162.457 32.1731C162.844 32.1807 163.224 32.1655 163.611 32.1579C163.756 32.1579 164.052 31.8465 164.113 31.7933C164.477 31.4742 164.835 31.1172 165.176 30.7677C165.518 30.4107 165.86 30.0612 166.179 29.6814C166.194 29.6586 166.27 29.5598 166.339 29.4534V29.4686C166.513 30.2891 166.908 31.0336 167.645 31.5122C168.428 32.0136 169.377 32.1503 170.281 32.1655C170.669 32.1731 171.056 32.1579 171.436 32.1503C171.581 32.1503 171.869 31.8389 171.93 31.7857C172.295 31.4666 172.652 31.1096 172.994 30.7601C173.335 30.4031 173.677 30.0536 173.996 29.6738C174.019 29.651 174.103 29.5294 174.179 29.4155C174.786 31.4666 177.278 32.1655 179.276 32.1655H179.96L185.999 26.088C185.999 26.088 185.999 21.1425 185.999 21.0741M179.572 28.8685C176.822 28.8685 176.967 26.5211 176.951 25.4271V20.4967H181.153C182.611 20.4967 183.082 22.6998 183.082 25.2828C183.082 25.3435 183.082 28.1924 183.082 28.8685C182.406 28.8685 179.641 28.8685 179.565 28.8685" fill="#007496"/>
<path d="M118.73 18.0886L121.905 20.7551C121.905 20.7551 124.359 19.2358 124.359 17.8607C124.359 16.4857 121.495 15.1562 121.495 15.1562C121.495 15.1562 119.155 17.4049 118.745 17.9291C118.707 16.5693 115.881 15.2474 115.881 15.2474C115.881 15.2474 112.956 18.0507 113.062 18.1342L116.291 20.8463C116.291 20.8463 118.585 19.4257 118.73 18.0886Z" fill="#007496"/>
<path d="M141.489 5.04292L145.029 1.60154V0.5L142.72 2.69549L137.751 1.03178L137.501 0.948215L134.052 4.3668V5.44555L136.186 3.31084L141.261 4.96695L141.489 5.04292Z" fill="#007496"/>
<path d="M134.181 21.5126C133.976 21.1403 133.498 20.4414 133.498 20.4414L130.299 23.5409C130.299 23.5409 131.682 25.8732 131.705 27.3166C131.712 27.9167 131.705 27.2938 131.705 27.8939V29.0562H106.521C104.273 29.0562 103.361 28.4257 103.353 25.349L104.895 23.7612V21.9912L100.284 26.724C100.284 26.724 100.284 28.4181 100.284 28.4713C100.315 29.269 100.482 30.0666 100.945 30.72C101.333 31.2669 101.895 31.6468 102.51 31.8671C103.551 32.2393 104.637 32.1862 105.724 32.1786H130.201L134.895 27.9547V26.6101C134.895 24.8704 135.055 23.0851 134.166 21.5126" fill="#007496"/>
<path d="M101.728 58.2435C101.728 58.2435 101.561 58.1979 101.34 58.1448C101.128 58.0916 100.976 58.046 100.892 58.008C100.809 57.97 100.755 57.932 100.725 57.8865C100.695 57.8409 100.687 57.7801 100.687 57.6965V57.6282C100.687 57.5294 100.733 57.4458 100.824 57.3699C100.915 57.2939 101.052 57.2559 101.234 57.2559C101.439 57.2559 101.591 57.2939 101.697 57.3775C101.796 57.4534 101.849 57.575 101.849 57.7193V57.7573H102.244V57.7193C102.244 57.6054 102.229 57.499 102.191 57.4079C102.153 57.3167 102.1 57.2331 102.039 57.1724C101.978 57.1116 101.903 57.0584 101.811 57.0204C101.72 56.9748 101.629 56.9521 101.538 56.9369C101.447 56.9217 101.34 56.9141 101.234 56.9141C100.961 56.9141 100.733 56.9824 100.558 57.1116C100.376 57.2407 100.292 57.4231 100.292 57.6358V57.6737C100.292 57.8561 100.33 58.0156 100.414 58.1296C100.497 58.2511 100.634 58.3423 100.839 58.4031C100.869 58.4106 100.976 58.441 101.226 58.5018C101.447 58.555 101.591 58.6006 101.675 58.6386C101.758 58.6765 101.811 58.7145 101.834 58.7601C101.865 58.8057 101.872 58.8741 101.872 58.95V59.0336C101.872 59.1323 101.827 59.2159 101.735 59.2919C101.644 59.3679 101.507 59.4058 101.325 59.4058C101.12 59.4058 100.968 59.3679 100.862 59.2843C100.763 59.2007 100.71 59.0944 100.71 58.9424V58.8209H100.307V58.9424C100.307 59.0564 100.33 59.1627 100.36 59.2539C100.398 59.3451 100.452 59.4286 100.512 59.4894C100.573 59.5502 100.649 59.6034 100.74 59.6413C100.824 59.6793 100.915 59.7097 101.014 59.7249C101.105 59.7401 101.211 59.7477 101.318 59.7477C101.591 59.7477 101.819 59.6793 101.994 59.5502C102.176 59.421 102.267 59.2463 102.267 59.026V58.9652C102.267 58.7829 102.229 58.6234 102.146 58.5094C102.07 58.3879 101.925 58.2967 101.728 58.2359" fill="#78787A"/>
<path d="M107.045 57.5968C106.954 57.6196 106.87 57.65 106.794 57.6956C106.711 57.7411 106.642 57.8019 106.582 57.8703C106.521 57.9387 106.475 58.0374 106.445 58.1438C106.407 58.2501 106.392 58.3793 106.392 58.516V58.7515C106.392 58.8883 106.407 59.0174 106.445 59.1238C106.475 59.2377 106.528 59.3289 106.582 59.3973C106.642 59.4656 106.711 59.5264 106.794 59.572C106.878 59.6176 106.961 59.6479 107.045 59.6707C107.128 59.6859 107.22 59.7011 107.318 59.7011H108.192V57.5664H107.318C107.22 57.5664 107.128 57.574 107.045 57.5968ZM106.764 58.6072C106.764 58.3565 106.809 58.1818 106.901 58.0754C106.992 57.969 107.128 57.9235 107.326 57.9235H107.827V59.3669H107.326C107.136 59.3669 106.992 59.3137 106.901 59.2149C106.809 59.1086 106.764 58.9338 106.764 58.6831V58.6224V58.6072Z" fill="#78787A"/>
<path d="M109.256 56.7773H108.884V59.7021H109.256V56.7773Z" fill="#78787A"/>
<path d="M110.32 56.7773H109.947V59.7021H110.32V56.7773Z" fill="#78787A"/>
<path d="M111.877 57.9696C111.794 57.9012 111.756 57.8025 111.756 57.6733V57.6125C111.756 57.5062 111.801 57.4226 111.885 57.3542C111.976 57.2859 112.105 57.2555 112.272 57.2555C112.44 57.2555 112.569 57.2859 112.66 57.3542C112.743 57.415 112.789 57.5062 112.789 57.6125V57.7645H113.161V57.6049C113.161 57.5594 113.161 57.5062 113.146 57.453C113.138 57.3998 113.108 57.3391 113.07 57.2707C113.032 57.2023 112.987 57.1415 112.918 57.0884C112.857 57.0352 112.766 56.9896 112.652 56.9516C112.538 56.9136 112.409 56.8984 112.265 56.8984C112.12 56.8984 111.991 56.9136 111.877 56.9516C111.763 56.9896 111.68 57.0352 111.611 57.0884C111.551 57.1415 111.498 57.2023 111.46 57.2707C111.422 57.3391 111.399 57.3998 111.391 57.453C111.384 57.5062 111.376 57.5518 111.376 57.5973V57.6809C111.376 57.7265 111.376 57.7721 111.391 57.8177C111.391 57.8632 111.414 57.9088 111.437 57.9696C111.46 58.0304 111.49 58.0835 111.536 58.1443C111.566 58.1823 111.604 58.2203 111.649 58.2507C111.475 58.3722 111.384 58.5697 111.384 58.828V58.9572C111.384 59.0332 111.391 59.1015 111.414 59.1699C111.429 59.2383 111.467 59.3066 111.505 59.375C111.551 59.4434 111.611 59.4966 111.672 59.5497C111.741 59.5953 111.832 59.6409 111.931 59.6637C112.029 59.6941 112.151 59.7093 112.28 59.7093H113.146V58.4254H113.458V58.076H112.265C112.082 58.076 111.953 58.038 111.87 57.9696M112.28 59.3598C112.105 59.3598 111.976 59.3218 111.885 59.2459C111.794 59.1699 111.748 59.0711 111.748 58.9496V58.8356C111.748 58.7141 111.786 58.6153 111.862 58.5394C111.938 58.4634 112.045 58.4254 112.174 58.4254H112.774V59.3598H112.28Z" fill="#78787A"/>
<path d="M115.88 59.1258L115.098 56.9835L115.09 56.9531H114.513V59.7032H114.915V57.5457L115.683 59.6804L115.698 59.7032H116.062L116.853 57.5381V59.7032H117.255V56.9531H116.67L115.88 59.1258Z" fill="#78787A"/>
<path d="M119.519 57.8254C119.458 57.757 119.39 57.6963 119.306 57.6507C119.223 57.6051 119.139 57.5747 119.056 57.5519C118.889 57.5139 118.676 57.5139 118.509 57.5519C118.418 57.5671 118.342 57.6051 118.258 57.6507C118.175 57.6963 118.106 57.757 118.045 57.8254C117.985 57.8938 117.939 57.9925 117.909 58.0989C117.871 58.2053 117.855 58.3344 117.855 58.4711V58.7978C117.855 58.9346 117.871 59.0637 117.909 59.1701C117.939 59.284 117.992 59.3752 118.045 59.4435C118.099 59.5119 118.175 59.5727 118.258 59.6183C118.342 59.6639 118.425 59.6942 118.509 59.717C118.592 59.7322 118.684 59.7474 118.782 59.7474C118.889 59.7474 118.987 59.7322 119.086 59.7094C119.185 59.6866 119.268 59.6487 119.352 59.5955C119.436 59.5423 119.512 59.4663 119.572 59.3676C119.633 59.2688 119.671 59.1549 119.694 59.0333V58.9877H119.314V59.0181C119.276 59.1549 119.215 59.2536 119.132 59.3144C119.048 59.3752 118.927 59.4056 118.775 59.4056C118.577 59.4056 118.44 59.36 118.349 59.2536C118.266 59.1549 118.22 58.9953 118.213 58.775H119.702V58.4711C119.702 58.3344 119.686 58.2053 119.648 58.0989C119.61 57.9849 119.565 57.8938 119.512 57.8254M119.329 58.4332H118.213C118.228 58.2356 118.273 58.0989 118.357 58.0077C118.448 57.9166 118.585 57.871 118.767 57.871C118.949 57.871 119.094 57.9166 119.177 58.0077C119.261 58.0913 119.314 58.2356 119.329 58.4332Z" fill="#78787A"/>
<path d="M121.685 57.5674H121.176C121.077 57.5674 120.986 57.575 120.902 57.5978C120.811 57.6206 120.735 57.651 120.652 57.6966C120.568 57.7422 120.5 57.8029 120.439 57.8789C120.378 57.9549 120.333 58.046 120.302 58.1524C120.264 58.2587 120.249 58.3879 120.249 58.5246V58.7525C120.249 58.8893 120.264 59.0184 120.302 59.1248C120.333 59.2387 120.386 59.3299 120.439 59.3983C120.5 59.4666 120.568 59.5274 120.652 59.573C120.735 59.6186 120.819 59.649 120.902 59.6718C120.986 59.6869 121.077 59.7021 121.176 59.7021H122.049V56.7773H121.685V57.5674ZM120.621 58.6006C120.621 58.3499 120.667 58.1752 120.758 58.0688C120.849 57.9625 120.986 57.9169 121.183 57.9169H121.692V59.3603H121.183C120.994 59.3603 120.849 59.3071 120.758 59.2083C120.667 59.102 120.621 58.9273 120.621 58.6766V58.6158V58.6006Z" fill="#78787A"/>
<path d="M123.112 57.5664H122.74V59.7011H123.112V57.5664Z" fill="#78787A"/>
<path d="M125.24 58.7213C125.24 58.9796 125.202 59.1544 125.119 59.2607C125.035 59.3595 124.898 59.4127 124.701 59.4127C124.503 59.4127 124.366 59.3595 124.283 59.2607C124.199 59.162 124.161 58.9796 124.161 58.7213V57.5742H123.789V58.8049C123.789 58.9417 123.804 59.0708 123.835 59.1772C123.865 59.2911 123.911 59.3823 123.964 59.4506C124.017 59.5266 124.085 59.5798 124.169 59.633C124.245 59.6785 124.328 59.7089 124.42 59.7317C124.503 59.7545 124.602 59.7621 124.701 59.7621C124.799 59.7621 124.898 59.7545 124.982 59.7317C125.065 59.7089 125.156 59.6785 125.232 59.633C125.316 59.5874 125.377 59.5266 125.438 59.4506C125.491 59.3823 125.536 59.2835 125.567 59.1772C125.597 59.0708 125.612 58.9417 125.612 58.8049V57.5742H125.24V58.7213Z" fill="#78787A"/>
<path d="M130.816 59.7032H132.397V59.3613H131.211V58.4877H132.328V58.1458H131.211V57.3026H132.397V56.9531H130.816V59.7032Z" fill="#78787A"/>
<path d="M138.451 57.8254C138.39 57.757 138.322 57.6963 138.238 57.6507C138.155 57.6051 138.071 57.5747 137.987 57.5519C137.82 57.5139 137.608 57.5139 137.44 57.5519C137.349 57.5671 137.273 57.6051 137.19 57.6507C137.106 57.6963 137.038 57.757 136.977 57.8254C136.916 57.8938 136.871 57.9925 136.84 58.0989C136.802 58.2053 136.787 58.3344 136.787 58.4711V58.7978C136.787 58.9346 136.802 59.0637 136.84 59.1701C136.871 59.284 136.924 59.3752 136.977 59.4435C137.03 59.5119 137.106 59.5727 137.19 59.6183C137.273 59.6639 137.357 59.6942 137.44 59.717C137.524 59.7322 137.615 59.7474 137.714 59.7474C137.82 59.7474 137.919 59.7322 138.018 59.7094C138.117 59.6866 138.2 59.6487 138.284 59.5955C138.367 59.5423 138.443 59.4663 138.504 59.3676C138.565 59.2764 138.603 59.1625 138.626 59.0333V58.9877H138.246V59.0181C138.208 59.1549 138.147 59.2536 138.063 59.3144C137.98 59.3752 137.858 59.4056 137.706 59.4056C137.509 59.4056 137.372 59.36 137.281 59.2536C137.197 59.1549 137.152 58.9953 137.144 58.775H138.633V58.4711C138.633 58.3344 138.618 58.2053 138.58 58.0989C138.542 57.9849 138.496 57.8938 138.443 57.8254M138.261 58.4332H137.144C137.159 58.2356 137.205 58.0989 137.289 58.0077C137.38 57.9166 137.516 57.871 137.699 57.871C137.881 57.871 138.025 57.9166 138.109 58.0077C138.193 58.0913 138.246 58.2356 138.261 58.4332Z" fill="#78787A"/>
<path d="M142.363 57.8703C142.303 57.8019 142.234 57.7411 142.151 57.6956C142.075 57.65 141.984 57.6196 141.9 57.5968C141.816 57.5816 141.725 57.5664 141.627 57.5664H140.753V60.4912H141.125V59.7011H141.627C141.725 59.7011 141.816 59.6935 141.9 59.6707C141.984 59.6555 142.075 59.6176 142.151 59.572C142.234 59.5264 142.303 59.4656 142.363 59.3973C142.424 59.3289 142.47 59.2301 142.508 59.1238C142.546 59.0174 142.561 58.8883 142.561 58.7515V58.516C142.561 58.3793 142.546 58.2501 142.508 58.1438C142.477 58.0374 142.424 57.9387 142.363 57.8703ZM142.189 58.6072V58.668C142.189 58.9187 142.143 59.0934 142.052 59.1997C141.961 59.3061 141.824 59.3517 141.627 59.3517H141.125V57.9083H141.627C141.824 57.9083 141.961 57.9614 142.052 58.0678C142.143 58.1742 142.189 58.3489 142.189 58.5996" fill="#78787A"/>
<path d="M145.029 57.5664H144.657V59.7011H145.029V57.5664Z" fill="#78787A"/>
<path d="M146.914 58.5334C146.869 58.5182 146.747 58.4878 146.58 58.4498C146.398 58.4118 146.276 58.3739 146.2 58.3511C146.101 58.3207 146.063 58.2903 146.048 58.2675C146.025 58.2447 146.018 58.1991 146.018 58.1308V58.1156C146.018 58.0472 146.056 57.994 146.124 57.9408C146.208 57.8877 146.329 57.8649 146.489 57.8649C146.975 57.8649 146.975 58.0852 146.975 58.1535V58.1915H147.347V58.1535C147.347 58.0396 147.324 57.9408 147.279 57.8573C147.233 57.7737 147.165 57.7053 147.081 57.6521C146.998 57.6066 146.907 57.5686 146.815 57.5458C146.717 57.523 146.61 57.5078 146.489 57.5078C146.246 57.5078 146.048 57.561 145.889 57.6597C145.729 57.7661 145.646 57.9028 145.646 58.0852V58.108C145.646 58.2599 145.676 58.3814 145.744 58.465C145.813 58.5562 145.927 58.617 146.079 58.6625C146.117 58.6777 146.223 58.7005 146.405 58.7461C146.58 58.7917 146.709 58.8221 146.785 58.8449C146.884 58.8752 146.922 58.9056 146.945 58.9284C146.967 58.9512 146.983 58.9968 146.983 59.0576V59.0956C146.983 59.1639 146.983 59.3842 146.534 59.3842C146.056 59.3842 146.056 59.1639 146.056 59.088V58.9132H145.683V59.088C145.683 59.2019 145.706 59.3007 145.752 59.3842C145.797 59.4678 145.866 59.5362 145.949 59.5894C146.033 59.6349 146.117 59.6729 146.215 59.6957C146.314 59.7185 146.42 59.7337 146.534 59.7337C146.641 59.7337 146.739 59.7261 146.838 59.7033C146.929 59.6805 147.021 59.6501 147.096 59.6045C147.18 59.559 147.241 59.4906 147.286 59.407C147.332 59.3235 147.355 59.2247 147.355 59.1108V59.0804C147.355 58.9284 147.317 58.8069 147.256 58.7157C147.188 58.6321 147.074 58.5638 146.922 58.5182" fill="#78787A"/>
<path d="M149.543 57.8254C149.482 57.757 149.413 57.6963 149.33 57.6507C149.246 57.6051 149.163 57.5747 149.079 57.5519C148.912 57.5139 148.699 57.5139 148.532 57.5519C148.441 57.5671 148.358 57.6051 148.282 57.6507C148.198 57.6963 148.13 57.757 148.069 57.8254C148.008 57.9014 147.962 57.9925 147.932 58.0989C147.894 58.2053 147.879 58.3344 147.879 58.4711V58.7978C147.879 58.9346 147.894 59.0637 147.932 59.1701C147.962 59.2764 148.016 59.3752 148.069 59.4435C148.13 59.5119 148.198 59.5727 148.282 59.6183C148.365 59.6639 148.449 59.6942 148.532 59.717C148.616 59.7322 148.707 59.7474 148.806 59.7474C148.912 59.7474 149.011 59.7322 149.11 59.7094C149.208 59.6866 149.3 59.6487 149.383 59.5955C149.467 59.5423 149.543 59.4663 149.603 59.3676C149.664 59.2764 149.702 59.1625 149.725 59.0333V58.9877H149.345V59.0181C149.307 59.1549 149.246 59.2536 149.163 59.3144C149.079 59.3752 148.958 59.4056 148.806 59.4056C148.608 59.4056 148.471 59.36 148.388 59.2536C148.304 59.1549 148.259 58.9953 148.251 58.775H149.74V58.4711C149.74 58.3344 149.725 58.2053 149.687 58.0989C149.649 57.9849 149.603 57.8938 149.543 57.8254ZM149.36 58.4332H148.244C148.259 58.2356 148.304 58.0989 148.388 58.0077C148.479 57.9166 148.616 57.871 148.798 57.871C148.98 57.871 149.125 57.9166 149.208 58.0077C149.292 58.0913 149.345 58.2356 149.36 58.4332Z" fill="#78787A"/>
<path d="M151.54 58.5334C151.495 58.5182 151.373 58.4878 151.206 58.4498C151.024 58.4118 150.902 58.3739 150.826 58.3511C150.728 58.3207 150.69 58.2903 150.674 58.2675C150.652 58.2371 150.644 58.1991 150.644 58.1308V58.1156C150.644 58.0472 150.682 57.9864 150.758 57.9408C150.841 57.8877 150.963 57.8649 151.123 57.8649C151.609 57.8649 151.609 58.0852 151.609 58.1535V58.1915H151.981V58.1535C151.981 58.0396 151.958 57.9408 151.913 57.8573C151.867 57.7737 151.799 57.7053 151.723 57.6521C151.639 57.6066 151.548 57.5686 151.449 57.5458C151.35 57.523 151.244 57.5078 151.123 57.5078C150.879 57.5078 150.682 57.561 150.522 57.6597C150.363 57.7661 150.279 57.9028 150.279 58.0852V58.108C150.279 58.2599 150.31 58.3814 150.378 58.465C150.446 58.5562 150.56 58.617 150.712 58.6625C150.75 58.6777 150.864 58.7005 151.039 58.7461C151.221 58.7917 151.343 58.8221 151.419 58.8449C151.518 58.8752 151.556 58.9056 151.578 58.9284C151.601 58.9512 151.616 58.9968 151.616 59.0576V59.0956C151.616 59.1639 151.616 59.3842 151.168 59.3842C150.69 59.3842 150.69 59.1639 150.69 59.088V58.9132H150.317V59.088C150.317 59.2019 150.34 59.3007 150.386 59.3842C150.431 59.4678 150.5 59.5362 150.583 59.5894C150.667 59.6349 150.758 59.6729 150.849 59.6957C150.948 59.7185 151.054 59.7337 151.168 59.7337C151.274 59.7337 151.381 59.7261 151.472 59.7033C151.563 59.6805 151.654 59.6501 151.73 59.6045C151.806 59.559 151.875 59.4906 151.92 59.407C151.966 59.3235 151.989 59.2247 151.989 59.1108V59.0804C151.989 58.9284 151.951 58.8069 151.89 58.7157C151.821 58.6321 151.708 58.5638 151.556 58.5182" fill="#78787A"/>
<path d="M154.002 57.417C154.101 57.3107 154.26 57.2499 154.465 57.2499C154.655 57.2499 154.807 57.2955 154.898 57.3866C154.997 57.4778 155.058 57.6297 155.073 57.8349V57.8728H155.476V57.8273C155.476 57.6905 155.453 57.569 155.415 57.4626C155.377 57.3487 155.324 57.2651 155.255 57.1967C155.195 57.1283 155.111 57.0676 155.027 57.022C154.936 56.9764 154.845 56.946 154.754 56.9308C154.564 56.8928 154.336 56.8928 154.154 56.9308C154.063 56.946 153.964 56.984 153.88 57.0296C153.789 57.0752 153.713 57.1359 153.652 57.2043C153.592 57.2727 153.538 57.3639 153.5 57.4778C153.462 57.5918 153.447 57.7133 153.447 57.8501V58.7921C153.447 58.9288 153.47 59.058 153.5 59.1643C153.538 59.2783 153.592 59.3694 153.652 59.4378C153.713 59.5062 153.789 59.5669 153.88 59.6125C153.964 59.6581 154.063 59.6961 154.154 59.7113C154.245 59.7265 154.351 59.7417 154.458 59.7417C154.686 59.7417 154.883 59.7189 155.043 59.6657C155.202 59.6201 155.346 59.5366 155.46 59.415L155.476 59.3998V58.2147H154.587V58.5566H155.073V59.2479C155.005 59.2935 154.921 59.3314 154.845 59.3466C154.754 59.3694 154.625 59.3846 154.458 59.3846C154.253 59.3846 154.093 59.3314 153.994 59.2175C153.895 59.1035 153.842 58.9212 153.842 58.6781V57.9336C153.842 57.6829 153.895 57.5006 153.994 57.3942" fill="#78787A"/>
<path d="M157.708 57.8273C157.648 57.7589 157.579 57.6982 157.496 57.6526C157.412 57.607 157.329 57.5766 157.237 57.5538C157.154 57.5386 157.063 57.5234 156.964 57.5234C156.865 57.5234 156.774 57.531 156.69 57.5538C156.607 57.569 156.516 57.607 156.44 57.6526C156.356 57.6982 156.288 57.7589 156.227 57.8273C156.166 57.8957 156.121 57.9944 156.09 58.1008C156.052 58.2072 156.037 58.3363 156.037 58.473V58.7997C156.037 58.9365 156.052 59.0656 156.09 59.172C156.121 59.2859 156.174 59.3771 156.227 59.4454C156.28 59.5138 156.356 59.5746 156.44 59.6202C156.523 59.6658 156.607 59.7037 156.69 59.7189C156.774 59.7341 156.865 59.7493 156.964 59.7493C157.07 59.7493 157.169 59.7341 157.268 59.7113C157.367 59.6885 157.45 59.6506 157.534 59.5974C157.617 59.5442 157.693 59.4682 157.754 59.3695C157.815 59.2783 157.853 59.1644 157.876 59.0352V58.9896H157.496V59.02C157.458 59.1568 157.397 59.2555 157.313 59.3163C157.23 59.3771 157.108 59.4075 156.956 59.4075C156.766 59.4075 156.622 59.3543 156.538 59.2555C156.455 59.1568 156.409 58.9972 156.402 58.7769H157.891V58.473C157.891 58.3363 157.876 58.2072 157.838 58.1008C157.8 57.9944 157.754 57.9033 157.693 57.8273M157.511 58.4351H156.394C156.409 58.2375 156.455 58.1008 156.538 58.0096C156.63 57.9185 156.766 57.8729 156.949 57.8729C157.131 57.8729 157.275 57.9185 157.359 58.0096C157.443 58.0932 157.496 58.2375 157.511 58.4351Z" fill="#78787A"/>
<path d="M160.079 57.7793C160.003 57.7034 159.904 57.6502 159.775 57.6198C159.653 57.5894 159.501 57.5742 159.319 57.5742H158.521V59.7089H158.894V57.9237H159.357C159.471 57.9237 159.57 57.9313 159.646 57.9541C159.714 57.9693 159.775 57.9996 159.813 58.0452C159.851 58.0832 159.881 58.1364 159.897 58.1896C159.912 58.2503 159.919 58.3263 159.919 58.4099V59.7089H160.292V58.4555C160.292 58.3035 160.276 58.1668 160.246 58.0604C160.216 57.9541 160.162 57.8629 160.086 57.7869" fill="#78787A"/>
<path d="M162.533 57.8254C162.472 57.7494 162.404 57.6963 162.32 57.6507C162.237 57.6051 162.153 57.5747 162.069 57.5519C161.902 57.5139 161.69 57.5139 161.522 57.5519C161.431 57.5671 161.348 57.6051 161.272 57.6507C161.188 57.6963 161.12 57.757 161.059 57.8254C160.998 57.8938 160.953 57.9925 160.922 58.0989C160.884 58.2053 160.869 58.3344 160.869 58.4711V58.7978C160.869 58.9346 160.884 59.0637 160.922 59.1701C160.953 59.284 161.006 59.3752 161.059 59.4435C161.112 59.5119 161.188 59.5727 161.272 59.6183C161.355 59.6639 161.439 59.6942 161.522 59.717C161.606 59.7322 161.697 59.7474 161.796 59.7474C161.902 59.7474 162.001 59.7322 162.1 59.7094C162.199 59.6866 162.282 59.6487 162.366 59.5955C162.449 59.5423 162.525 59.4663 162.586 59.3676C162.647 59.2764 162.685 59.1625 162.708 59.0333V58.9877H162.328V59.0181C162.29 59.1549 162.229 59.2536 162.145 59.3144C162.062 59.3752 161.94 59.4056 161.788 59.4056C161.591 59.4056 161.454 59.36 161.371 59.2536C161.287 59.1549 161.241 58.9953 161.234 58.775H162.723V58.4711C162.723 58.3344 162.708 58.2053 162.67 58.0989C162.632 57.9925 162.586 57.9014 162.533 57.8254ZM162.351 58.4332H161.234C161.249 58.2356 161.295 58.0989 161.378 58.0077C161.469 57.9166 161.606 57.871 161.788 57.871C161.971 57.871 162.115 57.9166 162.199 58.0077C162.282 58.0913 162.335 58.2356 162.351 58.4332Z" fill="#78787A"/>
<path d="M163.338 59.7011H163.71V57.9159H164.31V57.5664H163.338V59.7011Z" fill="#78787A"/>
<path d="M165.275 57.5968C165.184 57.6196 165.108 57.65 165.025 57.6956C164.941 57.7411 164.873 57.8019 164.812 57.8703C164.751 57.9387 164.706 58.0374 164.675 58.1438C164.637 58.2501 164.622 58.3793 164.622 58.516V58.7515C164.622 58.8883 164.637 59.0174 164.675 59.1238C164.706 59.2377 164.759 59.3289 164.812 59.3973C164.873 59.4656 164.941 59.5264 165.025 59.572C165.108 59.6176 165.192 59.6479 165.275 59.6707C165.359 59.6859 165.45 59.7011 165.549 59.7011H166.423V57.5664H165.549C165.45 57.5664 165.359 57.574 165.275 57.5968ZM164.994 58.6072C164.994 58.3565 165.04 58.1818 165.131 58.0754C165.215 57.969 165.359 57.9235 165.556 57.9235H166.058V59.3669H165.556C165.359 59.3669 165.222 59.3137 165.131 59.2149C165.04 59.1086 164.994 58.9338 164.994 58.6831V58.6224V58.6072Z" fill="#78787A"/>
<path d="M167.486 56.7773H167.114V59.7021H167.486V56.7773Z" fill="#78787A"/>
<path d="M169.97 56.9531H169.484L168.618 59.65L168.603 59.7032H169.02L169.203 59.1258H170.251L170.433 59.7032H170.851L169.978 56.9835V56.9531H169.97ZM170.137 58.7764H169.317L169.727 57.5001L170.137 58.7764Z" fill="#78787A"/>
<path d="M172.721 58.7213C172.721 58.972 172.683 59.1544 172.599 59.2607C172.523 59.3595 172.379 59.4127 172.181 59.4127C171.984 59.4127 171.839 59.3595 171.763 59.2607C171.68 59.162 171.642 58.9796 171.642 58.7213V57.5742H171.27V58.8049C171.27 58.9417 171.285 59.0708 171.315 59.1772C171.345 59.2911 171.391 59.3823 171.444 59.4506C171.497 59.5266 171.566 59.5798 171.649 59.633C171.725 59.6785 171.809 59.7089 171.9 59.7317C171.984 59.7545 172.075 59.7621 172.181 59.7621C172.288 59.7621 172.379 59.7545 172.462 59.7317C172.546 59.7089 172.629 59.6785 172.713 59.633C172.789 59.5874 172.857 59.5266 172.91 59.4506C172.964 59.3823 173.009 59.2835 173.04 59.1772C173.07 59.0708 173.085 58.9417 173.085 58.8049V57.5742H172.721V58.7213Z" fill="#78787A"/>
<path d="M176.792 57.7803C176.717 57.7044 176.618 57.6512 176.489 57.6208C176.367 57.5904 176.215 57.5752 176.033 57.5752H175.6V56.7852H175.228V59.7099H175.6V57.9247H176.063C176.177 57.9247 176.276 57.9323 176.352 57.9551C176.42 57.9703 176.481 58.0007 176.519 58.0462C176.557 58.0918 176.587 58.1374 176.603 58.1906C176.618 58.2513 176.625 58.3273 176.625 58.4109V59.7099H176.998V58.4565C176.998 58.2969 176.982 58.1678 176.952 58.0614C176.922 57.9551 176.868 57.8639 176.792 57.7879" fill="#78787A"/>
<path d="M179.254 57.8254C179.193 57.7494 179.124 57.6963 179.041 57.6507C178.957 57.6051 178.874 57.5747 178.79 57.5519C178.623 57.5139 178.41 57.5139 178.243 57.5519C178.152 57.5747 178.068 57.6051 177.992 57.6507C177.909 57.6963 177.841 57.757 177.78 57.8254C177.719 57.8938 177.673 57.9849 177.643 58.0989C177.605 58.2053 177.59 58.3344 177.59 58.4711V58.7978C177.59 58.9346 177.605 59.0637 177.643 59.1701C177.681 59.284 177.727 59.3752 177.78 59.4435C177.833 59.5119 177.909 59.5727 177.992 59.6183C178.076 59.6639 178.16 59.6942 178.243 59.717C178.327 59.7322 178.418 59.7474 178.517 59.7474C178.615 59.7474 178.707 59.7398 178.79 59.717C178.874 59.7018 178.965 59.6639 179.041 59.6183C179.124 59.5727 179.193 59.5119 179.254 59.4435C179.314 59.3752 179.36 59.2764 179.398 59.1701C179.436 59.0637 179.451 58.9346 179.451 58.7978V58.4711C179.451 58.3344 179.436 58.2053 179.398 58.0989C179.36 57.9925 179.314 57.9014 179.254 57.8254ZM179.079 58.5547V58.7218C179.079 58.9725 179.033 59.1473 178.942 59.2536C178.851 59.36 178.714 59.4056 178.517 59.4056C178.319 59.4056 178.182 59.3524 178.091 59.2536C178 59.1473 177.954 58.9649 177.954 58.7218V58.5547C177.954 58.304 178 58.1293 178.091 58.0229C178.182 57.9166 178.319 57.871 178.517 57.871C178.714 57.871 178.859 57.9242 178.942 58.0229C179.033 58.1293 179.079 58.304 179.079 58.5547Z" fill="#78787A"/>
<path d="M181.92 57.5664H181.548V59.7011H181.92V57.5664Z" fill="#78787A"/>
<path d="M183.197 56.9531H182.824V57.5685H182.482V57.9179H182.824V59.7032H183.197V57.9179H183.546V57.5685H183.197V56.9531Z" fill="#78787A"/>
<path d="M185.596 57.5664L184.951 59.2833L184.313 57.5968V57.574H183.902L184.67 59.6024C184.692 59.6555 184.73 59.7011 184.784 59.7239L184.487 60.4988H184.882L185.991 57.574H185.589L185.596 57.5664Z" fill="#78787A"/>
<path d="M180.059 59.7011H180.431V57.9159H181.023V57.5664H180.059V59.7011Z" fill="#78787A"/>
<path d="M143.168 59.7011H143.54V57.9159H144.133V57.5664H143.168V59.7011Z" fill="#78787A"/>
<path d="M139.256 59.7011H139.628V57.9159H140.228V57.5664H139.256V59.7011Z" fill="#78787A"/>
<path d="M174.316 56.9531H173.943V57.5685H173.602V57.9179H173.943V59.7032H174.316V57.9179H174.665V57.5685H174.316V56.9531Z" fill="#78787A"/>
<path d="M136.073 56.9531H135.7V57.5685H135.358V57.9179H135.7V59.7032H136.073V57.9179H136.43V57.5685H136.073V56.9531Z" fill="#78787A"/>
<path d="M134.584 57.7793C134.508 57.7034 134.409 57.6502 134.28 57.6198C134.158 57.5894 134.006 57.5742 133.824 57.5742H133.026V59.7089H133.399V57.9237H133.862C133.976 57.9237 134.075 57.9313 134.151 57.9541C134.219 57.9693 134.272 57.9996 134.318 58.0452C134.356 58.0832 134.386 58.1364 134.401 58.1896C134.417 58.2503 134.424 58.3263 134.424 58.4099V59.7089H134.796V58.4555C134.796 58.2959 134.781 58.1668 134.751 58.0604C134.72 57.9541 134.667 57.8629 134.591 57.7869" fill="#78787A"/>
<path d="M145.037 57.0443C145.037 57.0443 144.999 56.9911 144.961 56.9759C144.893 56.9455 144.794 56.9455 144.725 56.9759C144.688 56.9911 144.665 57.0139 144.65 57.0443C144.634 57.0671 144.627 57.0899 144.619 57.1127C144.619 57.1354 144.619 57.1506 144.619 57.1734C144.619 57.1962 144.619 57.2114 144.627 57.2342C144.627 57.257 144.642 57.2798 144.65 57.295C144.665 57.3254 144.688 57.3482 144.725 57.3634C144.725 57.3634 144.801 57.3861 144.839 57.3861C144.877 57.3861 144.923 57.3861 144.953 57.3634C144.991 57.3482 145.014 57.3254 145.029 57.295C145.045 57.2722 145.052 57.2494 145.06 57.2266C145.06 57.2038 145.06 57.1886 145.06 57.1658C145.06 57.143 145.06 57.1279 145.06 57.1051C145.06 57.0823 145.045 57.0595 145.037 57.0443Z" fill="#78787A"/>
<path d="M123.12 57.0443C123.12 57.0443 123.082 56.9911 123.044 56.9759C122.976 56.9455 122.877 56.9455 122.809 56.9759C122.778 56.9911 122.748 57.0139 122.733 57.0443C122.718 57.0671 122.71 57.0899 122.71 57.1051C122.71 57.1203 122.71 57.143 122.71 57.1658C122.71 57.1886 122.71 57.2038 122.71 57.2266C122.71 57.2418 122.718 57.2646 122.733 57.295C122.748 57.3254 122.771 57.3482 122.809 57.3634C122.839 57.3786 122.885 57.3861 122.923 57.3861C122.961 57.3861 123.006 57.3786 123.037 57.3634C123.075 57.3482 123.097 57.3254 123.113 57.295C123.128 57.2722 123.135 57.2494 123.135 57.2266C123.135 57.2114 123.135 57.1886 123.135 57.1658C123.135 57.143 123.135 57.1279 123.135 57.1051C123.135 57.0823 123.12 57.0671 123.113 57.0367" fill="#78787A"/>
<path d="M181.92 57.0443C181.92 57.0443 181.882 56.9911 181.844 56.9759C181.775 56.9455 181.677 56.9455 181.608 56.9759C181.57 56.9911 181.548 57.0139 181.532 57.0443C181.517 57.0671 181.51 57.0899 181.502 57.1127C181.502 57.1354 181.502 57.1506 181.502 57.1734C181.502 57.1962 181.502 57.2114 181.502 57.2342C181.502 57.257 181.517 57.2798 181.525 57.295C181.54 57.3254 181.563 57.3482 181.601 57.3634C181.601 57.3634 181.677 57.3861 181.715 57.3861C181.753 57.3861 181.798 57.3861 181.829 57.3634C181.867 57.3482 181.889 57.3254 181.905 57.295C181.92 57.2722 181.927 57.2494 181.935 57.2266C181.935 57.2038 181.935 57.1886 181.935 57.1658C181.935 57.143 181.935 57.1279 181.935 57.1051C181.935 57.0823 181.92 57.0595 181.912 57.0443" fill="#78787A"/>
<path d="M128.992 57.7867C128.924 57.7107 128.825 57.6576 128.704 57.6196C128.59 57.5892 128.438 57.5664 128.271 57.5664H126.28V59.7011H126.653V57.9159H127.519V59.7011H127.891V57.9159H128.263C128.377 57.9159 128.476 57.9235 128.552 57.9462C128.62 57.9614 128.673 57.9918 128.719 58.0374C128.757 58.083 128.787 58.1286 128.802 58.1818C128.818 58.2425 128.825 58.3109 128.825 58.4021V59.7011H129.197V58.44C129.197 58.2881 129.182 58.159 129.152 58.0526C129.121 57.9462 129.076 57.8551 129 57.7791" fill="#78787A"/>
<path d="M105.617 57.7867C105.549 57.7107 105.45 57.6576 105.329 57.6196C105.215 57.5892 105.063 57.5664 104.896 57.5664H102.905V59.7011H103.278V57.9159H104.144V59.7011H104.516V57.9159H104.888C105.002 57.9159 105.101 57.9235 105.177 57.9462C105.245 57.9614 105.306 57.9918 105.344 58.0374C105.382 58.083 105.412 58.1286 105.427 58.1818C105.443 58.2425 105.45 58.3185 105.45 58.4021V59.7011H105.822V58.44C105.822 58.2881 105.807 58.159 105.784 58.0526C105.754 57.9462 105.709 57.8551 105.633 57.7791" fill="#78787A"/>
<path d="M185.992 51.2695H185.604V55.0528H185.992V51.2695Z" fill="#78787A"/>
<path d="M184.396 51.2693V54.6575H183.492V53.8219C183.492 53.5788 183.469 53.3812 183.432 53.2217C183.394 53.0622 183.325 52.933 183.234 52.8419C183.143 52.7507 183.029 52.6823 182.892 52.6443C182.755 52.6064 182.588 52.5836 182.391 52.5836H181.753V52.971H182.414C182.535 52.971 182.641 52.9786 182.725 53.009C182.809 53.0318 182.877 53.0698 182.938 53.1305C182.998 53.1913 183.044 53.2749 183.067 53.3736C183.09 53.48 183.105 53.6091 183.105 53.7687V54.6575H182.717V54.1029C182.717 53.9814 182.702 53.8674 182.672 53.7763C182.641 53.6775 182.603 53.6016 182.55 53.5408C182.497 53.48 182.436 53.4268 182.368 53.3888C182.3 53.3509 182.224 53.3205 182.148 53.3053C182.072 53.2901 181.996 53.2825 181.905 53.2825C181.813 53.2825 181.737 53.2901 181.661 53.3053C181.585 53.3205 181.517 53.3509 181.441 53.3888C181.373 53.4268 181.312 53.48 181.259 53.5408C181.206 53.6016 181.168 53.6775 181.137 53.7763C181.107 53.875 181.092 53.9814 181.092 54.1029V54.1257C181.092 54.2473 181.107 54.4524 181.137 54.5512C181.152 54.5967 181.175 54.6195 181.19 54.6575H180.021V52.6747H179.633V54.6575H178.212V52.6747H177.825V54.6575H176.496V53.5028C176.496 53.3812 176.48 53.2673 176.45 53.1761C176.42 53.0774 176.382 53.0014 176.328 52.9406C176.275 52.8798 176.214 52.8343 176.146 52.7887C176.078 52.7507 176.002 52.7203 175.926 52.7051C175.85 52.6899 175.774 52.6823 175.683 52.6823H175.341C175.265 52.6823 175.189 52.6899 175.121 52.7051C175.045 52.7203 174.976 52.7507 174.9 52.7887C174.832 52.8267 174.771 52.8798 174.718 52.9406C174.665 53.0014 174.627 53.0774 174.596 53.1761C174.566 53.2749 174.551 53.3812 174.551 53.5028V54.2245C174.551 54.346 174.566 54.4524 174.596 54.5512C174.627 54.6499 174.665 54.7259 174.718 54.7867C174.771 54.8474 174.824 54.9006 174.9 54.9386C174.969 54.9766 175.045 55.007 175.121 55.0222C175.197 55.0374 175.28 55.045 175.364 55.045H184.761V51.2617H184.374L184.396 51.2693ZM176.131 54.6651C175.804 54.6651 175.394 54.6651 175.386 54.6651C175.242 54.6651 175.136 54.6271 175.067 54.5512C174.999 54.4752 174.969 54.346 174.969 54.1637V53.5864C174.969 53.404 174.999 53.2749 175.067 53.1989C175.128 53.1229 175.227 53.085 175.364 53.085H175.705C175.85 53.085 175.956 53.1229 176.025 53.1989C176.093 53.2749 176.123 53.404 176.123 53.5864V54.6727L176.131 54.6651ZM182.338 54.6651H181.92C181.775 54.6651 181.677 54.6195 181.608 54.5436C181.517 54.4448 181.51 54.2777 181.51 54.2777C181.51 54.2549 181.51 54.1409 181.51 54.1257C181.51 53.9738 181.547 53.8674 181.608 53.7991C181.677 53.7231 181.783 53.6851 181.92 53.6851C182.056 53.6851 182.17 53.7231 182.239 53.7991C182.307 53.875 182.338 54.0042 182.338 54.1865V54.6651Z" fill="#78787A"/>
<path d="M178.418 52.3042H178.463V52.0383H178.144C178.084 52.0079 178.046 51.9395 178.061 51.8788C178.076 51.7876 178.182 51.7344 178.342 51.7344H178.501V51.4609H178.312C177.97 51.4609 177.795 51.5901 177.787 51.856C177.787 51.9092 177.803 51.9699 177.825 52.0383H177.59V52.3042H178.426H178.418Z" fill="#78787A"/>
<path d="M180.09 55.9052C180.09 55.9052 180.173 55.928 180.226 55.928C180.279 55.928 180.325 55.9204 180.363 55.9052C180.401 55.8901 180.424 55.8673 180.439 55.8369C180.454 55.8065 180.462 55.7837 180.469 55.7609C180.469 55.7381 180.469 55.7153 180.469 55.6925C180.469 55.6697 180.469 55.647 180.469 55.6242C180.469 55.6014 180.454 55.5786 180.439 55.5482C180.424 55.5178 180.401 55.495 180.363 55.4798C180.325 55.4646 180.279 55.457 180.226 55.457C180.173 55.457 180.128 55.4646 180.09 55.4798C180.052 55.495 180.029 55.5178 180.014 55.5482C179.998 55.5786 179.991 55.6014 179.983 55.6242C179.983 55.647 179.976 55.6697 179.976 55.6925C179.976 55.7153 179.976 55.7381 179.983 55.7609C179.983 55.7837 179.998 55.8065 180.014 55.8369C180.029 55.8673 180.052 55.8901 180.09 55.9052Z" fill="#78787A"/>
<path d="M179.596 55.9052C179.596 55.9052 179.656 55.8673 179.672 55.8369C179.687 55.8065 179.694 55.7837 179.702 55.7609C179.702 55.7381 179.71 55.7153 179.71 55.6925C179.71 55.6697 179.71 55.647 179.702 55.6242C179.702 55.6014 179.687 55.5786 179.672 55.5482C179.656 55.5178 179.634 55.495 179.596 55.4798C179.558 55.4646 179.512 55.457 179.459 55.457C179.406 55.457 179.36 55.4646 179.322 55.4798C179.284 55.495 179.261 55.5178 179.246 55.5482C179.231 55.5786 179.223 55.6014 179.216 55.6242C179.216 55.647 179.216 55.6697 179.216 55.6925C179.216 55.7153 179.216 55.7381 179.216 55.7609C179.216 55.7837 179.231 55.8065 179.246 55.8369C179.261 55.8673 179.284 55.8901 179.322 55.9052C179.36 55.9204 179.406 55.928 179.459 55.928C179.512 55.928 179.558 55.9204 179.596 55.9052Z" fill="#78787A"/>
<path d="M175.721 52.1728C175.721 52.1728 175.759 52.226 175.797 52.2412C175.835 52.2564 175.88 52.264 175.934 52.264C175.987 52.264 176.032 52.2564 176.07 52.2412C176.108 52.226 176.131 52.2032 176.146 52.1728C176.161 52.1424 176.169 52.1196 176.177 52.0968C176.177 52.0741 176.177 52.0513 176.177 52.0285C176.177 52.0057 176.177 51.9829 176.177 51.9601C176.177 51.9373 176.161 51.9145 176.146 51.8841C176.131 51.8537 176.108 51.831 176.07 51.8158C176.032 51.8006 175.987 51.793 175.934 51.793C175.88 51.793 175.835 51.8006 175.797 51.8158C175.759 51.831 175.736 51.8537 175.721 51.8841C175.706 51.9145 175.698 51.9373 175.69 51.9601C175.69 51.9829 175.69 52.0057 175.69 52.0285C175.69 52.0513 175.69 52.0741 175.69 52.0968C175.69 52.1196 175.706 52.1424 175.721 52.1728Z" fill="#78787A"/>
<path d="M174.961 52.1728C174.961 52.1728 174.999 52.226 175.037 52.2412C175.075 52.2564 175.121 52.264 175.174 52.264C175.227 52.264 175.273 52.2564 175.311 52.2412C175.348 52.226 175.371 52.2032 175.386 52.1728C175.402 52.1424 175.409 52.1196 175.417 52.0968C175.417 52.0741 175.417 52.0513 175.417 52.0285C175.417 52.0057 175.417 51.9829 175.417 51.9601C175.417 51.9373 175.402 51.9145 175.386 51.8841C175.371 51.8537 175.348 51.831 175.311 51.8158C175.273 51.8006 175.227 51.793 175.174 51.793C175.121 51.793 175.075 51.8006 175.037 51.8158C174.999 51.831 174.976 51.8537 174.961 51.8841C174.946 51.9145 174.938 51.9373 174.931 51.9601C174.931 51.9829 174.931 52.0057 174.931 52.0285C174.931 52.0513 174.931 52.0741 174.931 52.0968C174.931 52.1196 174.946 52.1424 174.961 52.1728Z" fill="#78787A"/>
<path d="M158.438 51.2693V54.6575H157.42V51.2693H157.033V54.6575H156.235V53.5028C156.235 53.3812 156.22 53.2749 156.19 53.1761C156.159 53.0774 156.121 53.0014 156.068 52.9406C156.015 52.8798 155.954 52.8343 155.886 52.7887C155.818 52.7507 155.742 52.7203 155.666 52.7051C155.59 52.6899 155.514 52.6823 155.422 52.6823C155.422 52.6823 155.088 52.6823 155.081 52.6823C155.005 52.6823 154.929 52.6899 154.86 52.7051C154.784 52.7203 154.708 52.7507 154.64 52.7887C154.572 52.8267 154.511 52.8798 154.458 52.9406C154.405 53.0014 154.367 53.0774 154.336 53.1761C154.306 53.2673 154.298 53.366 154.291 53.48C154.291 53.48 154.291 53.4952 154.291 53.5028V53.7459C154.291 54.065 154.23 54.3005 154.116 54.4372C154.002 54.5815 153.797 54.6575 153.516 54.6575H153.06V52.6747H152.672V54.6575H151.024V52.6747H150.636V54.6575H150.272C149.991 54.6575 149.793 54.5815 149.679 54.4372C149.565 54.2929 149.505 54.0422 149.505 53.6927V52.8874H149.125V53.6927C149.125 54.0422 149.064 54.2929 148.95 54.4372C148.836 54.5815 148.638 54.6575 148.35 54.6575H147.985V52.8874H147.598V54.6575H145.82V51.2693H145.433V55.0526H148.342C148.471 55.0526 148.593 55.0374 148.699 55.0146C148.813 54.9918 148.912 54.9462 149.011 54.893C149.109 54.8322 149.193 54.7563 149.261 54.6651C149.277 54.6499 149.284 54.6271 149.292 54.6043C149.307 54.6195 149.315 54.6423 149.33 54.6651C149.398 54.7563 149.482 54.8322 149.58 54.893C149.679 54.9538 149.786 54.9918 149.892 55.0146C149.991 55.0374 150.097 55.045 150.211 55.045H153.485C153.614 55.045 153.736 55.0298 153.842 55.007C153.949 54.9842 154.055 54.9386 154.154 54.8854C154.237 54.8322 154.306 54.7715 154.367 54.6955C154.382 54.7259 154.397 54.7639 154.412 54.7867C154.465 54.8474 154.518 54.9006 154.594 54.9386C154.663 54.9766 154.739 55.007 154.815 55.0222C154.891 55.0374 154.967 55.045 155.058 55.045H158.78V51.2617H158.393L158.438 51.2693ZM155.848 54.6651H155.103C154.959 54.6651 154.853 54.6271 154.784 54.5436C154.716 54.4676 154.686 54.3384 154.686 54.1561V53.5788C154.686 53.3964 154.716 53.2673 154.784 53.1913C154.845 53.1154 154.951 53.0774 155.081 53.0774H155.422C155.567 53.0774 155.673 53.1154 155.742 53.1913C155.81 53.2673 155.84 53.3964 155.84 53.5788V54.6651H155.848Z" fill="#78787A"/>
<path d="M144.961 50.7221L145.341 50.4334C145.455 50.5473 145.591 50.6081 145.743 50.6081C145.895 50.6081 146.047 50.5473 146.192 50.4258V50.7372C146.07 50.8436 145.918 50.8968 145.728 50.8968C145.561 50.8968 145.44 50.8512 145.341 50.76L145.12 50.9196L144.961 50.7145V50.7221Z" fill="#78787A"/>
<path d="M144.331 54.6664H141.725C141.444 54.6664 141.247 54.5904 141.133 54.4461C141.019 54.3017 140.958 54.051 140.958 53.7016V53.2534H140.578V53.8459C140.578 54.0282 140.601 54.1878 140.639 54.3245C140.677 54.4689 140.738 54.5828 140.806 54.674C140.874 54.7651 140.958 54.8411 141.057 54.9019C141.155 54.9627 141.262 55.0006 141.368 55.0234C141.467 55.0462 141.573 55.0538 141.687 55.0538H144.339H144.726V52.6836H144.339V54.6664H144.331Z" fill="#78787A"/>
<path d="M149.542 51.8919C149.542 51.8919 149.519 51.9451 149.512 51.9679C149.512 51.9907 149.512 52.0135 149.512 52.0287C149.512 52.0515 149.512 52.0743 149.512 52.0971C149.512 52.1198 149.527 52.1426 149.542 52.173C149.557 52.2034 149.58 52.2262 149.618 52.2414C149.656 52.2566 149.702 52.2642 149.755 52.2642C149.808 52.2642 149.854 52.2566 149.892 52.2414C149.93 52.2262 149.952 52.2034 149.968 52.173C149.983 52.1426 149.99 52.1198 149.998 52.0971C149.998 52.0743 149.998 52.0515 149.998 52.0287C149.998 52.0059 149.998 51.9831 149.998 51.9679C149.998 51.9451 149.983 51.9223 149.968 51.8919C149.952 51.8616 149.93 51.8388 149.892 51.8236C149.854 51.8084 149.816 51.8008 149.755 51.8008C149.694 51.8008 149.656 51.8084 149.618 51.8236C149.58 51.8388 149.557 51.8616 149.542 51.8919Z" fill="#78787A"/>
<path d="M152.672 52.1728C152.672 52.1728 152.71 52.226 152.748 52.2412C152.786 52.2564 152.832 52.264 152.885 52.264C152.938 52.264 152.983 52.2564 153.021 52.2412C153.059 52.226 153.082 52.2032 153.097 52.1728C153.113 52.1424 153.12 52.1196 153.128 52.0968C153.128 52.0741 153.128 52.0513 153.128 52.0285C153.128 52.0057 153.128 51.9829 153.128 51.9601C153.128 51.9373 153.113 51.9145 153.097 51.8841C153.082 51.8537 153.059 51.831 153.021 51.8158C152.983 51.8006 152.938 51.793 152.885 51.793C152.832 51.793 152.786 51.8006 152.748 51.8158C152.71 51.831 152.687 51.8537 152.672 51.8841C152.657 51.9145 152.649 51.9373 152.642 51.9601C152.642 51.9829 152.642 52.0057 152.642 52.0285C152.642 52.0513 152.642 52.0741 152.642 52.0968C152.642 52.1196 152.657 52.1424 152.672 52.1728Z" fill="#78787A"/>
<path d="M149.216 51.5752C149.216 51.5752 149.254 51.6283 149.292 51.6435C149.33 51.6587 149.375 51.6663 149.429 51.6663C149.482 51.6663 149.527 51.6587 149.565 51.6435C149.603 51.6283 149.626 51.6055 149.641 51.5752C149.657 51.5448 149.664 51.522 149.672 51.4992C149.672 51.4764 149.672 51.4536 149.672 51.4308C149.672 51.408 149.672 51.3852 149.672 51.3624C149.672 51.3397 149.657 51.3169 149.641 51.2865C149.626 51.2561 149.603 51.2333 149.565 51.2181C149.527 51.2029 149.482 51.1953 149.429 51.1953C149.375 51.1953 149.33 51.2029 149.292 51.2181C149.254 51.2333 149.231 51.2561 149.216 51.2865C149.201 51.3169 149.193 51.3397 149.186 51.3624C149.186 51.3852 149.186 51.408 149.186 51.4308C149.186 51.4536 149.186 51.4764 149.186 51.4992C149.186 51.522 149.201 51.5448 149.216 51.5752Z" fill="#78787A"/>
<path d="M148.782 52.1728C148.782 52.1728 148.82 52.226 148.858 52.2412C148.896 52.2564 148.942 52.264 148.995 52.264C149.048 52.264 149.094 52.2564 149.132 52.2412C149.17 52.226 149.193 52.2032 149.208 52.1728C149.223 52.1424 149.231 52.1196 149.238 52.0968C149.238 52.0741 149.238 52.0513 149.238 52.0285C149.238 52.0057 149.238 51.9829 149.238 51.9601C149.238 51.9373 149.223 51.9145 149.208 51.8841C149.193 51.8537 149.17 51.831 149.132 51.8158C149.094 51.8006 149.056 51.793 148.995 51.793C148.934 51.793 148.896 51.8006 148.858 51.8158C148.82 51.831 148.798 51.8537 148.782 51.8841C148.767 51.9145 148.76 51.9373 148.752 51.9601C148.752 51.9829 148.752 52.0057 148.752 52.0285C148.752 52.0513 148.752 52.0741 148.752 52.0968C148.752 52.1196 148.767 52.1424 148.782 52.1728Z" fill="#78787A"/>
<path d="M142.812 52.1728C142.812 52.1728 142.85 52.226 142.888 52.2412C142.926 52.2564 142.971 52.264 143.024 52.264C143.078 52.264 143.123 52.2564 143.161 52.2412C143.199 52.226 143.222 52.2032 143.237 52.1728C143.252 52.1424 143.26 52.1196 143.267 52.0968C143.267 52.0741 143.267 52.0513 143.267 52.0285C143.267 52.0057 143.267 51.9829 143.267 51.9601C143.267 51.9373 143.252 51.9145 143.237 51.8841C143.222 51.8537 143.199 51.831 143.161 51.8158C143.123 51.8006 143.078 51.793 143.024 51.793C142.971 51.793 142.926 51.8006 142.888 51.8158C142.85 51.831 142.827 51.8537 142.812 51.8841C142.796 51.9145 142.789 51.9373 142.781 51.9601C142.781 51.9829 142.781 52.0057 142.781 52.0285C142.781 52.0513 142.781 52.0741 142.781 52.0968C142.781 52.1196 142.796 52.1424 142.812 52.1728Z" fill="#78787A"/>
<path d="M142.052 52.1728C142.052 52.1728 142.09 52.226 142.128 52.2412C142.166 52.2564 142.211 52.264 142.265 52.264C142.318 52.264 142.363 52.2564 142.401 52.2412C142.439 52.226 142.462 52.2032 142.477 52.1728C142.492 52.1424 142.5 52.1196 142.508 52.0968C142.508 52.0741 142.508 52.0513 142.508 52.0285C142.508 52.0057 142.508 51.9829 142.508 51.9601C142.508 51.9373 142.492 51.9145 142.477 51.8841C142.462 51.8537 142.439 51.831 142.401 51.8158C142.363 51.8006 142.325 51.793 142.265 51.793C142.204 51.793 142.166 51.8006 142.128 51.8158C142.09 51.831 142.067 51.8537 142.052 51.8841C142.037 51.9145 142.029 51.9373 142.021 51.9601C142.021 51.9829 142.021 52.0057 142.021 52.0285C142.021 52.0513 142.021 52.0741 142.021 52.0968C142.021 52.1196 142.037 52.1424 142.052 52.1728Z" fill="#78787A"/>
<path d="M138.793 51.2695H138.405V55.0528H138.793V51.2695Z" fill="#78787A"/>
<path d="M137.189 51.2695V54.6577H136.285V53.655C136.285 53.3131 136.05 52.9712 135.693 52.8041C135.412 52.6674 134.857 52.5458 134.067 53.0472V52.6825H133.68V54.6577H132.791C132.548 54.6577 132.327 54.6349 132.137 54.5818C132.51 54.2323 132.791 53.898 132.821 53.5106C132.852 53.07 132.593 52.7737 132.107 52.6977C131.598 52.6218 130.96 52.8041 130.93 52.8117L130.831 52.8421L130.8 52.9408C130.694 53.2675 130.664 53.7917 131.044 54.3159C131.135 54.4374 131.233 54.5438 131.347 54.6349C131.294 54.6501 131.241 54.6577 131.195 54.6577H129.638V52.675H129.251V54.6577H127.792V52.6901H127.405V54.6349C127.405 54.7945 127.389 54.9312 127.367 55.0452C127.344 55.1515 127.306 55.2427 127.253 55.3035C127.2 55.3642 127.139 55.4174 127.063 55.4478C126.994 55.4782 126.903 55.4934 126.797 55.5086V55.934C126.911 55.9264 127.01 55.9112 127.101 55.8884C127.192 55.8656 127.283 55.8277 127.367 55.7669C127.458 55.7137 127.526 55.6377 127.587 55.5542C127.648 55.4706 127.693 55.3566 127.731 55.2123C127.746 55.1591 127.754 55.1059 127.762 55.0528H131.188C131.37 55.0528 131.56 54.9844 131.75 54.878C132.039 54.9996 132.381 55.0528 132.776 55.0528H137.554V51.2695H137.167H137.189ZM131.742 54.4222C131.59 54.3387 131.469 54.2247 131.37 54.088C131.112 53.7309 131.097 53.427 131.15 53.1612C131.332 53.1156 131.735 53.0396 132.054 53.0852C132.419 53.1384 132.449 53.3283 132.434 53.4802C132.403 53.8373 132.084 54.1487 131.735 54.4222M135.89 54.6577H134.059V53.5182C134.614 53.1004 135.138 52.9636 135.518 53.146C135.769 53.2675 135.89 53.4878 135.89 53.6474V54.6501V54.6577Z" fill="#78787A"/>
<path d="M131.484 52.1728C131.484 52.1728 131.522 52.226 131.56 52.2412C131.598 52.2564 131.644 52.264 131.697 52.264C131.75 52.264 131.796 52.2564 131.834 52.2412C131.872 52.226 131.895 52.2032 131.91 52.1728C131.925 52.1424 131.933 52.1196 131.94 52.0968C131.94 52.0741 131.94 52.0513 131.94 52.0285C131.94 52.0057 131.94 51.9829 131.94 51.9601C131.94 51.9373 131.925 51.9145 131.91 51.8841C131.895 51.8537 131.872 51.831 131.834 51.8158C131.796 51.8006 131.758 51.793 131.697 51.793C131.636 51.793 131.598 51.8006 131.56 51.8158C131.522 51.831 131.5 51.8537 131.484 51.8841C131.469 51.9145 131.462 51.9373 131.454 51.9601C131.454 51.9829 131.454 52.0057 131.454 52.0285C131.454 52.0513 131.454 52.0741 131.454 52.0968C131.454 52.1196 131.469 52.1424 131.484 52.1728Z" fill="#78787A"/>
<path d="M125.772 52.1728C125.772 52.1728 125.81 52.226 125.848 52.2412C125.886 52.2564 125.931 52.264 125.984 52.264C126.037 52.264 126.083 52.2564 126.121 52.2412C126.159 52.226 126.182 52.2032 126.197 52.1728C126.212 52.1424 126.22 52.1196 126.227 52.0968C126.227 52.0741 126.227 52.0513 126.227 52.0285C126.227 52.0057 126.227 51.9829 126.227 51.9601C126.227 51.9373 126.212 51.9145 126.197 51.8841C126.182 51.8537 126.159 51.831 126.121 51.8158C126.083 51.8006 126.045 51.793 125.984 51.793C125.924 51.793 125.886 51.8006 125.848 51.8158C125.81 51.831 125.787 51.8537 125.772 51.8841C125.756 51.9145 125.749 51.9373 125.741 51.9601C125.741 51.9829 125.741 52.0057 125.741 52.0285C125.741 52.0513 125.741 52.0741 125.741 52.0968C125.741 52.1196 125.756 52.1424 125.772 52.1728Z" fill="#78787A"/>
<path d="M125.012 52.1728C125.012 52.1728 125.05 52.226 125.088 52.2412C125.126 52.2564 125.171 52.264 125.225 52.264C125.278 52.264 125.323 52.2564 125.361 52.2412C125.399 52.226 125.422 52.2032 125.437 52.1728C125.452 52.1424 125.46 52.1196 125.468 52.0968C125.468 52.0741 125.468 52.0513 125.468 52.0285C125.468 52.0057 125.468 51.9829 125.468 51.9601C125.468 51.9373 125.452 51.9145 125.437 51.8841C125.422 51.8537 125.399 51.831 125.361 51.8158C125.323 51.8006 125.278 51.793 125.225 51.793C125.171 51.793 125.126 51.8006 125.088 51.8158C125.05 51.831 125.027 51.8537 125.012 51.8841C124.997 51.9145 124.989 51.9373 124.981 51.9601C124.981 51.9829 124.981 52.0057 124.981 52.0285C124.981 52.0513 124.981 52.0741 124.981 52.0968C124.981 52.1196 124.997 52.1424 125.012 52.1728Z" fill="#78787A"/>
<path d="M129.707 55.9052C129.707 55.9052 129.791 55.928 129.844 55.928C129.897 55.928 129.942 55.9204 129.98 55.9052C130.018 55.8901 130.041 55.8673 130.056 55.8369C130.072 55.8065 130.079 55.7837 130.087 55.7609C130.087 55.7381 130.087 55.7153 130.087 55.6925C130.087 55.6697 130.087 55.647 130.087 55.6242C130.087 55.6014 130.072 55.5786 130.056 55.5482C130.041 55.5178 130.018 55.495 129.98 55.4798C129.942 55.4646 129.897 55.457 129.844 55.457C129.791 55.457 129.745 55.4646 129.707 55.4798C129.669 55.495 129.646 55.5178 129.631 55.5482C129.616 55.5786 129.608 55.6014 129.601 55.6242C129.601 55.647 129.601 55.6697 129.601 55.6925C129.601 55.7153 129.601 55.7381 129.601 55.7609C129.601 55.7837 129.616 55.8065 129.631 55.8369C129.646 55.8673 129.669 55.8901 129.707 55.9052Z" fill="#78787A"/>
<path d="M129.289 55.556C129.289 55.556 129.251 55.5028 129.213 55.4876C129.175 55.4724 129.129 55.4648 129.076 55.4648C129.023 55.4648 128.977 55.4724 128.939 55.4876C128.901 55.5028 128.879 55.5256 128.863 55.556C128.848 55.5864 128.841 55.6092 128.833 55.632C128.833 55.6548 128.833 55.6776 128.833 55.7003C128.833 55.7231 128.833 55.7459 128.833 55.7687C128.833 55.7915 128.848 55.8143 128.863 55.8447C128.879 55.8751 128.901 55.8979 128.939 55.9131C128.977 55.9282 129.023 55.9359 129.076 55.9359C129.129 55.9359 129.175 55.9282 129.213 55.9131C129.251 55.8979 129.274 55.8751 129.289 55.8447C129.304 55.8143 129.312 55.7915 129.319 55.7687C129.319 55.7459 129.327 55.7231 129.327 55.7003C129.327 55.6776 129.327 55.6548 129.319 55.632C129.319 55.6092 129.304 55.5864 129.289 55.556Z" fill="#78787A"/>
<path d="M124.981 54.9477C125.05 54.9857 125.126 55.016 125.202 55.0312C125.278 55.0464 125.361 55.054 125.445 55.054H126.577V53.5119C126.577 53.3903 126.561 53.284 126.531 53.1852C126.501 53.0864 126.463 53.0105 126.409 52.9497C126.356 52.8889 126.296 52.8357 126.227 52.7978C126.159 52.7598 126.083 52.7294 126.007 52.7142C125.931 52.699 125.855 52.6914 125.764 52.6914H125.422C125.346 52.6914 125.27 52.699 125.202 52.7142C125.126 52.7294 125.057 52.7598 124.981 52.7978C124.913 52.8357 124.852 52.8889 124.799 52.9497C124.746 53.0105 124.708 53.0864 124.677 53.1852C124.647 53.284 124.632 53.3903 124.632 53.5119V54.2336C124.632 54.3551 124.647 54.4691 124.677 54.5602C124.708 54.659 124.746 54.735 124.799 54.7957C124.852 54.8565 124.913 54.9097 124.981 54.9477ZM125.027 53.5802C125.027 53.3979 125.057 53.2688 125.126 53.1928C125.186 53.1168 125.285 53.0788 125.422 53.0788H125.764C125.908 53.0788 126.014 53.1168 126.083 53.1928C126.151 53.2688 126.182 53.3979 126.182 53.5802V54.6666H125.445C125.3 54.6666 125.194 54.6286 125.126 54.545C125.057 54.4691 125.027 54.3399 125.027 54.1576V53.5802Z" fill="#78787A"/>
<path d="M172.872 51.2695H172.484V55.0528H172.872V51.2695Z" fill="#78787A"/>
<path d="M162.168 52.1728C162.168 52.1728 162.206 52.226 162.244 52.2412C162.282 52.2564 162.328 52.264 162.381 52.264C162.434 52.264 162.48 52.2564 162.518 52.2412C162.556 52.226 162.578 52.2032 162.593 52.1728C162.609 52.1424 162.616 52.1196 162.624 52.0968C162.624 52.0741 162.624 52.0513 162.624 52.0285C162.624 52.0057 162.624 51.9829 162.624 51.9601C162.624 51.9373 162.609 51.9145 162.593 51.8841C162.578 51.8537 162.556 51.831 162.518 51.8158C162.48 51.8006 162.434 51.793 162.381 51.793C162.328 51.793 162.282 51.8006 162.244 51.8158C162.206 51.831 162.183 51.8537 162.168 51.8841C162.153 51.9145 162.145 51.9373 162.138 51.9601C162.138 51.9829 162.138 52.0057 162.138 52.0285C162.138 52.0513 162.138 52.0741 162.138 52.0968C162.138 52.1196 162.153 52.1424 162.168 52.1728Z" fill="#78787A"/>
<path d="M161.408 52.1728C161.408 52.1728 161.446 52.226 161.484 52.2412C161.522 52.2564 161.568 52.264 161.621 52.264C161.674 52.264 161.72 52.2564 161.758 52.2412C161.796 52.226 161.819 52.2032 161.834 52.1728C161.849 52.1424 161.857 52.1196 161.864 52.0968C161.864 52.0741 161.864 52.0513 161.864 52.0285C161.864 52.0057 161.864 51.9829 161.864 51.9601C161.864 51.9373 161.849 51.9145 161.834 51.8841C161.819 51.8537 161.796 51.831 161.758 51.8158C161.72 51.8006 161.674 51.793 161.621 51.793C161.568 51.793 161.522 51.8006 161.484 51.8158C161.446 51.831 161.423 51.8537 161.408 51.8841C161.393 51.9145 161.386 51.9373 161.378 51.9601C161.378 51.9829 161.378 52.0057 161.378 52.0285C161.378 52.0513 161.378 52.0741 161.378 52.0968C161.378 52.1196 161.393 52.1424 161.408 52.1728Z" fill="#78787A"/>
<path d="M171.277 51.2695V54.6577H170.411C170.175 54.6577 169.962 54.6349 169.78 54.597C170.137 54.2779 170.418 53.8525 170.441 53.4726C170.456 53.2751 170.418 52.8041 169.735 52.7053C169.233 52.6294 168.587 52.8117 168.557 52.8193L168.458 52.8497L168.428 52.9484C168.337 53.2295 168.276 53.8297 168.641 54.3387C168.724 54.4602 168.823 54.559 168.944 54.6501C168.906 54.6577 168.869 54.6653 168.831 54.6653H167.41V51.2771H167.022V55.0604H168.831C169.005 55.0604 169.195 54.9996 169.385 54.8932C169.659 54.9996 169.993 55.0528 170.365 55.0604H171.672V51.2771H171.284L171.277 51.2695ZM169.347 54.445C169.18 54.3615 169.051 54.2475 168.952 54.1032C168.732 53.7917 168.717 53.4043 168.77 53.1612C168.96 53.1156 169.355 53.0396 169.674 53.0852C170.076 53.146 170.061 53.3511 170.061 53.4422C170.038 53.7689 169.704 54.1943 169.355 54.445" fill="#78787A"/>
<path d="M166.271 55.0538V53.5041C166.271 53.3825 166.255 53.2686 166.225 53.1774C166.195 53.0862 166.157 53.0027 166.104 52.9419C166.05 52.8811 165.99 52.8279 165.921 52.7899C165.853 52.752 165.777 52.7216 165.701 52.7064C165.625 52.6912 165.549 52.6836 165.458 52.6836H165.116C165.04 52.6836 164.964 52.6912 164.896 52.7064C164.82 52.7216 164.751 52.752 164.675 52.7899C164.607 52.8279 164.546 52.8811 164.493 52.9419C164.44 53.0027 164.402 53.0786 164.371 53.1774C164.341 53.2686 164.333 53.3673 164.326 53.4813V53.694C164.326 54.0434 164.265 54.2941 164.151 54.4385C164.037 54.5828 163.84 54.6588 163.559 54.6588H162.958V53.5041C162.958 53.3825 162.943 53.2686 162.913 53.1774C162.882 53.0786 162.845 53.0027 162.791 52.9419C162.738 52.8811 162.677 52.8279 162.609 52.7899C162.541 52.752 162.465 52.7216 162.389 52.7064C162.313 52.6912 162.237 52.6836 162.146 52.6836H161.804C161.728 52.6836 161.652 52.6912 161.583 52.7064C161.507 52.7216 161.439 52.752 161.363 52.7899C161.295 52.8279 161.234 52.8811 161.181 52.9419C161.128 53.0027 161.09 53.0786 161.059 53.1774C161.029 53.2761 161.014 53.3825 161.014 53.5041V54.2258C161.014 54.3473 161.029 54.4613 161.059 54.5524C161.09 54.6512 161.128 54.7272 161.181 54.7879C161.234 54.8487 161.287 54.9019 161.363 54.9399C161.431 54.9778 161.507 55.0082 161.583 55.0234C161.659 55.0386 161.735 55.0462 161.827 55.0462H163.559C163.688 55.0462 163.809 55.031 163.916 55.0082C164.022 54.9854 164.128 54.9399 164.227 54.8867C164.311 54.8335 164.379 54.7651 164.447 54.6968C164.463 54.7271 164.478 54.7651 164.493 54.7879C164.546 54.8487 164.599 54.9019 164.675 54.9399C164.744 54.9778 164.82 55.0082 164.896 55.0234C164.972 55.0386 165.048 55.0462 165.139 55.0462H166.271V55.0538ZM161.515 54.5448C161.447 54.4689 161.416 54.3397 161.416 54.1574V53.58C161.416 53.3977 161.447 53.2686 161.515 53.1926C161.576 53.1166 161.675 53.0786 161.811 53.0786H162.153C162.298 53.0786 162.404 53.1166 162.472 53.1926C162.541 53.2686 162.571 53.3977 162.571 53.58V54.6664H161.834C161.69 54.6664 161.583 54.6284 161.515 54.5448ZM164.82 54.5448C164.751 54.4689 164.721 54.3397 164.721 54.1574V53.58C164.721 53.3977 164.751 53.2686 164.82 53.1926C164.88 53.1166 164.979 53.0786 165.116 53.0786H165.458C165.602 53.0786 165.709 53.1166 165.777 53.1926C165.845 53.2686 165.876 53.3977 165.876 53.58V54.6664H165.131C164.987 54.6664 164.88 54.6284 164.812 54.5448" fill="#78787A"/>
<path d="M120.173 51.2695H119.785V55.0528H120.173V51.2695Z" fill="#78787A"/>
<path d="M110.069 54.6655H109.712C109.431 54.6655 109.234 54.5896 109.112 54.4452C108.998 54.3009 108.937 54.0502 108.937 53.7007V52.8955H108.558V53.7007C108.558 54.0502 108.497 54.3009 108.383 54.4452C108.269 54.5896 108.064 54.6655 107.783 54.6655H107.418V52.8955H107.031V54.6655H105.967V53.6552C105.967 53.3133 105.732 52.9714 105.374 52.8043C105.093 52.6676 104.531 52.546 103.749 53.0474V51.2773H103.354V54.6655H102.313V53.5108C102.313 53.3893 102.298 53.2753 102.267 53.1842C102.237 53.0854 102.199 53.0094 102.146 52.9487C102.093 52.8879 102.032 52.8423 101.964 52.7967C101.895 52.7587 101.819 52.7283 101.743 52.7132C101.667 52.698 101.591 52.6904 101.5 52.6904H101.158C101.082 52.6904 101.006 52.698 100.938 52.7132C100.862 52.7283 100.794 52.7587 100.718 52.7967C100.649 52.8347 100.588 52.8879 100.535 52.9487C100.482 53.0094 100.444 53.0854 100.414 53.1842C100.383 53.2829 100.368 53.3893 100.368 53.5108V54.2325C100.368 54.3541 100.383 54.4604 100.414 54.5592C100.444 54.6579 100.482 54.7339 100.535 54.7947C100.581 54.8555 100.642 54.9086 100.718 54.9466C100.786 54.9846 100.862 55.015 100.938 55.0302C101.014 55.0454 101.09 55.053 101.181 55.053H107.775C107.904 55.053 108.026 55.0378 108.132 55.015C108.239 54.9922 108.345 54.9466 108.444 54.8935C108.542 54.8327 108.626 54.7567 108.694 54.6655C108.71 54.6503 108.717 54.6276 108.732 54.6048C108.74 54.6276 108.755 54.6428 108.763 54.6655C108.831 54.7567 108.915 54.8327 109.013 54.8935C109.112 54.9542 109.219 54.9922 109.325 55.015C109.424 55.0378 109.53 55.0454 109.644 55.0454H110.434V52.6752H110.047V54.658L110.069 54.6655ZM101.933 54.6655C101.606 54.6655 101.196 54.6655 101.189 54.6655C101.044 54.6655 100.938 54.6276 100.877 54.5516C100.809 54.4756 100.778 54.3465 100.778 54.1642V53.5868C100.778 53.4045 100.809 53.2753 100.877 53.1993C100.938 53.1234 101.037 53.0854 101.173 53.0854H101.515C101.66 53.0854 101.766 53.1234 101.834 53.1993C101.903 53.2753 101.933 53.4045 101.933 53.5868V54.6731V54.6655ZM105.587 54.6655H103.756V53.526C104.311 53.1082 104.835 52.9714 105.215 53.1538C105.466 53.2753 105.587 53.4956 105.587 53.6552V54.6655Z" fill="#78787A"/>
<path d="M101.523 52.1728C101.523 52.1728 101.561 52.226 101.599 52.2412C101.637 52.2564 101.682 52.264 101.735 52.264C101.788 52.264 101.834 52.2564 101.872 52.2412C101.91 52.226 101.933 52.2032 101.948 52.1728C101.963 52.1424 101.971 52.1196 101.978 52.0968C101.978 52.0741 101.978 52.0513 101.978 52.0285C101.978 52.0057 101.978 51.9829 101.978 51.9601C101.978 51.9373 101.963 51.9145 101.948 51.8841C101.933 51.8537 101.91 51.831 101.872 51.8158C101.834 51.8006 101.796 51.793 101.735 51.793C101.675 51.793 101.637 51.8006 101.599 51.8158C101.561 51.831 101.538 51.8537 101.523 51.8841C101.507 51.9145 101.5 51.9373 101.492 51.9601C101.492 51.9829 101.492 52.0057 101.492 52.0285C101.492 52.0513 101.492 52.0741 101.492 52.0968C101.492 52.1196 101.507 52.1424 101.523 52.1728Z" fill="#78787A"/>
<path d="M100.771 52.1728C100.771 52.1728 100.809 52.226 100.847 52.2412C100.885 52.2564 100.93 52.264 100.983 52.264C101.037 52.264 101.082 52.2564 101.12 52.2412C101.158 52.226 101.181 52.2032 101.196 52.1728C101.211 52.1424 101.219 52.1196 101.226 52.0968C101.226 52.0741 101.226 52.0513 101.226 52.0285C101.226 52.0057 101.226 51.9829 101.226 51.9601C101.226 51.9373 101.211 51.9145 101.196 51.8841C101.181 51.8537 101.158 51.831 101.12 51.8158C101.082 51.8006 101.044 51.793 100.983 51.793C100.923 51.793 100.885 51.8006 100.847 51.8158C100.809 51.831 100.786 51.8537 100.771 51.8841C100.755 51.9145 100.748 51.9373 100.74 51.9601C100.74 51.9829 100.74 52.0057 100.74 52.0285C100.74 52.0513 100.74 52.0741 100.74 52.0968C100.74 52.1196 100.755 52.1424 100.771 52.1728Z" fill="#78787A"/>
<path d="M114.468 52.1728C114.468 52.1728 114.506 52.226 114.544 52.2412C114.582 52.2564 114.627 52.264 114.681 52.264C114.734 52.264 114.779 52.2564 114.817 52.2412C114.855 52.226 114.878 52.2032 114.893 52.1728C114.908 52.1424 114.916 52.1196 114.924 52.0968C114.924 52.0741 114.924 52.0513 114.924 52.0285C114.924 52.0057 114.924 51.9829 114.924 51.9601C114.924 51.9373 114.908 51.9145 114.893 51.8841C114.878 51.8537 114.855 51.831 114.817 51.8158C114.779 51.8006 114.741 51.793 114.681 51.793C114.62 51.793 114.582 51.8006 114.544 51.8158C114.506 51.831 114.483 51.8537 114.468 51.8841C114.453 51.9145 114.445 51.9373 114.438 51.9601C114.438 51.9829 114.438 52.0057 114.438 52.0285C114.438 52.0513 114.438 52.0741 114.438 52.0968C114.438 52.1196 114.453 52.1424 114.468 52.1728Z" fill="#78787A"/>
<path d="M113.708 52.1728C113.708 52.1728 113.746 52.226 113.784 52.2412C113.822 52.2564 113.868 52.264 113.921 52.264C113.974 52.264 114.02 52.2564 114.058 52.2412C114.096 52.226 114.118 52.2032 114.134 52.1728C114.149 52.1424 114.156 52.1196 114.164 52.0968C114.164 52.0741 114.164 52.0513 114.164 52.0285C114.164 52.0057 114.164 51.9829 114.164 51.9601C114.164 51.9373 114.149 51.9145 114.134 51.8841C114.118 51.8537 114.096 51.831 114.058 51.8158C114.02 51.8006 113.974 51.793 113.921 51.793C113.868 51.793 113.822 51.8006 113.784 51.8158C113.746 51.831 113.723 51.8537 113.708 51.8841C113.693 51.9145 113.685 51.9373 113.678 51.9601C113.678 51.9829 113.678 52.0057 113.678 52.0285C113.678 52.0513 113.678 52.0741 113.678 52.0968C113.678 52.1196 113.693 52.1424 113.708 52.1728Z" fill="#78787A"/>
<path d="M122.854 55.0538V53.5041C122.854 53.3825 122.839 53.2762 122.808 53.1774C122.778 53.0862 122.74 53.0027 122.687 52.9419C122.634 52.8811 122.573 52.8355 122.505 52.7899C122.436 52.752 122.36 52.7216 122.284 52.7064C122.208 52.6912 122.132 52.6836 122.041 52.6836H121.699C121.623 52.6836 121.547 52.6912 121.479 52.7064C121.403 52.7216 121.335 52.752 121.259 52.7899C121.19 52.8279 121.129 52.8811 121.076 52.9419C121.023 53.0027 120.985 53.0786 120.955 53.1774C120.924 53.2762 120.909 53.3825 120.909 53.5041V54.2258C120.909 54.3473 120.924 54.4613 120.955 54.5524C120.985 54.6512 121.023 54.7272 121.076 54.7879C121.129 54.8487 121.19 54.9019 121.259 54.9399C121.327 54.9778 121.403 55.0082 121.479 55.0234C121.555 55.0386 121.631 55.0462 121.722 55.0462H122.451C122.451 55.6008 122.132 55.654 121.866 55.654H121.456V56.0794H121.866C122.915 56.0794 122.854 55.2058 122.854 55.0462M122.467 53.7851V54.6588H121.722C121.578 54.6588 121.471 54.6208 121.403 54.5372C121.335 54.4613 121.304 54.3321 121.304 54.1498V53.5724C121.304 53.3901 121.335 53.261 121.403 53.185C121.471 53.109 121.57 53.071 121.699 53.071C121.699 53.071 122.034 53.071 122.041 53.071C122.185 53.071 122.292 53.109 122.36 53.185C122.429 53.261 122.459 53.3901 122.459 53.5724V53.7851H122.467Z" fill="#78787A"/>
<path d="M118.578 51.2691V54.6573H117.643V53.5026C117.643 53.381 117.628 53.2747 117.598 53.1759C117.567 53.0772 117.529 53.0012 117.476 52.9404C117.423 52.8796 117.362 52.8341 117.294 52.7885C117.225 52.7505 117.149 52.7201 117.073 52.7049C116.997 52.6897 116.921 52.6821 116.83 52.6821C116.83 52.6821 116.496 52.6821 116.488 52.6821C116.412 52.6821 116.336 52.6897 116.268 52.7049C116.192 52.7201 116.124 52.7505 116.048 52.7885C115.979 52.8265 115.919 52.8796 115.865 52.9404C115.812 53.0012 115.774 53.0772 115.744 53.1759C115.714 53.2671 115.706 53.3658 115.698 53.4798C115.698 53.4798 115.698 53.495 115.698 53.5026V53.7457C115.698 54.0647 115.638 54.3002 115.524 54.437C115.41 54.5813 115.212 54.6573 114.923 54.6573H114.468V52.6745H114.08V54.6573H113.07V53.5026C113.07 53.381 113.055 53.2747 113.024 53.1759C112.994 53.0772 112.956 53.0012 112.903 52.9404C112.849 52.8796 112.789 52.8341 112.72 52.7885C112.652 52.7505 112.576 52.7201 112.5 52.7049C112.424 52.6897 112.348 52.6821 112.257 52.6821C112.257 52.6821 111.923 52.6821 111.915 52.6821C111.839 52.6821 111.763 52.6897 111.695 52.7049C111.619 52.7201 111.55 52.7505 111.474 52.7885C111.406 52.8265 111.345 52.8796 111.292 52.9404C111.239 53.0012 111.201 53.0772 111.171 53.1759C111.14 53.2747 111.125 53.381 111.125 53.5026V54.2243C111.125 54.3458 111.14 54.4522 111.171 54.5509C111.201 54.6497 111.239 54.7257 111.292 54.7864C111.345 54.8472 111.398 54.9004 111.474 54.9384C111.543 54.9764 111.619 55.0068 111.695 55.0219C111.771 55.0371 111.847 55.0447 111.938 55.0447H112.667C112.667 55.5993 112.348 55.6449 112.082 55.6449H111.664V56.0703H112.082C113.131 56.0703 113.07 55.1967 113.07 55.0371H114.923C115.053 55.0371 115.174 55.0219 115.28 54.9992C115.394 54.9764 115.493 54.9308 115.592 54.8776C115.676 54.8244 115.744 54.7637 115.805 54.6877C115.82 54.7181 115.835 54.7561 115.85 54.7788C115.903 54.8396 115.964 54.8928 116.033 54.9308C116.101 54.9688 116.177 54.9992 116.253 55.0143C116.329 55.0295 116.405 55.0371 116.496 55.0371H118.942V51.2539H118.555L118.578 51.2691ZM112.705 53.7913V54.6649H111.961C111.816 54.6649 111.71 54.6269 111.649 54.5433C111.581 54.4674 111.55 54.3382 111.55 54.1559V53.5785C111.55 53.3962 111.581 53.2671 111.649 53.1911C111.71 53.1151 111.809 53.0772 111.945 53.0772H112.287C112.432 53.0772 112.538 53.1151 112.606 53.1911C112.675 53.2671 112.705 53.3962 112.705 53.5785V53.7913ZM117.263 54.6649H116.519C116.374 54.6649 116.268 54.6269 116.2 54.5433C116.131 54.4674 116.101 54.3382 116.101 54.1559V53.5785C116.101 53.3962 116.131 53.2671 116.2 53.1911C116.268 53.1151 116.367 53.0772 116.496 53.0772H116.838C116.982 53.0772 117.089 53.1151 117.157 53.1911C117.225 53.2671 117.256 53.3962 117.256 53.5785V54.6649H117.263Z" fill="#78787A"/>
<path d="M72.7152 0.5H70.9375V59.7479H72.7152V0.5Z" fill="#007496"/>
<path d="M2.72537 27.7966C3.3787 26.9078 4.17637 26.3 5.11838 25.9582C6.99481 28.6551 8.20271 31.4279 8.73449 34.2844C8.53697 35.2795 8.26348 36.1532 7.91403 36.9205C6.7821 37.5054 5.66536 37.7941 4.56381 37.7941C3.46227 37.7941 2.45948 37.4598 1.60104 36.7989C0.742592 36.1304 0.30957 35.3023 0.30957 34.3147C0.30957 33.3271 0.621043 32.3244 1.25158 31.3064C1.88212 30.296 2.6646 29.4527 3.60661 28.7842L2.72537 27.7966ZM4.76893 23.0638L2.77855 24.6287L1.05406 22.532C1.70739 21.8407 2.43669 21.2633 3.23436 20.8075C3.71297 21.4077 4.13079 21.9394 4.48784 22.4029C5.30071 21.6584 5.98443 21.1266 6.539 20.8075L8.21031 22.9574L6.08318 24.6287L4.77652 23.0638H4.76893ZM2.26956 33.7222C2.76336 34.535 3.72816 34.9453 5.16396 34.9453C5.64257 34.9453 6.11357 34.8389 6.57698 34.6262C6.09838 32.9245 5.46784 31.4507 4.68536 30.2124C3.40909 31.2608 2.60382 32.4307 2.26956 33.7222ZM16.6808 34.2844C17.3341 34.725 18.1698 34.9529 19.1802 34.9529C19.2713 34.9529 19.3093 34.9985 19.3093 35.082V37.665C19.3093 37.7561 19.2637 37.7941 19.1802 37.7941C18.0103 37.7941 17.1594 37.475 16.6276 36.8369C16.3238 38.06 15.6552 39.2755 14.6069 40.491C13.5585 41.7065 12.2822 42.7549 10.778 43.6437C9.96518 43.1803 9.25867 42.4586 8.68131 41.4634C11.8188 39.8301 13.8472 37.9992 14.7664 35.9557C14.379 33.9729 13.6041 32.0737 12.4569 30.2656C13.2166 29.6123 14.1131 29.1641 15.1386 28.9362C15.9515 30.653 16.4681 32.4383 16.6808 34.2768V34.2844ZM31.7302 34.5199C32.2468 34.8009 33.0216 34.9453 34.07 34.9453C34.1612 34.9453 34.2068 34.9909 34.2068 35.0744V37.6574C34.2068 37.7485 34.1612 37.7865 34.07 37.7865C33.0065 37.7865 32.148 37.3535 31.4947 36.4798C31.1224 37.0116 30.7274 37.4446 30.2944 37.7865H19.1802C19.089 37.7865 19.0434 37.7409 19.0434 37.6574V35.0744C19.0434 34.9833 19.089 34.9453 19.1802 34.9453H29.3372V34.7326C29.3372 32.18 27.4759 30.9037 23.7535 30.9037C22.9026 30.9037 22.0974 30.9645 21.3377 31.0861C20.8059 30.6758 20.3881 30.0225 20.0918 29.1185C21.0642 27.7738 22.2949 26.3228 23.7839 24.7731C25.2729 23.2233 26.7163 21.8863 28.1217 20.7695C29.1852 20.8759 30.0741 21.4077 30.7806 22.3649C28.0001 24.2109 25.4096 26.2849 23.0166 28.5867C23.4952 28.4272 24.1409 28.3512 24.9614 28.3512C26.9442 28.3512 28.5699 28.883 29.8234 29.9465C31.0844 31.0101 31.7226 32.5371 31.7378 34.5199H31.7302ZM34.07 37.7941C33.9789 37.7941 33.9333 37.7485 33.9333 37.665V35.1124C33.9333 35.0212 33.9789 34.9833 34.07 34.9833H37.6329C36.2351 34.2768 35.5362 33.4031 35.5362 32.3775C35.5362 31.2456 36.0072 30.0985 36.9568 28.9362C37.9064 27.7738 39.008 27.1965 40.2691 27.1965C41.4238 27.1965 42.4038 27.6751 43.2242 28.6323C44.0371 29.5895 44.4473 30.8278 44.4473 32.3547C44.4473 34.0716 43.8852 35.8873 42.7684 37.8017H34.0776L34.07 37.7941ZM37.4962 32.2636C38.3091 33.4715 39.5777 34.3071 41.3022 34.7857C41.6365 34.0413 41.8036 33.2208 41.8036 32.3168C41.8036 31.5875 41.6289 30.9873 41.287 30.5087C40.9452 30.0301 40.497 29.7946 39.9424 29.7946C39.3878 29.7946 38.9168 30.0301 38.4534 30.5087C37.99 30.9873 37.6709 31.5723 37.4962 32.2636ZM39.6765 25.1073L37.9748 23.0106C38.6129 22.3193 39.3346 21.7495 40.1323 21.3089L41.8036 23.436L39.6765 25.1149V25.1073Z" fill="#007496"/>
</svg>
