<svg width="189" height="100" viewBox="0 0 189 100" fill="none" xmlns="http://www.w3.org/2000/svg">
<g clip-path="url(#clip0_1531_11821)">
<path d="M92.9952 51.5632C92.2737 51.3181 91.6444 50.858 91.192 50.2447C90.6901 49.4744 90.424 48.5742 90.4268 47.6548V45.645L95.725 40.2038V42.2441L93.9485 44.0689C93.9485 47.6101 95.0005 48.3344 97.5892 48.3344H126.561V46.3349C126.307 44.7961 125.759 43.3204 124.949 41.9878L128.619 38.4172C128.619 38.4172 129.165 39.2256 129.402 39.6477C130.413 41.4623 130.236 43.5179 130.236 45.5136V47.0567L124.834 51.9127H96.6826C96.3523 51.9127 96.0198 51.9216 95.6882 51.9216C94.7765 51.96 93.8652 51.8387 92.9952 51.5632ZM135.439 51.1717C134.913 50.7862 134.492 50.2773 134.21 49.6899C133.928 49.1026 133.794 48.4549 133.822 47.8039V26.7567L137.173 23.3239V44.1569C137.145 45.02 137.344 45.8754 137.751 46.6372C138.836 48.4773 141.043 48.4773 142.912 48.4773C142.851 48.1906 142.82 47.8982 142.818 47.605V39.4029L146.167 35.9599V44.1645C146.172 44.7876 146.314 45.402 146.584 45.9637C146.854 46.5254 147.245 47.0205 147.728 47.4137C148.407 47.9971 149.245 48.3647 150.134 48.4695C150.073 48.1826 150.041 47.8906 150.036 47.5974V41.1091L153.389 37.6763V44.1632C153.391 44.7863 153.532 45.401 153.801 45.9629C154.071 46.5248 154.461 47.0199 154.945 47.4124C155.619 47.9859 156.444 48.3526 157.321 48.4683C157.282 48.1792 157.26 47.8879 157.256 47.5961V39.3979L160.603 35.9548V44.1441C160.575 45.0079 160.776 45.8638 161.186 46.6245C162.268 48.4646 164.455 48.4646 166.321 48.4646C166.281 48.1819 166.263 47.8967 166.267 47.6114V42.1549L169.614 38.722V44.1441C169.587 45.0076 169.787 45.8633 170.195 46.6245C171.278 48.4646 173.479 48.4646 175.348 48.4646C175.283 48.1779 175.25 47.8849 175.249 47.591V41.8169L181.625 35.1209H184.159C188.43 35.1209 188.956 38.2807 188.991 39.1504C188.991 39.2346 188.982 44.9143 188.982 44.9143L182.036 51.9088H181.252C178.957 51.9088 176.097 51.1055 175.393 48.7438C175.299 48.879 175.206 49.0166 175.18 49.0472C174.819 49.4833 174.423 49.8954 174.033 50.297C173.643 50.6987 173.236 51.1004 172.814 51.4728C172.74 51.5378 172.407 51.8896 172.242 51.8896H170.912C169.851 51.924 168.8 51.6632 167.878 51.1361C167.485 50.8645 167.15 50.5163 166.894 50.1123C166.638 49.7082 166.466 49.2566 166.389 48.7846C166.306 48.9121 166.226 49.018 166.202 49.0499C165.839 49.486 165.444 49.8978 165.054 50.2995C164.664 50.7012 164.258 51.1029 163.835 51.4753C163.76 51.5403 163.428 51.8923 163.265 51.8923H161.935C160.873 51.9273 159.822 51.6663 158.9 51.1386C158.507 50.8662 158.173 50.5177 157.917 50.1138C157.662 49.7099 157.49 49.2587 157.412 48.7871L157.228 49.0523C156.861 49.4885 156.473 49.9003 156.08 50.302C155.688 50.7037 155.282 51.1055 154.861 51.4816C154.782 51.5416 154.448 51.8987 154.285 51.8987C153.307 51.8445 152.375 51.4677 151.634 50.8274C150.968 50.2845 150.482 49.5527 150.241 48.7284C150.157 48.8304 150.082 48.9383 150.013 49.0511C149.65 49.4872 149.248 49.8991 148.866 50.3008C148.483 50.7025 148.069 51.1042 147.646 51.4804C147.567 51.5403 147.236 51.8974 147.071 51.8974C146.094 51.8402 145.162 51.4638 144.42 50.8261C143.751 50.2819 143.265 49.5459 143.028 48.717L142.762 49.074C142.4 49.5101 142.014 49.9221 141.615 50.3238C141.216 50.7255 140.815 51.1272 140.394 51.4995C140.317 51.5646 139.984 51.9164 139.819 51.9164H138.49H138.302C137.298 51.9189 136.311 51.6583 135.44 51.1604L135.439 51.1717ZM178.597 44.1581C178.627 45.4333 178.442 48.1266 181.604 48.1266H185.646V44.0001C185.646 41.034 185.1 38.4936 183.424 38.4936H178.601L178.597 44.1581ZM105.116 35.7902C105.002 35.6959 108.36 32.4671 108.36 32.4671C108.36 32.4671 111.609 33.9911 111.648 35.5519C112.127 34.9411 114.816 32.3639 114.816 32.3639C114.816 32.3639 118.11 33.8812 118.11 35.4587C118.11 37.0361 115.287 38.7819 115.287 38.7819L111.636 35.7214C111.467 37.2517 108.831 38.9094 108.831 38.9094L105.116 35.7902ZM153.001 33.3992C152.892 33.3049 156.092 30.2343 156.092 30.2343C156.092 30.2343 159.23 31.7122 159.23 33.2106C159.23 34.7089 156.542 36.3743 156.542 36.3743L153.001 33.3992ZM165.009 33.3992C164.901 33.3049 168.094 30.2291 168.094 30.2291C168.094 30.2291 171.24 31.7173 171.24 33.2054C171.24 34.6936 168.547 36.3743 168.547 36.3743L165.009 33.3992ZM145.039 33.3992C144.93 33.3049 148.123 30.2291 148.123 30.2291C148.123 30.2291 151.263 31.7173 151.263 33.2054C151.263 34.6936 148.575 36.3743 148.575 36.3743L145.039 33.3992ZM148.183 27.3548C148.074 27.2604 151.274 24.1898 151.274 24.1898C151.274 24.1898 154.414 25.678 154.414 27.1661C154.414 28.6543 151.724 30.3311 151.724 30.3311L148.183 27.3548ZM129.256 19.9447L133.225 16.0157L133.513 16.1101L139.226 18.0229L141.88 15.498V16.7631L137.812 20.7162L137.548 20.6319L131.709 18.7268L129.253 21.1816L129.256 19.9447Z" fill="white"/>
<path d="M141.595 64.1647C140.983 63.7657 140.261 63.5698 139.531 63.6049H136.305C136.168 63.6285 136.026 63.6196 135.893 63.5788C135.76 63.538 135.638 63.4665 135.537 63.3701C135.436 63.2736 135.359 63.1548 135.313 63.0233C135.266 62.8918 135.251 62.7512 135.268 62.6128V62.206C135.244 61.9517 135.318 61.6977 135.476 61.497C135.658 61.3437 135.893 61.2678 136.13 61.2853H141.929V59.2003H136.476C136.013 59.1952 135.55 59.2418 135.097 59.3393C134.719 59.4268 134.368 59.6074 134.077 59.8647C133.788 60.1355 133.574 60.4776 133.458 60.8568C133.321 61.3273 133.258 61.8158 133.269 62.3054V62.762C133.228 63.1564 133.283 63.5547 133.428 63.9237C133.573 64.2926 133.805 64.6215 134.103 64.8826C134.753 65.2997 135.518 65.501 136.29 65.4577H139.471C139.722 65.4379 139.97 65.5135 140.166 65.6694C140.247 65.7481 140.309 65.8438 140.347 65.9495C140.386 66.0552 140.4 66.1682 140.39 66.2802V67.0811C140.39 67.6919 140.124 67.9444 139.471 67.9444H133.516V70.014H139.533C139.941 70.0517 140.353 69.9969 140.738 69.8536C141.122 69.7104 141.47 69.4823 141.754 69.1864C142.243 68.4986 142.477 67.6626 142.418 66.8209V66.1629C142.453 65.788 142.397 65.4102 142.253 65.0621C142.11 64.714 141.884 64.406 141.595 64.1647Z" fill="white"/>
<path d="M162.426 59.1939H157.963V61.3707H162.426C163.25 61.3707 163.616 61.7954 163.616 62.7645V63.23H160.059C159.704 63.178 159.342 63.2081 159 63.3179C158.658 63.4276 158.346 63.6142 158.088 63.8632C157.829 64.1122 157.631 64.4171 157.509 64.7545C157.386 65.0919 157.343 65.4528 157.381 65.8097V67.2991C157.331 68.0308 157.568 68.7533 158.041 69.3139C158.309 69.5643 158.627 69.7562 158.974 69.8776C159.321 69.999 159.689 70.0472 160.055 70.0191H165.636V62.7033C165.642 60.4079 164.531 59.1939 162.426 59.1939ZM163.616 65.1466V67.9444H160.173C159.59 67.9444 159.354 67.6893 159.354 67.0811V66.0839C159.354 65.4463 159.593 65.1823 160.173 65.1823L163.616 65.1466Z" fill="white"/>
<path d="M168.241 60.9155H169.66L170.191 56.9623H167.71L168.241 60.9155Z" fill="white"/>
<path d="M177.125 59.1391H172.662V61.3222H177.125C177.949 61.3222 178.315 61.7533 178.315 62.725V63.1904H174.744C174.39 63.1376 174.027 63.1669 173.686 63.276C173.344 63.3851 173.032 63.5711 172.773 63.8198C172.514 64.0685 172.316 64.3731 172.194 64.7103C172.071 65.0476 172.028 65.4084 172.067 65.765V67.2545C172.018 67.9861 172.254 68.7082 172.726 69.2693C172.994 69.5201 173.312 69.7122 173.659 69.8336C174.006 69.955 174.374 70.003 174.741 69.9745H180.321V62.6612C180.341 60.3646 179.215 59.1391 177.125 59.1391ZM178.315 65.0917V67.887H174.872C174.289 67.887 174.048 67.6319 174.048 67.0237V65.9882C174.048 65.3506 174.287 65.0956 174.872 65.0956L178.315 65.0917Z" fill="white"/>
<path d="M188.995 61.1233V59.1939H186.49V55.7764H184.412V66.446C184.412 69.4223 186.083 70.0166 187.486 70.0166H188.974V67.9826H187.646C187.115 67.9826 186.509 67.8143 186.509 66.4945V61.1233H188.995Z" fill="white"/>
<path d="M114.403 59.1684H111.868C110.983 59.1799 110.138 59.5418 109.518 60.1749C108.899 60.8081 108.556 61.6608 108.564 62.5464V66.6335C108.555 67.5199 108.897 68.374 109.517 69.0083C110.136 69.6425 110.982 70.0051 111.868 70.0166H114.403C115.29 70.0051 116.136 69.6425 116.755 69.0083C117.374 68.374 117.717 67.5199 117.707 66.6335V62.5464C117.716 61.6608 117.372 60.8081 116.753 60.1749C116.134 59.5418 115.289 59.1799 114.403 59.1684ZM115.679 62.5464V66.6335C115.681 66.8029 115.649 66.971 115.586 67.1283C115.523 67.2856 115.43 67.4289 115.311 67.55C115.193 67.6712 115.052 67.7678 114.896 67.8344C114.74 67.9009 114.573 67.9362 114.403 67.938H111.868C111.526 67.9339 111.2 67.7943 110.961 67.5497C110.721 67.3051 110.589 66.9755 110.593 66.6335V62.5464C110.591 62.3773 110.622 62.2094 110.685 62.0524C110.749 61.8954 110.842 61.7524 110.961 61.6317C111.079 61.5109 111.22 61.4148 111.376 61.3488C111.532 61.2828 111.699 61.2482 111.868 61.247H114.403C114.572 61.2482 114.74 61.2828 114.896 61.3488C115.051 61.4148 115.192 61.5109 115.311 61.6317C115.429 61.7524 115.523 61.8954 115.586 62.0524C115.649 62.2094 115.681 62.3773 115.679 62.5464Z" fill="white"/>
<path d="M129.529 63.6393C129.587 63.0805 129.527 62.5158 129.355 61.9811C129.183 61.4465 128.901 60.9535 128.528 60.5337C128.154 60.1139 127.698 59.7764 127.187 59.5427C126.676 59.3089 126.122 59.1841 125.56 59.1761H121.097V69.9911H123.164V61.2636H125.574C126.084 61.2965 126.564 61.5179 126.919 61.8846C127.275 62.2513 127.481 62.7372 127.499 63.2478V69.9987H129.483V63.6393H129.529Z" fill="white"/>
<path d="M105.829 63.652C105.926 62.6302 105.634 61.6093 105.011 60.793C104.389 59.9766 103.482 59.4248 102.471 59.2475L102.437 59.2029H100.278L100.303 59.2322C99.332 59.3481 98.4379 59.8186 97.7923 60.5533C97.4273 60.1296 96.9761 59.7887 96.4687 59.5534C95.9614 59.3181 95.4097 59.1938 94.8504 59.1888H90.4268V69.9974H92.4556V61.2623H94.8504C95.3578 61.2762 95.8405 61.4839 96.1994 61.8427C96.5583 62.2016 96.766 62.6844 96.7798 63.1917V69.9974H98.8087V63.1917C98.8087 62.6809 99.0112 62.1909 99.372 61.8292C99.7327 61.4675 100.222 61.2637 100.733 61.2623H101.874C102.384 61.2964 102.862 61.5181 103.218 61.8846C103.573 62.2511 103.78 62.7363 103.799 63.2465V69.9974H105.807L105.829 63.652Z" fill="white"/>
<path d="M154.411 63.6571C154.469 63.0984 154.41 62.5337 154.237 61.999C154.065 61.4643 153.783 60.9714 153.41 60.5516C153.037 60.1318 152.58 59.7942 152.069 59.5605C151.558 59.3268 151.004 59.2019 150.443 59.1939H148.033V55.7764H146.029V69.9974H148.058V61.2623H150.468C150.978 61.2953 151.457 61.5166 151.813 61.8833C152.169 62.2501 152.375 62.736 152.393 63.2465V69.9974H154.411V63.6571Z" fill="white"/>
<path d="M92.0783 81.8964L91.6371 81.7829C91.469 81.7409 91.3034 81.6893 91.1411 81.6286C91.0649 81.6003 90.9991 81.5496 90.9523 81.4832C90.9181 81.418 90.901 81.3451 90.9026 81.2715V81.1924C90.9046 81.1333 90.92 81.0754 90.9476 81.023C90.9752 80.9707 91.0143 80.9253 91.062 80.8902C91.2064 80.7886 91.3821 80.7411 91.5581 80.7563C91.746 80.7441 91.9326 80.7948 92.0885 80.9004C92.1455 80.9491 92.1907 81.0101 92.2208 81.0788C92.2508 81.1475 92.2649 81.2221 92.262 81.297V81.3416H92.7134V81.297C92.7153 81.1737 92.695 81.051 92.6534 80.9349C92.613 80.8328 92.5522 80.7399 92.4749 80.662C92.4008 80.5895 92.3145 80.5308 92.2199 80.4885C92.1205 80.4421 92.0154 80.4086 91.9075 80.3891C91.7929 80.3691 91.6769 80.3593 91.5606 80.3597C91.2824 80.3483 91.008 80.4266 90.7776 80.5829C90.674 80.647 90.5881 80.736 90.5278 80.8418C90.4674 80.9476 90.4345 81.0668 90.432 81.1886V81.2281C90.4238 81.4149 90.4723 81.5999 90.571 81.7586C90.6918 81.9208 90.8687 82.0322 91.0671 82.071C91.1015 82.071 91.2265 82.1157 91.5083 82.1845C91.6771 82.2265 91.8428 82.2797 92.0044 82.3439C92.0798 82.3702 92.1456 82.4186 92.1931 82.4829C92.2292 82.5516 92.2464 82.6286 92.2428 82.7061V82.8056C92.2407 82.864 92.2253 82.9211 92.1976 82.9726C92.17 83.0241 92.1309 83.0686 92.0834 83.1027C91.9469 83.2016 91.7798 83.2491 91.6116 83.2366C91.422 83.2495 91.2335 83.1988 91.076 83.0925C91.0224 83.0434 90.9809 82.9824 90.955 82.9144C90.9291 82.8465 90.9195 82.7734 90.9268 82.701V82.5556H90.4282V82.6997C90.4284 82.8233 90.4504 82.946 90.4933 83.0619C90.5339 83.1624 90.5947 83.2535 90.6718 83.3297C90.7469 83.4022 90.833 83.4625 90.9268 83.5082C91.0265 83.5529 91.1315 83.5846 91.2393 83.6026C91.3555 83.6226 91.4733 83.6324 91.5912 83.6319C91.8806 83.6508 92.1682 83.5742 92.4099 83.4138C92.5079 83.347 92.5878 83.2569 92.6425 83.1517C92.6972 83.0464 92.7251 82.9293 92.7236 82.8107V82.7367C92.7292 82.5518 92.6809 82.3693 92.5846 82.2113C92.4585 82.0483 92.277 81.9372 92.0745 81.8989L92.0783 81.8964Z" fill="white"/>
<path d="M98.1942 81.158C98.093 81.1793 97.9958 81.2163 97.906 81.2677C97.8127 81.3193 97.7304 81.3886 97.6637 81.4717C97.5891 81.564 97.5336 81.6702 97.5005 81.7841C97.4588 81.9239 97.4386 82.0693 97.4406 82.2151V82.488C97.4393 82.6339 97.4595 82.7791 97.5005 82.9191C97.5336 83.033 97.5891 83.1392 97.6637 83.2315C97.7301 83.3135 97.8109 83.3826 97.9022 83.4355C97.9938 83.4858 98.0922 83.5227 98.1942 83.5452C98.2982 83.5697 98.4049 83.5813 98.5117 83.5796H99.5038V81.0981H98.5117C98.4038 81.1048 98.2971 81.1249 98.1942 81.158ZM97.8665 82.3134C97.8474 82.0974 97.9037 81.8816 98.0259 81.7025C98.0895 81.637 98.1673 81.5869 98.2533 81.5559C98.3392 81.525 98.4311 81.5141 98.5219 81.524H99.1022V83.1818H98.5117C98.4209 83.1917 98.329 83.1808 98.2431 83.1498C98.1571 83.1189 98.0793 83.0688 98.0157 83.0032C97.8939 82.8226 97.8377 82.6057 97.8563 82.3886L97.8665 82.3134Z" fill="white"/>
<path d="M100.74 80.2156H100.312V83.5783H100.74V80.2156Z" fill="white"/>
<path d="M101.955 80.2156H101.527V83.5783H101.955V80.2156Z" fill="white"/>
<path d="M103.757 81.5788C103.709 81.5371 103.672 81.4851 103.648 81.4267C103.624 81.3683 103.614 81.3052 103.618 81.2422V81.1682C103.617 81.111 103.63 81.0544 103.656 81.0034C103.682 80.9525 103.72 80.9088 103.767 80.8762C103.896 80.7879 104.052 80.7457 104.208 80.7563C104.365 80.7474 104.521 80.787 104.655 80.8698C104.701 80.9041 104.738 80.949 104.763 81.0007C104.788 81.0524 104.8 81.1095 104.799 81.1669V81.3455H105.223V81.1644C105.228 81.1067 105.228 81.0487 105.223 80.991C105.205 80.9182 105.176 80.8483 105.139 80.7831C105.095 80.7031 105.037 80.6325 104.966 80.5752C104.878 80.5013 104.775 80.4486 104.663 80.4209C104.521 80.3747 104.372 80.3527 104.222 80.3559C104.071 80.3527 103.92 80.3746 103.776 80.4209C103.666 80.4534 103.563 80.5076 103.474 80.5803C103.404 80.6378 103.347 80.7084 103.305 80.7882C103.234 80.9027 103.199 81.0361 103.206 81.1707V81.26C103.201 81.313 103.201 81.3664 103.206 81.4194C103.216 81.4789 103.233 81.5371 103.256 81.5929C103.284 81.6637 103.322 81.7303 103.369 81.7905C103.406 81.8379 103.449 81.8807 103.497 81.918C103.395 81.9938 103.313 82.0937 103.26 82.2088C103.206 82.3239 103.182 82.4505 103.189 82.5773V82.7265C103.189 82.8082 103.199 82.8896 103.219 82.9688C103.242 83.0522 103.279 83.1311 103.328 83.2021C103.381 83.2798 103.448 83.3468 103.526 83.3998C103.617 83.4598 103.718 83.505 103.823 83.5337C103.954 83.5695 104.089 83.5862 104.225 83.5834H105.217V82.0953H105.574V81.6936H104.206C104.048 81.7099 103.889 81.6726 103.756 81.5878L103.757 81.5788ZM104.229 83.1805C104.064 83.1928 103.902 83.1432 103.772 83.0415C103.722 83.0013 103.682 82.9499 103.655 82.8915C103.628 82.833 103.615 82.7691 103.618 82.7048V82.5709C103.616 82.5086 103.626 82.4465 103.649 82.3886C103.673 82.3306 103.707 82.2781 103.752 82.2343C103.8 82.1889 103.857 82.1537 103.919 82.1307C103.981 82.1077 104.048 82.0974 104.114 82.1004H104.811V83.1818L104.229 83.1805Z" fill="white"/>
<path d="M108.358 82.9101L107.465 80.4401L107.455 80.4107H106.786V83.5758H107.247V81.0955L108.14 83.5465L108.15 83.5758H108.575L109.488 81.0815V83.5758H109.944V80.4133H109.272L108.358 82.9101Z" fill="white"/>
<path d="M112.539 81.4207C112.472 81.3394 112.389 81.2723 112.296 81.223C112.205 81.1709 112.107 81.1326 112.004 81.1096C111.797 81.0646 111.582 81.0646 111.374 81.1096C111.272 81.1335 111.174 81.1717 111.082 81.223C110.989 81.2741 110.906 81.3435 110.84 81.4271C110.768 81.5201 110.713 81.6261 110.681 81.7395C110.639 81.8792 110.618 82.0246 110.621 82.1705V82.5416C110.618 82.6875 110.639 82.8329 110.681 82.9726C110.714 83.0872 110.768 83.1948 110.84 83.2902C110.909 83.3711 110.991 83.44 111.082 83.4942C111.174 83.5447 111.273 83.5829 111.374 83.6077C111.594 83.6537 111.82 83.6537 112.039 83.6077C112.147 83.5785 112.251 83.5333 112.346 83.4738C112.45 83.4059 112.537 83.3151 112.601 83.2085C112.671 83.0906 112.718 82.9609 112.74 82.826V82.7724H112.301V82.8068C112.277 82.9402 112.204 83.0599 112.097 83.1435C111.977 83.2229 111.835 83.2613 111.691 83.2532C111.601 83.2616 111.51 83.2505 111.425 83.2206C111.34 83.1906 111.262 83.1426 111.197 83.0797C111.084 82.9191 111.028 82.7251 111.038 82.5289H112.749V82.182C112.751 82.0361 112.731 81.8908 112.689 81.751C112.661 81.632 112.61 81.5198 112.539 81.4207ZM112.331 82.1157H111.045C111.042 81.9358 111.102 81.7604 111.214 81.6196C111.28 81.5592 111.359 81.5137 111.445 81.4862C111.53 81.4587 111.621 81.4499 111.71 81.4602C111.799 81.4508 111.889 81.4601 111.975 81.4875C112.06 81.515 112.139 81.56 112.206 81.6196C112.303 81.7657 112.348 81.9407 112.333 82.1157H112.331Z" fill="white"/>
<path d="M115.029 81.1236H114.44C114.335 81.1219 114.23 81.1335 114.128 81.158C114.026 81.1805 113.928 81.2174 113.836 81.2677C113.742 81.3205 113.66 81.3911 113.594 81.4755C113.522 81.5709 113.468 81.6785 113.434 81.7931C113.39 81.9325 113.368 82.0779 113.369 82.2241V82.4893C113.369 82.6354 113.391 82.7808 113.434 82.9204C113.497 83.1324 113.642 83.3109 113.836 83.4164C113.926 83.4695 114.025 83.5067 114.128 83.5261C114.23 83.5506 114.335 83.5622 114.44 83.5605H115.432V80.194H115.026L115.029 81.1236ZM113.804 82.3133C113.784 82.0981 113.838 81.8824 113.958 81.7025C114.023 81.6378 114.1 81.5883 114.186 81.5574C114.272 81.5265 114.364 81.5151 114.454 81.524H115.029V83.1818H114.44C114.35 83.1909 114.258 83.1797 114.172 83.1488C114.086 83.1179 114.008 83.0681 113.944 83.0032C113.825 82.8218 113.77 82.605 113.79 82.3886L113.804 82.3133Z" fill="white"/>
<path d="M116.672 81.1223H116.245V83.5771H116.672V81.1223Z" fill="white"/>
<path d="M119.123 82.4523C119.142 82.6694 119.092 82.8869 118.979 83.0734C118.844 83.1853 118.675 83.2466 118.5 83.2466C118.325 83.2466 118.156 83.1853 118.021 83.0734C117.912 82.8859 117.864 82.6696 117.882 82.4536V81.1325H117.458V82.5454C117.456 82.6909 117.474 82.8358 117.511 82.9764C117.544 83.0895 117.594 83.1967 117.66 83.294C117.726 83.3747 117.805 83.4437 117.894 83.498C117.984 83.5502 118.081 83.5884 118.182 83.6115C118.288 83.632 118.396 83.6418 118.505 83.6408C118.611 83.6419 118.717 83.632 118.822 83.6115C118.923 83.5884 119.02 83.5502 119.11 83.498C119.199 83.4437 119.278 83.3747 119.344 83.294C119.411 83.1973 119.461 83.0899 119.493 82.9764C119.53 82.8358 119.548 82.6909 119.546 82.5454V81.1325H119.123V82.4523Z" fill="white"/>
<path d="M125.53 83.5783H127.353V83.1818H125.991V82.1794H127.276V81.7778H125.991V80.815H127.353V80.4133H125.53V83.5783Z" fill="white"/>
<path d="M134.314 81.4207C134.246 81.3405 134.164 81.2735 134.072 81.223C133.98 81.1708 133.881 81.1325 133.778 81.1096C133.571 81.0646 133.356 81.0646 133.148 81.1096C133.046 81.1326 132.947 81.1709 132.856 81.223C132.763 81.2741 132.68 81.3435 132.614 81.4271C132.541 81.5201 132.487 81.6261 132.455 81.7395C132.413 81.8792 132.392 82.0246 132.395 82.1705V82.5416C132.392 82.6875 132.413 82.8329 132.455 82.9726C132.488 83.0872 132.542 83.1948 132.614 83.2902C132.682 83.3722 132.764 83.4413 132.856 83.4942C132.948 83.5456 133.047 83.5838 133.15 83.6077C133.253 83.628 133.357 83.6378 133.462 83.637C133.58 83.6369 133.699 83.6237 133.814 83.5975C133.922 83.5683 134.026 83.5231 134.121 83.4636C134.224 83.398 134.311 83.311 134.376 83.2085C134.449 83.0886 134.498 82.9556 134.52 82.8171V82.7635H134.079V82.7979C134.055 82.9326 133.981 83.053 133.871 83.1346C133.751 83.2146 133.609 83.2532 133.465 83.2442C133.374 83.2542 133.283 83.2437 133.197 83.2137C133.111 83.1837 133.033 83.1349 132.969 83.0708C132.855 82.9102 132.799 82.7162 132.809 82.5199H134.526V82.1731C134.528 82.0272 134.507 81.8819 134.466 81.7421C134.439 81.6271 134.389 81.5189 134.318 81.4245L134.314 81.4207ZM134.11 82.1157H132.826C132.822 81.9358 132.882 81.7604 132.994 81.6196C133.057 81.5629 133.13 81.5196 133.21 81.4922C133.29 81.4648 133.375 81.4539 133.459 81.4602C133.549 81.4511 133.639 81.4605 133.724 81.488C133.81 81.5154 133.888 81.5602 133.956 81.6196C134.062 81.7619 134.117 81.9366 134.11 82.1144V82.1157Z" fill="white"/>
<path d="M138.813 81.4602C138.744 81.3793 138.662 81.3104 138.571 81.2562C138.479 81.206 138.381 81.1691 138.279 81.1465C138.175 81.1218 138.068 81.1102 137.961 81.1121H136.968V84.4748H137.392V83.5669H137.975C138.082 83.5687 138.189 83.5572 138.293 83.5324C138.395 83.5099 138.493 83.473 138.585 83.4228C138.677 83.3699 138.759 83.3008 138.827 83.2187C138.901 83.1259 138.956 83.0199 138.99 82.9063C139.031 82.7663 139.051 82.6211 139.05 82.4753V82.2024C139.051 82.0566 139.031 81.9113 138.99 81.7714C138.952 81.6566 138.891 81.5505 138.812 81.459L138.813 81.4602ZM138.609 82.3031V82.3771C138.628 82.5942 138.571 82.8111 138.45 82.9917C138.385 83.0567 138.308 83.1064 138.222 83.1373C138.136 83.1682 138.044 83.1795 137.953 83.1703H137.38V81.5125H137.959C138.049 81.504 138.141 81.5155 138.227 81.5464C138.312 81.5773 138.39 81.6267 138.455 81.6911C138.577 81.8732 138.632 82.0925 138.609 82.3108V82.3031Z" fill="white"/>
<path d="M141.879 81.1223H141.452V83.5771H141.879V81.1223Z" fill="white"/>
<path d="M144.045 82.2279L143.654 82.1336C143.45 82.0838 143.307 82.0494 143.223 82.0201C143.155 82.0067 143.093 81.9739 143.044 81.9257C143.014 81.8803 143 81.8258 143.005 81.7714C143.007 81.73 143.02 81.6899 143.042 81.655C143.064 81.6201 143.095 81.5917 143.132 81.5725C143.262 81.5092 143.405 81.4802 143.549 81.4883C144.109 81.4883 144.109 81.7433 144.109 81.825V81.8696H144.534V81.825C144.534 81.706 144.507 81.5886 144.455 81.4819C144.401 81.3863 144.325 81.3059 144.231 81.2486C144.134 81.1926 144.029 81.1521 143.919 81.1287C143.797 81.0996 143.673 81.0864 143.548 81.0892C143.306 81.0777 143.067 81.1381 142.859 81.2626C142.771 81.3106 142.697 81.3825 142.647 81.4702C142.597 81.5578 142.572 81.6578 142.576 81.7586C142.568 81.9056 142.61 82.0509 142.696 82.1705C142.795 82.2881 142.929 82.3701 143.079 82.4039L143.461 82.4983L143.897 82.6118C143.966 82.6287 144.029 82.663 144.081 82.7112C144.111 82.755 144.125 82.8076 144.12 82.8604V82.9101C144.12 82.9892 144.12 83.2379 143.624 83.2379C143.128 83.2379 143.074 82.9828 143.074 82.8949V82.7023H142.643V82.8961C142.642 83.015 142.669 83.1325 142.722 83.2391C142.775 83.3364 142.854 83.4171 142.95 83.4725C143.043 83.5339 143.148 83.5772 143.257 83.6C143.378 83.6268 143.501 83.64 143.624 83.6396C143.743 83.6411 143.861 83.6296 143.976 83.6051C144.081 83.5815 144.182 83.5411 144.273 83.4853C144.366 83.4312 144.442 83.3521 144.492 83.257C144.547 83.1537 144.574 83.0376 144.571 82.9203V82.8808C144.578 82.7324 144.536 82.5857 144.451 82.4638C144.347 82.3425 144.206 82.2602 144.049 82.2305L144.045 82.2279Z" fill="white"/>
<path d="M147.072 81.4156C147.004 81.3349 146.922 81.2675 146.829 81.2167C146.737 81.166 146.638 81.1279 146.536 81.1032C146.326 81.0584 146.109 81.0584 145.898 81.1032C145.797 81.1262 145.7 81.1645 145.61 81.2167C145.516 81.2663 145.433 81.336 145.368 81.4207C145.293 81.5129 145.238 81.6192 145.205 81.7331C145.163 81.8728 145.142 82.0182 145.145 82.1641V82.5352C145.142 82.6811 145.163 82.8265 145.205 82.9662C145.238 83.0818 145.293 83.1897 145.368 83.2838C145.436 83.3658 145.518 83.4349 145.61 83.4878C145.7 83.5392 145.797 83.5774 145.898 83.6013C146.003 83.6216 146.109 83.6314 146.216 83.6306C146.333 83.6305 146.449 83.6173 146.563 83.5911C146.673 83.5619 146.778 83.5168 146.875 83.4572C146.978 83.3917 147.065 83.3046 147.13 83.2021C147.201 83.0811 147.25 82.9486 147.274 82.8107V82.7571H146.833V82.7915C146.824 82.8586 146.801 82.9231 146.766 82.981C146.731 83.0389 146.684 83.089 146.629 83.1282C146.509 83.2076 146.366 83.246 146.222 83.2378C146.132 83.2467 146.041 83.2358 145.955 83.2058C145.869 83.1759 145.791 83.1276 145.726 83.0644C145.615 82.9032 145.56 82.7092 145.572 82.5135H147.291V82.1667C147.293 82.0208 147.273 81.8755 147.231 81.7357C147.197 81.6211 147.143 81.5135 147.072 81.4181V81.4156ZM146.864 82.1144H145.58C145.579 81.9349 145.638 81.7602 145.748 81.6183C145.815 81.5587 145.894 81.5137 145.979 81.4862C146.064 81.4588 146.155 81.4495 146.244 81.4589C146.333 81.4486 146.424 81.4574 146.509 81.4849C146.595 81.5124 146.673 81.5579 146.74 81.6183C146.838 81.764 146.883 81.9398 146.864 82.1144Z" fill="white"/>
<path d="M149.368 82.2279L148.986 82.1336C148.782 82.0838 148.639 82.0494 148.555 82.0201C148.488 82.0045 148.427 81.972 148.376 81.9257C148.346 81.8803 148.332 81.8258 148.337 81.7714C148.339 81.73 148.352 81.6899 148.374 81.655C148.396 81.6201 148.428 81.5917 148.464 81.5725C148.594 81.5092 148.737 81.4802 148.881 81.4883C149.441 81.4883 149.441 81.7433 149.441 81.825V81.8696H149.866V81.825C149.867 81.7059 149.84 81.5882 149.787 81.4819C149.733 81.3847 149.654 81.304 149.558 81.2486C149.463 81.1918 149.359 81.1512 149.251 81.1287C149.129 81.1 149.005 81.0867 148.88 81.0892C148.638 81.0777 148.399 81.1381 148.191 81.2626C148.103 81.3106 148.029 81.3825 147.979 81.4702C147.929 81.5578 147.904 81.6578 147.908 81.7586C147.9 81.9056 147.942 82.0509 148.028 82.1705C148.127 82.2881 148.261 82.3701 148.411 82.4039L148.793 82.4983L149.229 82.6118C149.297 82.6302 149.36 82.6643 149.413 82.7112C149.443 82.755 149.457 82.8076 149.453 82.8604V82.9101C149.453 82.9892 149.453 83.2379 148.956 83.2379C148.46 83.2379 148.406 82.9828 148.406 82.8949V82.7023H147.975V82.8961C147.974 83.015 148.001 83.1325 148.054 83.2391C148.105 83.336 148.182 83.4167 148.277 83.4725C148.373 83.5332 148.478 83.5763 148.589 83.6C148.71 83.6268 148.833 83.64 148.956 83.6396C149.075 83.6411 149.193 83.6295 149.308 83.6051C149.413 83.5816 149.514 83.5411 149.606 83.4853C149.697 83.4298 149.772 83.351 149.824 83.257C149.879 83.1537 149.906 83.0376 149.903 82.9203V82.8808C149.91 82.7324 149.868 82.5857 149.783 82.4638C149.676 82.3391 149.53 82.2556 149.368 82.2279Z" fill="white"/>
<path d="M152.195 80.9641C152.265 80.8954 152.348 80.8425 152.439 80.809C152.531 80.7756 152.629 80.7624 152.726 80.7703C152.906 80.7592 153.084 80.8177 153.222 80.9336C153.345 81.0698 153.415 81.2459 153.42 81.4296V81.4589H153.916V81.4143C153.918 81.2698 153.895 81.126 153.847 80.9897C153.81 80.8756 153.749 80.7708 153.668 80.6823C153.594 80.5999 153.503 80.5328 153.403 80.4847C153.305 80.4329 153.2 80.3959 153.091 80.375C152.861 80.3302 152.625 80.3302 152.396 80.375C152.285 80.3951 152.178 80.4321 152.078 80.4847C151.974 80.5367 151.881 80.6098 151.806 80.6993C151.731 80.7888 151.675 80.8929 151.642 81.005C151.596 81.1439 151.574 81.2897 151.577 81.436V82.5173C151.574 82.6637 151.596 82.8095 151.642 82.9484C151.679 83.0642 151.738 83.172 151.815 83.2659C151.892 83.3484 151.981 83.4174 152.081 83.4699C152.181 83.5223 152.288 83.5605 152.398 83.5834C152.513 83.6039 152.629 83.6137 152.745 83.6128C152.971 83.6175 153.197 83.5892 153.415 83.5286C153.601 83.4746 153.771 83.3756 153.911 83.2404V81.8746H152.874V82.2763H153.42V83.0721C153.34 83.1217 153.255 83.1599 153.165 83.1855C153.017 83.2201 152.865 83.2352 152.713 83.2302C152.616 83.2379 152.519 83.225 152.428 83.1925C152.336 83.16 152.253 83.1085 152.183 83.0415C152.05 82.8616 151.988 82.6391 152.009 82.4166V81.5635C151.997 81.3472 152.063 81.1337 152.197 80.9629L152.195 80.9641Z" fill="white"/>
<path d="M156.462 81.422C156.394 81.3417 156.312 81.2747 156.22 81.2244C156.128 81.1729 156.029 81.1347 155.926 81.1109C155.822 81.0905 155.715 81.0807 155.609 81.0815C155.504 81.0807 155.399 81.0905 155.296 81.1109C155.194 81.134 155.096 81.1722 155.004 81.2244C154.911 81.2754 154.828 81.3448 154.762 81.4284C154.689 81.5214 154.635 81.6274 154.603 81.7408C154.559 81.8802 154.537 82.0256 154.538 82.1718V82.5429C154.537 82.6891 154.559 82.8345 154.603 82.9739C154.636 83.0885 154.69 83.1961 154.762 83.2915C154.83 83.3735 154.912 83.4427 155.004 83.4955C155.096 83.5468 155.194 83.585 155.296 83.609C155.399 83.6292 155.504 83.6391 155.609 83.6383C155.727 83.6379 155.845 83.6247 155.961 83.5988C156.069 83.5687 156.172 83.5236 156.268 83.4649C156.371 83.3994 156.458 83.3124 156.523 83.2098C156.596 83.0899 156.645 82.9569 156.667 82.8184V82.7648H156.226V82.7992C156.202 82.9339 156.128 83.0543 156.018 83.1359C155.898 83.2159 155.755 83.2545 155.611 83.2455C155.521 83.2555 155.43 83.245 155.344 83.215C155.258 83.185 155.18 83.1362 155.115 83.0721C155.002 82.9115 154.946 82.7175 154.956 82.5212H156.672V82.1744C156.674 82.0285 156.654 81.8832 156.612 81.7434C156.584 81.6272 156.533 81.518 156.462 81.422ZM156.254 82.117H154.979C154.973 81.9367 155.033 81.7603 155.147 81.6209C155.21 81.5643 155.284 81.5209 155.364 81.4935C155.444 81.4661 155.528 81.4552 155.613 81.4615C155.702 81.4525 155.792 81.462 155.877 81.4894C155.963 81.5168 156.041 81.5616 156.109 81.6209C156.214 81.7643 156.267 81.9394 156.258 82.117H156.254Z" fill="white"/>
<path d="M159.183 81.3659C159.086 81.2742 158.966 81.2092 158.836 81.1771C158.664 81.1382 158.488 81.1202 158.311 81.1236H157.388V83.6038H157.812V81.5508H158.348C158.458 81.5484 158.568 81.5582 158.676 81.5801C158.747 81.5977 158.812 81.6343 158.864 81.6859C158.912 81.7299 158.947 81.7865 158.964 81.8492C158.973 81.9339 158.973 82.0194 158.964 82.1042V83.5924H159.395V82.1437C159.398 81.9932 159.38 81.843 159.341 81.6974C159.32 81.5745 159.265 81.4598 159.183 81.3659Z" fill="white"/>
<path d="M162.012 81.4207C161.944 81.3404 161.862 81.2734 161.769 81.223C161.678 81.1708 161.579 81.1325 161.476 81.1096C161.268 81.0646 161.054 81.0646 160.846 81.1096C160.743 81.1325 160.644 81.1708 160.553 81.223C160.459 81.2741 160.377 81.3435 160.31 81.4271C160.238 81.5201 160.184 81.6261 160.151 81.7395C160.107 81.8789 160.085 82.0243 160.086 82.1705V82.5416C160.085 82.6878 160.107 82.8332 160.151 82.9726C160.185 83.0872 160.239 83.1948 160.31 83.2902C160.378 83.3722 160.46 83.4413 160.553 83.4942C160.645 83.5456 160.743 83.5838 160.846 83.6077C160.949 83.628 161.054 83.6378 161.158 83.637C161.277 83.6369 161.395 83.6237 161.51 83.5975C161.619 83.5674 161.722 83.5223 161.818 83.4636C161.92 83.3981 162.007 83.311 162.073 83.2085C162.146 83.0886 162.195 82.9556 162.217 82.8171V82.7635H161.771V82.7979C161.747 82.9326 161.672 83.053 161.563 83.1346C161.443 83.2146 161.3 83.2532 161.156 83.2442C161.065 83.2545 160.974 83.2443 160.888 83.2142C160.802 83.1842 160.724 83.1352 160.66 83.0708C160.544 82.9113 160.488 82.7165 160.5 82.5199H162.217V82.1731C162.219 82.0272 162.199 81.8819 162.157 81.7421C162.13 81.6263 162.081 81.5171 162.012 81.4207ZM161.807 82.1157H160.523C160.517 81.9354 160.577 81.759 160.692 81.6196C160.754 81.5629 160.828 81.5196 160.908 81.4922C160.988 81.4648 161.073 81.4539 161.157 81.4602C161.246 81.4512 161.336 81.4607 161.422 81.4881C161.507 81.5155 161.586 81.5603 161.653 81.6196C161.76 81.7618 161.815 81.9365 161.809 82.1144L161.807 82.1157Z" fill="white"/>
<path d="M162.94 83.5771H163.365V81.524H164.05V81.1223H162.937L162.94 83.5771Z" fill="white"/>
<path d="M165.161 81.1567C165.06 81.1792 164.963 81.2161 164.873 81.2664C164.679 81.3734 164.533 81.551 164.466 81.7625C164.425 81.9023 164.404 82.0476 164.406 82.1935V82.4664C164.405 82.6122 164.425 82.7574 164.466 82.8974C164.499 83.0113 164.555 83.1175 164.63 83.2098C164.696 83.2929 164.779 83.3622 164.872 83.4138C164.961 83.4662 165.059 83.5033 165.16 83.5235C165.264 83.548 165.371 83.5596 165.478 83.5579H166.47V81.0777H165.478C165.369 81.0906 165.263 81.1172 165.161 81.1567ZM164.839 82.3121C164.819 82.0968 164.873 81.8811 164.993 81.7012C165.057 81.6357 165.134 81.5856 165.22 81.5546C165.306 81.5237 165.398 81.5128 165.489 81.5227H166.072V83.1805H165.492C165.401 83.1904 165.309 83.1795 165.223 83.1485C165.137 83.1176 165.059 83.0675 164.996 83.0019C164.876 82.8205 164.821 82.6038 164.841 82.3873L164.839 82.3121Z" fill="white"/>
<path d="M167.707 80.2156H167.28V83.5783H167.707V80.2156Z" fill="white"/>
<path d="M170.567 80.4133H170.007L169.015 83.5184V83.5783H169.511L169.722 82.9191H170.927L171.139 83.5783H171.635L170.643 80.4503L170.567 80.4133ZM170.76 82.5161H169.813L170.285 81.0279L170.76 82.5161Z" fill="white"/>
<path d="M173.757 82.4523C173.775 82.669 173.725 82.8859 173.612 83.0721C173.549 83.1378 173.471 83.1878 173.385 83.2179C173.299 83.248 173.207 83.2575 173.116 83.2455C173.026 83.2581 172.934 83.2489 172.847 83.2188C172.761 83.1886 172.683 83.1383 172.62 83.0721C172.509 82.8856 172.461 82.6685 172.481 82.4523V81.1325H172.057V82.5454C172.055 82.6909 172.073 82.8358 172.11 82.9764C172.141 83.0903 172.191 83.1978 172.259 83.294C172.325 83.3747 172.404 83.4437 172.493 83.498C172.583 83.5502 172.68 83.5884 172.781 83.6115C172.886 83.632 172.992 83.6419 173.099 83.6408C173.207 83.6418 173.315 83.632 173.421 83.6115C173.522 83.5884 173.62 83.5502 173.709 83.498C173.798 83.445 173.875 83.3757 173.938 83.294C174.009 83.1987 174.061 83.091 174.092 82.9764C174.129 82.8358 174.147 82.6909 174.146 82.5454V81.1325H173.763L173.757 82.4523Z" fill="white"/>
<path d="M178.409 81.3671C178.313 81.2738 178.193 81.2085 178.062 81.1784C177.89 81.1395 177.714 81.1215 177.537 81.1249H177.045V80.2156H176.62V83.5783H177.045V81.5253H177.58C177.69 81.5229 177.8 81.5327 177.908 81.5546C177.979 81.5722 178.045 81.6088 178.097 81.6604C178.144 81.7052 178.178 81.7615 178.196 81.8237C178.214 81.9076 178.222 81.993 178.222 82.0787V83.5669H178.646V82.1182C178.65 81.9679 178.634 81.8177 178.597 81.6719C178.565 81.5547 178.502 81.4482 178.416 81.3633L178.409 81.3671Z" fill="white"/>
<path d="M181.237 81.4207C181.169 81.3404 181.087 81.2734 180.994 81.2231C180.902 81.1716 180.804 81.1334 180.701 81.1096C180.493 81.0646 180.279 81.0646 180.071 81.1096C179.969 81.1327 179.87 81.1709 179.779 81.2231C179.685 81.2741 179.603 81.3435 179.537 81.4271C179.462 81.5189 179.408 81.6253 179.377 81.7395C179.331 81.8784 179.309 82.0242 179.312 82.1705V82.5416C179.309 82.6879 179.331 82.8337 179.377 82.9726C179.409 83.0879 179.463 83.1958 179.537 83.2902C179.605 83.3722 179.687 83.4413 179.779 83.4942C179.869 83.5456 179.966 83.5838 180.067 83.6077C180.278 83.6477 180.494 83.6477 180.705 83.6077C180.807 83.5837 180.905 83.5455 180.997 83.4942C181.088 83.44 181.17 83.3711 181.239 83.2902C181.314 83.1961 181.369 83.0882 181.402 82.9726C181.444 82.8328 181.464 82.6875 181.462 82.5416V82.1705C181.464 82.0246 181.444 81.8793 181.402 81.7395C181.369 81.6231 181.313 81.5146 181.237 81.4207ZM181.033 82.2585V82.4523C181.051 82.6694 180.995 82.8863 180.873 83.067C180.809 83.132 180.731 83.1818 180.645 83.2127C180.56 83.2436 180.468 83.2548 180.377 83.2455C180.286 83.2554 180.194 83.2445 180.108 83.2136C180.023 83.1827 179.945 83.1325 179.881 83.067C179.761 82.8859 179.706 82.6689 179.727 82.4523V82.2687C179.706 82.0534 179.76 81.8374 179.881 81.6579C179.945 81.5924 180.023 81.5422 180.108 81.5113C180.194 81.4803 180.286 81.4694 180.377 81.4794C180.468 81.4701 180.56 81.4813 180.645 81.5122C180.731 81.5431 180.809 81.5929 180.873 81.6579C180.994 81.8338 181.05 82.0459 181.033 82.2585Z" fill="white"/>
<path d="M184.304 81.1223H183.876V83.5771H184.304V81.1223Z" fill="white"/>
<path d="M185.771 80.4133H185.347V81.1223H184.95V81.524H185.347V83.5771H185.771V81.524H186.178V81.1223H185.771V80.4133Z" fill="white"/>
<path d="M188.533 81.1223L187.791 83.1065L187.057 81.1618V81.1325H186.6L187.483 83.4648C187.508 83.5255 187.553 83.5761 187.61 83.609L187.273 84.5016H187.725L189 81.1389L188.533 81.1223Z" fill="white"/>
<path d="M182.165 83.5771H182.59V81.524H183.274V81.1223H182.161L182.165 83.5771Z" fill="white"/>
<path d="M139.74 83.5771H140.165V81.524H140.85V81.1223H139.736L139.74 83.5771Z" fill="white"/>
<path d="M135.242 83.5771H135.666V81.524H136.351V81.1223H135.238L135.242 83.5771Z" fill="white"/>
<path d="M175.558 80.4133H175.133V81.1223H174.742V81.524H175.133V83.5771H175.558V81.524H175.965V81.1223H175.558V80.4133Z" fill="white"/>
<path d="M131.581 80.4133H131.156V81.1223H130.757V81.524H131.154V83.5771H131.579V81.524H131.985V81.1223H131.579L131.581 80.4133Z" fill="white"/>
<path d="M129.867 81.3659C129.77 81.2742 129.65 81.2092 129.521 81.1771C129.348 81.1382 129.172 81.1202 128.995 81.1236H128.069V83.6038H128.499V81.5508H129.03C129.14 81.5484 129.249 81.5582 129.357 81.5801C129.431 81.5966 129.498 81.6332 129.551 81.6859C129.596 81.7316 129.628 81.7877 129.645 81.8492C129.667 81.9324 129.677 82.0182 129.675 82.1042V83.5924H130.106V82.1437C130.109 81.9932 130.091 81.8429 130.052 81.6974C130.023 81.5716 129.959 81.4566 129.867 81.3659Z" fill="white"/>
<path d="M141.889 80.5168C141.871 80.4782 141.839 80.448 141.799 80.4325C141.757 80.4145 141.712 80.4052 141.666 80.4052C141.621 80.4052 141.575 80.4145 141.533 80.4325C141.498 80.4475 141.469 80.4735 141.449 80.5066C141.435 80.5312 141.425 80.5579 141.42 80.5858C141.417 80.6075 141.417 80.6293 141.42 80.651C141.418 80.6739 141.418 80.697 141.42 80.72C141.425 80.7462 141.435 80.7712 141.449 80.7941C141.468 80.8286 141.498 80.8563 141.533 80.8733C141.578 80.8812 141.623 80.8812 141.668 80.8733C141.714 80.8818 141.761 80.8818 141.807 80.8733C141.843 80.8563 141.872 80.8286 141.891 80.7941C141.905 80.7691 141.914 80.7424 141.921 80.7149C141.923 80.6932 141.923 80.6713 141.921 80.6497C141.923 80.6267 141.923 80.6036 141.921 80.5807C141.913 80.558 141.902 80.5366 141.889 80.5168Z" fill="white"/>
<path d="M116.682 80.513C116.662 80.4783 116.633 80.4506 116.597 80.4337C116.554 80.4153 116.507 80.4057 116.46 80.4057C116.413 80.4057 116.367 80.4153 116.324 80.4337C116.305 80.4407 116.288 80.4513 116.274 80.4649C116.259 80.4785 116.248 80.4948 116.239 80.513C116.227 80.5349 116.217 80.558 116.21 80.582C116.207 80.6049 116.207 80.628 116.21 80.651C116.208 80.6739 116.208 80.697 116.21 80.72C116.218 80.7453 116.228 80.7701 116.239 80.7941C116.259 80.8286 116.288 80.8564 116.324 80.8733C116.368 80.8812 116.414 80.8812 116.458 80.8733C116.502 80.8823 116.548 80.8823 116.592 80.8733C116.63 80.8579 116.662 80.83 116.682 80.7941C116.694 80.7705 116.704 80.7456 116.711 80.72C116.713 80.697 116.713 80.6739 116.711 80.651C116.714 80.628 116.714 80.6049 116.711 80.582C116.703 80.5581 116.694 80.535 116.682 80.513Z" fill="white"/>
<path d="M184.314 80.5168C184.297 80.4782 184.264 80.448 184.225 80.4325C184.183 80.4145 184.138 80.4052 184.092 80.4052C184.046 80.4052 184.001 80.4145 183.959 80.4325C183.924 80.4475 183.894 80.4735 183.875 80.5066C183.861 80.5312 183.851 80.5579 183.845 80.5858C183.841 80.6073 183.841 80.6295 183.845 80.651C183.841 80.6738 183.841 80.6972 183.845 80.72C183.843 80.7446 183.843 80.7694 183.845 80.7941C183.868 80.8278 183.899 80.8551 183.935 80.8733C183.979 80.8812 184.025 80.8812 184.069 80.8733C184.113 80.8822 184.159 80.8822 184.203 80.8733C184.241 80.8579 184.273 80.83 184.293 80.7941C184.306 80.7691 184.316 80.7424 184.322 80.7149C184.324 80.6932 184.324 80.6713 184.322 80.6497C184.324 80.6267 184.324 80.6036 184.322 80.5807C184.322 80.5591 184.319 80.5377 184.314 80.5168Z" fill="white"/>
<path d="M123.437 81.3773C123.349 81.2826 123.235 81.2153 123.109 81.1835C122.948 81.1406 122.781 81.1204 122.613 81.1236H120.318V83.6026H120.743V81.5495H121.735V83.6026H122.171V81.5495H122.595C122.705 81.5475 122.815 81.5573 122.923 81.5788C122.994 81.5964 123.06 81.633 123.112 81.6847C123.155 81.7311 123.188 81.787 123.206 81.8479C123.215 81.9327 123.215 82.0181 123.206 82.1029V83.5911H123.658V82.1425C123.661 81.9941 123.646 81.846 123.613 81.7012C123.583 81.5785 123.521 81.4657 123.434 81.3735L123.437 81.3773Z" fill="white"/>
<path d="M96.553 81.3773C96.464 81.2835 96.3505 81.2163 96.2253 81.1835C96.0634 81.1412 95.8966 81.121 95.7293 81.1236H93.4326V83.6026H93.8573V81.5495H94.8519V83.6026H95.2829V81.5495H95.7076C95.8176 81.5471 95.9275 81.557 96.0353 81.5788C96.1071 81.5952 96.1726 81.6319 96.224 81.6846C96.271 81.7284 96.3039 81.7853 96.3184 81.8479C96.3398 81.9311 96.3496 82.017 96.3477 82.1029V83.5911H96.7724V82.1424C96.7762 81.9938 96.7594 81.8453 96.7226 81.7012C96.6964 81.579 96.6383 81.466 96.5543 81.3735L96.553 81.3773Z" fill="white"/>
<path d="M188.995 73.8817H188.548V78.2276H188.995V73.8817Z" fill="white"/>
<path d="M187.15 73.8855V77.7838H186.108V76.7917C186.114 76.5602 186.091 76.3288 186.039 76.1031C185.999 75.9404 185.919 75.7903 185.806 75.667C185.701 75.5582 185.569 75.4794 185.423 75.4387C185.234 75.3905 185.039 75.3686 184.843 75.3737H184.115V75.82H184.874C184.992 75.818 185.11 75.8313 185.226 75.8596C185.325 75.8858 185.415 75.9396 185.485 76.0147C185.555 76.0898 185.603 76.1833 185.622 76.2842C185.657 76.4321 185.674 76.5837 185.672 76.7356V77.7558H185.228V77.1182C185.23 76.9887 185.212 76.8596 185.175 76.7356C185.146 76.6389 185.099 76.5488 185.036 76.4704C184.977 76.4009 184.907 76.3422 184.828 76.297C184.747 76.253 184.662 76.2196 184.573 76.1975C184.48 76.187 184.387 76.187 184.295 76.1975C184.202 76.1872 184.109 76.1872 184.017 76.1975C183.93 76.2189 183.846 76.2524 183.768 76.297C183.689 76.3422 183.619 76.4009 183.56 76.4704C183.499 76.5499 183.451 76.6397 183.421 76.7356C183.385 76.8598 183.368 76.9889 183.371 77.1182V77.1475C183.369 77.3142 183.386 77.4807 183.421 77.6436C183.44 77.6876 183.462 77.7302 183.486 77.7711H182.142V75.514H181.696V77.794H180.064V75.514H179.617V77.794H178.087V76.4602C178.09 76.3309 178.073 76.2019 178.037 76.0776C178.007 75.9817 177.96 75.8918 177.898 75.8124C177.838 75.7431 177.766 75.6845 177.687 75.6389C177.61 75.5938 177.526 75.5619 177.438 75.5446C177.347 75.5245 177.253 75.5146 177.16 75.5153H176.768C176.683 75.5145 176.597 75.5243 176.513 75.5446C176.424 75.5617 176.338 75.5936 176.258 75.6389C176.181 75.6857 176.11 75.7442 176.051 75.8124C175.99 75.8929 175.945 75.9836 175.917 76.0802C175.877 76.2037 175.859 76.3331 175.863 76.4627V77.2967C175.858 77.4264 175.876 77.5559 175.917 77.6793C175.945 77.7774 175.99 77.8697 176.051 77.9522C176.109 78.0217 176.18 78.0804 176.258 78.1256C176.338 78.1704 176.424 78.2038 176.513 78.2251C176.606 78.2355 176.699 78.2355 176.791 78.2251H187.595V73.8779L187.15 73.8855ZM177.642 77.7838H176.794C176.727 77.7898 176.659 77.7808 176.595 77.7577C176.532 77.7345 176.474 77.6978 176.427 77.6499C176.34 77.5182 176.3 77.3609 176.313 77.2036V76.5341C176.3 76.3768 176.34 76.2195 176.427 76.0878C176.471 76.0418 176.524 76.006 176.583 75.9829C176.643 75.9598 176.706 75.9499 176.77 75.9539H177.161C177.229 75.948 177.296 75.957 177.36 75.9801C177.423 76.0032 177.481 76.04 177.528 76.0878C177.618 76.2185 177.658 76.3766 177.642 76.5341V77.7838ZM184.783 77.7838H184.287C184.22 77.7883 184.153 77.7782 184.091 77.7542C184.028 77.7302 183.972 77.6929 183.925 77.6448C183.855 77.5571 183.816 77.4494 183.811 77.3375V77.159C183.806 77.0224 183.846 76.888 183.925 76.7764C184.027 76.6905 184.156 76.6433 184.29 76.6433C184.423 76.6433 184.552 76.6905 184.654 76.7764C184.746 76.9063 184.788 77.0645 184.774 77.2228L184.783 77.7838Z" fill="white"/>
<path d="M180.28 75.0664H180.325V74.7565H179.957C179.923 74.7407 179.896 74.7141 179.879 74.6809C179.862 74.6476 179.856 74.6096 179.863 74.5729C179.863 74.467 180.002 74.4046 180.186 74.4046H180.364V74.0972H180.141C179.758 74.0972 179.55 74.2464 179.54 74.5487C179.542 74.6196 179.555 74.6899 179.58 74.7565H179.312V75.0689L180.28 75.0664Z" fill="white"/>
<path d="M182.189 79.2093C182.238 79.23 182.291 79.24 182.344 79.2387C182.397 79.2411 182.45 79.2311 182.499 79.2093C182.538 79.1954 182.57 79.167 182.588 79.13C182.588 79.1007 182.614 79.07 182.623 79.0457C182.625 79.0211 182.625 78.9962 182.623 78.9716C182.625 78.9453 182.625 78.9187 182.623 78.8924L182.588 78.808C182.568 78.7738 182.536 78.7476 182.499 78.7339C182.45 78.7121 182.397 78.702 182.344 78.7045C182.291 78.7032 182.238 78.7132 182.189 78.7339C182.154 78.7489 182.124 78.7749 182.105 78.808C182.091 78.8351 182.079 78.8633 182.071 78.8924C182.057 78.943 182.057 78.9963 182.071 79.047C182.079 79.0764 182.09 79.1047 182.105 79.1313C182.123 79.1671 182.153 79.194 182.189 79.2093Z" fill="white"/>
<path d="M181.634 79.2092C181.673 79.1954 181.705 79.167 181.723 79.13C181.755 79.0839 181.768 79.0269 181.758 78.9716C181.76 78.9452 181.76 78.9187 181.758 78.8924C181.749 78.8633 181.737 78.835 181.723 78.808C181.703 78.7738 181.671 78.7476 181.634 78.7339C181.585 78.7121 181.532 78.702 181.479 78.7045C181.428 78.7027 181.376 78.7127 181.329 78.7339C181.292 78.7476 181.26 78.7738 181.24 78.808C181.226 78.835 181.214 78.8633 181.206 78.8924C181.203 78.9187 181.203 78.9452 181.206 78.9716C181.203 78.9962 181.203 79.0211 181.206 79.0457C181.214 79.0751 181.225 79.1034 181.24 79.13C181.259 79.167 181.291 79.1954 181.329 79.2092C181.376 79.2305 181.428 79.2406 181.479 79.2386C181.532 79.2412 181.585 79.2311 181.634 79.2092Z" fill="white"/>
<path d="M177.179 74.918C177.198 74.9527 177.227 74.9804 177.263 74.9973C177.314 75.0053 177.367 75.0053 177.418 74.9973C177.469 75.0061 177.521 75.0061 177.572 74.9973C177.609 74.979 177.639 74.9517 177.662 74.918C177.674 74.891 177.684 74.8627 177.691 74.8337C177.696 74.8075 177.696 74.7806 177.691 74.7545C177.696 74.73 177.696 74.7048 177.691 74.6804C177.684 74.6513 177.675 74.6231 177.662 74.596C177.639 74.5623 177.609 74.535 177.572 74.5168C177.523 74.498 177.471 74.488 177.418 74.4874C177.365 74.4889 177.313 74.4988 177.263 74.5168C177.227 74.5338 177.198 74.5615 177.179 74.596C177.163 74.6221 177.151 74.6506 177.144 74.6804C177.131 74.731 177.131 74.7843 177.144 74.835C177.151 74.8648 177.163 74.892 177.179 74.918Z" fill="white"/>
<path d="M176.307 74.918C176.326 74.9526 176.355 74.9803 176.391 74.9973C176.442 75.0053 176.494 75.0053 176.546 74.9973C176.597 75.0061 176.649 75.0061 176.7 74.9973C176.737 74.9803 176.768 74.9528 176.79 74.918C176.802 74.891 176.812 74.8627 176.819 74.8337C176.824 74.8076 176.824 74.7806 176.819 74.7545C176.824 74.73 176.824 74.7048 176.819 74.6804C176.812 74.6513 176.802 74.6231 176.79 74.596C176.768 74.5613 176.737 74.5337 176.7 74.5168C176.651 74.498 176.599 74.488 176.546 74.4874C176.493 74.489 176.441 74.4989 176.391 74.5168C176.355 74.5338 176.326 74.5615 176.307 74.596C176.291 74.6221 176.279 74.6506 176.272 74.6804C176.259 74.731 176.259 74.7843 176.272 74.835C176.279 74.8648 176.291 74.892 176.307 74.918Z" fill="white"/>
<path d="M157.3 73.8805V77.7787H156.129V73.8805H155.688V77.7787H154.77V76.4411C154.771 76.3116 154.753 76.1826 154.716 76.0585C154.688 75.9618 154.64 75.8717 154.577 75.7933C154.458 75.654 154.295 75.5595 154.115 75.5255C154.024 75.5051 153.931 75.4953 153.837 75.4961H153.455C153.369 75.4955 153.283 75.5053 153.2 75.5255C153.11 75.5435 153.024 75.5753 152.945 75.6198C152.867 75.6652 152.798 75.7239 152.741 75.7933C152.677 75.8717 152.63 75.9618 152.602 76.0585C152.567 76.1724 152.55 76.2912 152.552 76.4105V76.6936C152.571 76.974 152.502 77.2533 152.353 77.4918C152.266 77.5842 152.159 77.6552 152.041 77.6994C151.922 77.7437 151.794 77.7599 151.668 77.7469H151.172V75.5H150.726V77.78H148.831V75.5H148.385V77.78H147.968C147.841 77.7922 147.713 77.7756 147.594 77.7314C147.475 77.6873 147.367 77.6167 147.279 77.525C147.122 77.2658 147.053 76.9633 147.08 76.6617V75.7397H146.639V76.6617C146.667 76.9632 146.598 77.2657 146.441 77.525C146.354 77.6173 146.247 77.6883 146.129 77.7326C146.01 77.7768 145.883 77.7931 145.756 77.78H145.339V75.7397H144.893V77.78H142.853V73.8907H142.412V78.2378H145.759C145.898 78.2388 146.036 78.2239 146.171 78.1932C146.298 78.1661 146.42 78.1192 146.533 78.0542C146.645 77.9881 146.745 77.9016 146.825 77.7991L146.865 77.7341L146.904 77.7991C146.983 77.9017 147.081 77.9882 147.192 78.0542C147.305 78.1184 147.428 78.1652 147.555 78.1932C147.676 78.2169 147.798 78.2302 147.922 78.2327H151.691C151.83 78.234 151.968 78.219 152.103 78.1881C152.231 78.1619 152.353 78.1149 152.465 78.0491C152.56 77.9914 152.644 77.9176 152.714 77.831C152.759 77.9537 152.851 78.0536 152.969 78.109C153.049 78.1529 153.135 78.1864 153.224 78.2085C153.316 78.219 153.41 78.219 153.502 78.2085H157.778V73.8613L157.3 73.8805ZM154.323 77.7787H153.47C153.404 77.7846 153.337 77.7756 153.274 77.7525C153.211 77.7293 153.155 77.6926 153.108 77.6448C153.016 77.515 152.974 77.3568 152.988 77.1985V76.529C152.974 76.3708 153.016 76.2126 153.108 76.0827C153.152 76.0367 153.205 76.0009 153.265 75.9778C153.324 75.9547 153.388 75.9448 153.451 75.9488H153.834C153.901 75.9429 153.969 75.9519 154.032 75.975C154.096 75.9981 154.153 76.0349 154.201 76.0827C154.293 76.2126 154.335 76.3708 154.321 76.529L154.323 77.7787Z" fill="white"/>
<path d="M141.798 73.2479L142.234 72.9151C142.291 72.9794 142.362 73.0308 142.44 73.066C142.519 73.1012 142.604 73.1193 142.69 73.1191C142.875 73.1106 143.051 73.037 143.187 72.9113V73.2683C143.039 73.3933 142.85 73.4588 142.656 73.452C142.575 73.4579 142.494 73.4468 142.418 73.4193C142.342 73.3918 142.273 73.3487 142.215 73.2926L141.96 73.4813L141.798 73.2479Z" fill="white"/>
<path d="M141.075 77.78H138.099C137.973 77.793 137.845 77.7768 137.727 77.7326C137.608 77.6883 137.501 77.6173 137.414 77.525C137.255 77.2666 137.184 76.9639 137.21 76.6617V76.1656H136.774V76.8453C136.77 77.0313 136.793 77.217 136.843 77.3962C136.879 77.5409 136.944 77.6773 137.032 77.7979C137.112 77.9003 137.211 77.9868 137.324 78.0529C137.436 78.1187 137.558 78.1657 137.686 78.1919C137.807 78.2162 137.93 78.2294 138.053 78.2314H141.524V75.5076H141.078L141.075 77.78Z" fill="white"/>
<path d="M147.066 74.596L147.032 74.6804C147.029 74.705 147.029 74.7298 147.032 74.7545C147.029 74.7808 147.029 74.8074 147.032 74.8337L147.066 74.918C147.088 74.9528 147.119 74.9803 147.156 74.9972C147.207 75.0065 147.259 75.0065 147.31 74.9972C147.362 75.0053 147.414 75.0053 147.465 74.9972C147.501 74.9803 147.53 74.9526 147.549 74.918C147.565 74.892 147.577 74.8635 147.584 74.8337C147.597 74.783 147.597 74.7298 147.584 74.6791C147.577 74.6493 147.565 74.6208 147.549 74.5948C147.532 74.5609 147.504 74.5333 147.47 74.5155C147.42 74.4976 147.368 74.4876 147.315 74.4861C147.262 74.4862 147.21 74.4962 147.161 74.5155C147.122 74.5319 147.089 74.56 147.066 74.596Z" fill="white"/>
<path d="M150.673 74.918C150.694 74.9528 150.725 74.9803 150.762 74.9972C150.813 75.0065 150.866 75.0065 150.917 74.9972C150.968 75.0053 151.02 75.0053 151.071 74.9972C151.107 74.9803 151.137 74.9526 151.156 74.918C151.17 74.891 151.181 74.8628 151.19 74.8337C151.204 74.783 151.204 74.7298 151.19 74.6791C151.181 74.65 151.17 74.6217 151.156 74.5948C151.137 74.5602 151.107 74.5325 151.071 74.5155C151.022 74.4976 150.97 74.4876 150.917 74.4861C150.864 74.4862 150.811 74.4961 150.762 74.5155C150.725 74.5324 150.694 74.56 150.673 74.5948L150.638 74.6791C150.636 74.7037 150.636 74.7286 150.638 74.7532C150.636 74.7795 150.636 74.8061 150.638 74.8324L150.673 74.918Z" fill="white"/>
<path d="M146.705 74.2358C146.723 74.2716 146.753 74.2998 146.79 74.315C146.838 74.3357 146.891 74.3458 146.944 74.3444C146.997 74.3464 147.05 74.3363 147.099 74.315C147.136 74.2984 147.167 74.2707 147.188 74.2358C147.202 74.2091 147.211 74.1807 147.218 74.1515C147.231 74.1008 147.231 74.0475 147.218 73.9968C147.211 73.9678 147.201 73.9396 147.188 73.9125C147.165 73.8804 147.135 73.8548 147.099 73.8384C147.05 73.8171 146.997 73.807 146.944 73.809C146.891 73.8077 146.838 73.8177 146.79 73.8384C146.754 73.8534 146.725 73.8794 146.705 73.9125C146.689 73.9385 146.677 73.967 146.671 73.9968C146.657 74.0475 146.657 74.1008 146.671 74.1515C146.677 74.1816 146.688 74.2102 146.705 74.2358Z" fill="white"/>
<path d="M146.192 74.918C146.215 74.9517 146.245 74.979 146.282 74.9972C146.333 75.0065 146.385 75.0065 146.436 74.9972C146.487 75.0053 146.54 75.0053 146.591 74.9972C146.627 74.9803 146.656 74.9526 146.675 74.918C146.691 74.892 146.703 74.8635 146.71 74.8337C146.723 74.783 146.723 74.7298 146.71 74.6791C146.703 74.6493 146.691 74.6208 146.675 74.5948C146.656 74.5602 146.627 74.5325 146.591 74.5155C146.541 74.4976 146.489 74.4877 146.436 74.4861C146.383 74.4862 146.331 74.4962 146.282 74.5155C146.245 74.5337 146.215 74.561 146.192 74.5948L146.158 74.6791C146.155 74.7037 146.155 74.7286 146.158 74.7532C146.155 74.7795 146.155 74.8061 146.158 74.8324L146.192 74.918Z" fill="white"/>
<path d="M139.328 74.918C139.349 74.9528 139.38 74.9803 139.417 74.9972C139.469 75.0065 139.521 75.0065 139.572 74.9972C139.623 75.0053 139.675 75.0053 139.727 74.9972C139.762 74.9803 139.792 74.9526 139.811 74.918C139.827 74.892 139.839 74.8635 139.845 74.8337C139.859 74.783 139.859 74.7298 139.845 74.6791C139.839 74.6493 139.827 74.6208 139.811 74.5948C139.792 74.5602 139.762 74.5325 139.727 74.5155C139.677 74.4976 139.625 74.4876 139.572 74.4861C139.519 74.4862 139.467 74.4962 139.417 74.5155C139.38 74.5324 139.349 74.56 139.328 74.5948L139.293 74.6791C139.291 74.7037 139.291 74.7286 139.293 74.7532C139.291 74.7795 139.291 74.8061 139.293 74.8324L139.328 74.918Z" fill="white"/>
<path d="M138.456 74.918C138.475 74.9567 138.504 74.9894 138.54 75.0126C138.591 75.0219 138.643 75.0219 138.695 75.0126C138.746 75.0207 138.798 75.0207 138.849 75.0126C138.885 74.9956 138.914 74.9679 138.934 74.9334C138.95 74.9073 138.961 74.8788 138.968 74.849C138.981 74.7984 138.981 74.7451 138.968 74.6944C138.961 74.6646 138.95 74.6361 138.934 74.6101C138.914 74.5755 138.885 74.5478 138.849 74.5309C138.8 74.5129 138.747 74.503 138.695 74.5015C138.643 74.497 138.59 74.5022 138.54 74.5168C138.504 74.535 138.473 74.5623 138.451 74.596L138.416 74.6804C138.414 74.705 138.414 74.7298 138.416 74.7545C138.413 74.7808 138.413 74.8074 138.416 74.8337L138.456 74.918Z" fill="white"/>
<path d="M134.706 73.8817H134.259V78.2276H134.706V73.8817Z" fill="white"/>
<path d="M132.866 73.8817V77.78H131.829V76.6247C131.819 76.4126 131.75 76.2076 131.63 76.0325C131.51 75.8573 131.343 75.7189 131.149 75.6326C130.841 75.5089 130.505 75.47 130.176 75.5197C129.847 75.5695 129.538 75.7062 129.28 75.9157V75.514H128.831V77.7902H127.811C127.557 77.7935 127.303 77.7635 127.057 77.7009C127.461 77.3999 127.741 76.9626 127.847 76.4704C127.864 76.3523 127.855 76.232 127.822 76.1174C127.789 76.0029 127.732 75.8967 127.654 75.806C127.577 75.7154 127.481 75.6423 127.373 75.5917C127.265 75.5411 127.147 75.5142 127.028 75.5127C126.574 75.4692 126.116 75.5125 125.679 75.6402L125.569 75.6746L125.53 75.7843C125.427 76.1362 125.43 76.5106 125.538 76.8608C125.647 77.211 125.856 77.5214 126.14 77.7532C126.084 77.7721 126.026 77.782 125.967 77.7826H124.182V75.514H123.73V77.794H122.072V75.514H121.626V77.7468C121.633 77.9132 121.619 78.0797 121.587 78.2429C121.565 78.3524 121.519 78.4557 121.453 78.5451C121.394 78.6152 121.319 78.6699 121.235 78.7045C121.14 78.7435 121.04 78.7668 120.938 78.7734V79.2694C121.056 79.2632 121.174 79.2453 121.289 79.2159C121.398 79.1842 121.501 79.1374 121.597 79.0769C121.697 79.0135 121.783 78.9312 121.852 78.8346C121.929 78.713 121.984 78.5788 122.015 78.438C122.031 78.3779 122.04 78.3164 122.044 78.2544H125.987C126.216 78.2434 126.439 78.1731 126.633 78.0503C127.009 78.1939 127.41 78.2632 127.813 78.2544H133.31V73.9072L132.866 73.8817ZM126.601 77.4931C126.433 77.3981 126.288 77.2675 126.176 77.1105C126.057 76.963 125.972 76.7907 125.928 76.6063C125.884 76.4219 125.882 76.2299 125.921 76.0445C126.26 75.9535 126.613 75.9232 126.963 75.9552C127.38 76.0202 127.414 76.2332 127.399 76.4117C127.344 76.6362 127.244 76.8474 127.107 77.0331C126.969 77.2188 126.796 77.3751 126.597 77.4931H126.601ZM131.383 77.766H129.279V76.4563C129.491 76.2372 129.761 76.0814 130.057 76.0065C130.353 75.9315 130.664 75.9402 130.955 76.0317C131.073 76.0811 131.174 76.1614 131.249 76.2641C131.324 76.3668 131.369 76.4879 131.38 76.6145L131.383 77.766Z" fill="white"/>
<path d="M126.304 74.918C126.323 74.9526 126.352 74.9803 126.388 74.9973C126.439 75.0053 126.492 75.0053 126.543 74.9973C126.594 75.0066 126.646 75.0066 126.697 74.9973C126.734 74.9803 126.766 74.9528 126.787 74.918L126.821 74.8337C126.824 74.8074 126.824 74.7808 126.821 74.7545C126.824 74.7298 126.824 74.705 126.821 74.6804L126.787 74.596C126.766 74.5613 126.734 74.5337 126.697 74.5168C126.648 74.4974 126.596 74.4874 126.543 74.4874C126.49 74.4889 126.438 74.4988 126.388 74.5168C126.352 74.5338 126.323 74.5615 126.304 74.596C126.29 74.623 126.278 74.6513 126.269 74.6804C126.256 74.731 126.256 74.7843 126.269 74.835C126.278 74.8636 126.29 74.8914 126.304 74.918Z" fill="white"/>
<path d="M119.731 74.918C119.75 74.9527 119.78 74.9804 119.815 74.9973C119.867 75.0053 119.919 75.0053 119.97 74.9973C120.021 75.0066 120.073 75.0066 120.125 74.9973C120.163 74.9819 120.194 74.9539 120.214 74.918L120.249 74.8337C120.251 74.8074 120.251 74.7808 120.249 74.7545C120.251 74.7298 120.251 74.705 120.249 74.6804L120.214 74.596C120.194 74.5602 120.163 74.5322 120.125 74.5168C120.075 74.4975 120.023 74.4875 119.97 74.4874C119.917 74.4889 119.865 74.4988 119.815 74.5168C119.78 74.5338 119.75 74.5615 119.731 74.596C119.717 74.623 119.705 74.6513 119.697 74.6804C119.683 74.731 119.683 74.7843 119.697 74.835C119.705 74.8641 119.717 74.891 119.731 74.918Z" fill="white"/>
<path d="M118.858 74.918C118.878 74.9539 118.909 74.9819 118.947 74.9973C118.997 75.0062 119.047 75.0062 119.097 74.9973C119.148 75.0066 119.2 75.0066 119.251 74.9973C119.289 74.9819 119.321 74.9539 119.341 74.918C119.355 74.891 119.366 74.8628 119.375 74.8337C119.378 74.8074 119.378 74.7808 119.375 74.7545C119.378 74.7298 119.378 74.705 119.375 74.6804C119.366 74.6513 119.355 74.623 119.341 74.596C119.321 74.5602 119.289 74.5322 119.251 74.5168C119.202 74.4975 119.15 74.4875 119.097 74.4874C119.045 74.488 118.995 74.4979 118.947 74.5168C118.909 74.5322 118.878 74.5602 118.858 74.596C118.844 74.623 118.832 74.6513 118.823 74.6804C118.821 74.705 118.821 74.7298 118.823 74.7545C118.821 74.7808 118.821 74.8074 118.823 74.8337C118.832 74.8628 118.844 74.891 118.858 74.918Z" fill="white"/>
<path d="M124.261 79.2093C124.31 79.2311 124.363 79.2412 124.416 79.2386C124.469 79.24 124.522 79.23 124.57 79.2093C124.607 79.194 124.637 79.1658 124.655 79.13C124.683 79.0816 124.699 79.0265 124.699 78.9703C124.702 78.944 124.702 78.9174 124.699 78.8911C124.691 78.862 124.679 78.8338 124.665 78.8068C124.646 78.7737 124.616 78.7477 124.581 78.7326C124.532 78.712 124.479 78.702 124.426 78.7033C124.373 78.7007 124.32 78.7108 124.271 78.7326C124.234 78.7464 124.202 78.7725 124.182 78.8068L124.147 78.8911C124.145 78.9174 124.145 78.944 124.147 78.9703C124.145 78.995 124.145 79.0198 124.147 79.0444C124.146 79.0602 124.148 79.0762 124.154 79.091C124.16 79.1057 124.17 79.1187 124.182 79.1288C124.198 79.1639 124.226 79.1933 124.261 79.2093Z" fill="white"/>
<path d="M123.776 78.8068C123.756 78.7737 123.727 78.7477 123.691 78.7326C123.643 78.7119 123.59 78.7019 123.537 78.7033C123.484 78.7007 123.431 78.7108 123.382 78.7326C123.346 78.7476 123.314 78.7735 123.293 78.8068L123.258 78.8911C123.256 78.9174 123.256 78.944 123.258 78.9703C123.256 78.995 123.256 79.0198 123.258 79.0444C123.257 79.0602 123.259 79.0762 123.265 79.091C123.271 79.1057 123.28 79.1187 123.293 79.1288C123.313 79.1646 123.344 79.1926 123.382 79.208C123.431 79.2298 123.484 79.2399 123.537 79.2374C123.59 79.2387 123.643 79.2287 123.691 79.208C123.728 79.1927 123.758 79.1646 123.776 79.1288C123.793 79.1032 123.804 79.0745 123.81 79.0444C123.824 78.9938 123.824 78.9405 123.81 78.8898C123.803 78.8604 123.792 78.8324 123.776 78.8068Z" fill="white"/>
<path d="M118.825 78.1014C118.902 78.146 118.986 78.1794 119.073 78.2008C119.166 78.2113 119.259 78.2113 119.351 78.2008H120.651V76.4156C120.652 76.2861 120.634 76.1571 120.597 76.033C120.569 75.9363 120.521 75.8462 120.458 75.7678C120.339 75.6285 120.176 75.534 119.997 75.5C119.905 75.4796 119.812 75.4698 119.719 75.4706H119.336C119.25 75.4699 119.164 75.4798 119.081 75.5C118.993 75.5173 118.909 75.5492 118.832 75.5943C118.753 75.6385 118.682 75.6973 118.624 75.7678C118.561 75.8462 118.514 75.9363 118.485 76.033C118.448 76.1571 118.43 76.2861 118.432 76.4156V77.2495C118.43 77.3791 118.448 77.5082 118.485 77.6321C118.513 77.7313 118.561 77.8241 118.624 77.905C118.678 77.986 118.749 78.054 118.832 78.1039L118.825 78.1014ZM118.874 76.5291C118.858 76.3715 118.898 76.2134 118.988 76.0827C119.032 76.0367 119.085 76.0009 119.145 75.9778C119.204 75.9547 119.267 75.9448 119.331 75.9488H119.713C119.781 75.9426 119.849 75.9513 119.912 75.9745C119.976 75.9976 120.033 76.0346 120.081 76.0827C120.172 76.2126 120.215 76.3708 120.201 76.5291V77.7788H119.346C119.28 77.7846 119.213 77.7756 119.15 77.7525C119.087 77.7293 119.031 77.6926 118.984 77.6449C118.895 77.5142 118.854 77.356 118.871 77.1985L118.874 76.5291Z" fill="white"/>
<path d="M173.905 73.8817H173.459V78.2276H173.905V73.8817Z" fill="white"/>
<path d="M161.594 74.918C161.613 74.9527 161.643 74.9804 161.679 74.9973C161.73 75.0053 161.782 75.0053 161.833 74.9973C161.884 75.0062 161.937 75.0062 161.988 74.9973C162.024 74.979 162.055 74.9517 162.077 74.918C162.09 74.891 162.1 74.8627 162.107 74.8337C162.112 74.8076 162.112 74.7806 162.107 74.7545C162.111 74.73 162.111 74.7048 162.107 74.6804C162.1 74.6513 162.09 74.6231 162.077 74.596C162.055 74.5623 162.024 74.535 161.988 74.5168C161.938 74.498 161.886 74.488 161.833 74.4874C161.78 74.489 161.728 74.4989 161.679 74.5168C161.643 74.5338 161.613 74.5615 161.594 74.596C161.578 74.6221 161.567 74.6506 161.56 74.6804C161.546 74.731 161.546 74.7843 161.56 74.835C161.567 74.8648 161.578 74.892 161.594 74.918Z" fill="white"/>
<path d="M160.721 74.918C160.74 74.9526 160.77 74.9803 160.806 74.9973C160.857 75.0053 160.909 75.0053 160.96 74.9973C161.011 75.0066 161.064 75.0066 161.115 74.9973C161.152 74.9804 161.183 74.9528 161.204 74.918L161.239 74.8337C161.241 74.8074 161.241 74.7808 161.239 74.7545C161.241 74.7298 161.241 74.705 161.239 74.6804L161.204 74.596C161.183 74.5613 161.152 74.5337 161.115 74.5168C161.066 74.4975 161.013 74.4875 160.96 74.4874C160.907 74.4889 160.855 74.4988 160.806 74.5168C160.77 74.5338 160.74 74.5615 160.721 74.596C160.705 74.6221 160.694 74.6506 160.687 74.6804C160.673 74.731 160.673 74.7843 160.687 74.835C160.694 74.8648 160.705 74.892 160.721 74.918Z" fill="white"/>
<path d="M172.066 73.8868V77.7851H171.074C170.83 77.7879 170.587 77.7631 170.349 77.7111C170.749 77.3861 171.021 76.929 171.114 76.4219C171.114 76.1936 171.085 75.6568 170.296 75.5293C169.841 75.49 169.384 75.5354 168.946 75.6632L168.833 75.6925L168.795 75.7996C168.711 76.0669 168.69 76.3496 168.732 76.6264C168.774 76.9033 168.878 77.1669 169.037 77.3974C169.132 77.5351 169.249 77.6558 169.384 77.7545C169.339 77.7586 169.294 77.7586 169.25 77.7545H167.618V73.8613H167.171V78.2085H169.25C169.475 78.1991 169.694 78.1343 169.888 78.0197C170.249 78.1473 170.63 78.2111 171.014 78.2085H172.502V73.8613L172.066 73.8868ZM169.848 77.5377C169.67 77.4473 169.515 77.3163 169.397 77.1551C169.292 76.9969 169.219 76.8194 169.182 76.633C169.146 76.4466 169.147 76.2548 169.185 76.0687C169.523 75.98 169.874 75.9515 170.222 75.9845C170.687 76.0534 170.673 76.2918 170.663 76.3913C170.549 76.8643 170.257 77.274 169.848 77.5377Z" fill="white"/>
<path d="M166.318 78.2263V76.4411C166.321 76.3118 166.304 76.1828 166.268 76.0585C166.238 75.9616 166.191 75.8709 166.129 75.7907C166.069 75.7214 165.997 75.6628 165.918 75.6173C165.841 75.5721 165.757 75.5402 165.669 75.5229C165.578 75.5028 165.484 75.493 165.391 75.4936H165C164.914 75.4928 164.828 75.5027 164.744 75.5229C164.655 75.5392 164.568 75.5711 164.489 75.6173C164.412 75.6641 164.342 75.7225 164.282 75.7907C164.22 75.8702 164.173 75.96 164.143 76.0559C164.112 76.1706 164.097 76.2891 164.098 76.4079V76.6502C164.126 76.9517 164.057 77.2542 163.9 77.5135C163.813 77.6058 163.706 77.6769 163.588 77.7211C163.469 77.7653 163.342 77.7816 163.216 77.7685H162.521V76.4347C162.523 76.3054 162.507 76.1764 162.471 76.0521C162.441 75.9553 162.394 75.8646 162.332 75.7843C162.213 75.646 162.05 75.5525 161.87 75.5191C161.779 75.499 161.686 75.4892 161.592 75.4897H161.21C161.124 75.4891 161.038 75.4989 160.955 75.5191C160.865 75.5371 160.779 75.5689 160.7 75.6134C160.622 75.6588 160.553 75.7175 160.495 75.7869C160.432 75.8653 160.385 75.9554 160.356 76.0521C160.319 76.1762 160.301 76.3052 160.303 76.4347V77.2687C160.301 77.3982 160.319 77.5273 160.356 77.6512C160.384 77.7504 160.432 77.8431 160.495 77.9241C160.551 77.9947 160.621 78.0536 160.7 78.0975C160.78 78.1415 160.866 78.1749 160.955 78.197C161.047 78.2075 161.14 78.2075 161.233 78.197H163.217C163.355 78.198 163.494 78.183 163.629 78.1524C163.756 78.1261 163.879 78.0792 163.991 78.0134C164.086 77.9536 164.17 77.8781 164.239 77.7902C164.248 77.8306 164.267 77.8682 164.293 77.8999C164.352 77.9694 164.422 78.0281 164.501 78.0733C164.581 78.1189 164.666 78.1524 164.756 78.1728C164.847 78.183 164.938 78.183 165.029 78.1728L166.318 78.2263ZM160.861 77.6436C160.77 77.5137 160.727 77.3555 160.742 77.1972V76.5278C160.727 76.3695 160.77 76.2113 160.861 76.0814C160.904 76.0352 160.956 75.9992 161.015 75.976C161.073 75.9528 161.136 75.9431 161.198 75.9475H161.59C161.657 75.9416 161.725 75.9506 161.788 75.9737C161.852 75.9968 161.909 76.0336 161.957 76.0814C162.049 76.2113 162.091 76.3695 162.077 76.5278V77.7775H161.229C161.162 77.7841 161.095 77.7754 161.032 77.7522C160.969 77.729 160.913 77.6919 160.867 77.6436H160.861ZM164.662 77.6436C164.574 77.5119 164.534 77.3546 164.548 77.1972V76.5278C164.534 76.3704 164.574 76.2131 164.662 76.0814C164.706 76.0355 164.759 75.9996 164.818 75.9765C164.878 75.9534 164.941 75.9435 165.005 75.9475H165.396C165.463 75.9438 165.53 75.9538 165.593 75.9768C165.657 75.9998 165.714 76.0354 165.763 76.0814C165.853 76.2121 165.893 76.3703 165.877 76.5278V77.7775H165.029C164.959 77.7857 164.888 77.778 164.822 77.7548C164.756 77.7315 164.696 77.6935 164.646 77.6436H164.662Z" fill="white"/>
<path d="M113.293 73.8817H112.846V78.2276H113.293V73.8817Z" fill="white"/>
<path d="M101.67 77.78H101.258C101.132 77.7933 101.004 77.7773 100.884 77.733C100.765 77.6888 100.657 77.6176 100.57 77.5249C100.414 77.2656 100.344 76.9631 100.372 76.6616V75.7333H99.9297V76.6616C99.9576 76.9631 99.8883 77.2656 99.732 77.5249C99.6446 77.6176 99.537 77.6888 99.4176 77.733C99.2981 77.7773 99.1701 77.7933 99.0434 77.78H98.6303V75.7397H98.1839V77.78H96.9648V76.6196C96.9544 76.4075 96.8853 76.2025 96.7654 76.0274C96.6454 75.8522 96.4791 75.7138 96.2852 75.6275C95.9772 75.5024 95.6413 75.4623 95.3125 75.5112C94.9837 75.5601 94.674 75.6962 94.4157 75.9054V73.8715H93.9579V77.7698H92.7618V76.4359C92.7635 76.3064 92.7454 76.1774 92.7082 76.0534C92.6798 75.9567 92.6326 75.8665 92.5692 75.7881C92.5115 75.7177 92.441 75.6588 92.3614 75.6147C92.2825 75.5685 92.1962 75.5366 92.1063 75.5203C92.0168 75.5002 91.9252 75.4904 91.8334 75.491H91.4432C91.3574 75.4909 91.2718 75.5007 91.1882 75.5203C91.1006 75.5377 91.0165 75.5696 90.9395 75.6147C90.8617 75.6615 90.7916 75.72 90.7317 75.7881C90.67 75.8676 90.6229 75.9574 90.5927 76.0534C90.5569 76.1777 90.5401 76.3066 90.5429 76.4359V77.2699C90.5395 77.3992 90.5562 77.5283 90.5927 77.6525C90.6226 77.7509 90.6697 77.8432 90.7317 77.9254C90.7903 77.9949 90.8606 78.0535 90.9395 78.0988C91.0174 78.1434 91.1011 78.1768 91.1882 78.1983C91.2806 78.2085 91.3738 78.2085 91.4662 78.1983H99.0472C99.1875 78.1992 99.3274 78.1842 99.4642 78.1536C99.5915 78.1266 99.7137 78.0797 99.8264 78.0146C99.9378 77.9487 100.036 77.8621 100.115 77.7596L100.159 77.6945L100.199 77.7596C100.278 77.8621 100.376 77.9487 100.487 78.0146C100.6 78.0797 100.722 78.1266 100.849 78.1536C100.97 78.1774 101.093 78.1906 101.216 78.1931H102.12V75.5152H101.674L101.67 77.78ZM92.3155 77.78H91.4623C91.3959 77.7855 91.329 77.7763 91.2664 77.7532C91.2038 77.7301 91.1471 77.6935 91.1002 77.6461C91.013 77.5144 90.973 77.3571 90.9867 77.1998V76.5303C90.973 76.373 91.013 76.2156 91.1002 76.084C91.1441 76.038 91.1976 76.0022 91.2569 75.979C91.3161 75.9559 91.3797 75.946 91.4432 75.9501H91.8347C91.9018 75.9464 91.9689 75.9563 92.0321 75.9793C92.0952 76.0023 92.153 76.0379 92.202 76.084C92.2891 76.2156 92.3291 76.373 92.3155 76.5303V77.78ZM96.516 77.78H94.3966V76.4653C94.6104 76.246 94.8807 76.0903 95.1776 76.0154C95.4745 75.9404 95.7863 75.9491 96.0786 76.0406C96.1956 76.09 96.297 76.1703 96.3719 76.273C96.4467 76.3757 96.4921 76.4968 96.5032 76.6234L96.516 77.78Z" fill="white"/>
<path d="M91.8452 74.9244C91.8598 74.9612 91.8836 74.9938 91.9142 75.0189C91.9654 75.0278 92.0177 75.0278 92.0688 75.0189C92.12 75.027 92.1722 75.027 92.2234 75.0189C92.2591 75.002 92.2886 74.9743 92.3078 74.9397C92.3238 74.9137 92.3355 74.8852 92.3423 74.8554C92.3556 74.8047 92.3556 74.7514 92.3423 74.7008C92.3355 74.671 92.3238 74.6425 92.3078 74.6164C92.2886 74.5819 92.2591 74.5542 92.2234 74.5372C92.1738 74.5193 92.1216 74.5093 92.0688 74.5078C92.0168 74.5039 91.9645 74.509 91.9142 74.5232C91.878 74.5414 91.8472 74.5687 91.8248 74.6024C91.8121 74.6294 91.8023 74.6577 91.7954 74.6867C91.7906 74.7112 91.7906 74.7363 91.7954 74.7608C91.7902 74.787 91.7902 74.8139 91.7954 74.8401C91.8088 74.8699 91.8255 74.8982 91.8452 74.9244Z" fill="white"/>
<path d="M90.9741 74.918C90.9966 74.9517 91.0274 74.979 91.0636 74.9973C91.1147 75.0061 91.167 75.0061 91.2182 74.9973C91.2693 75.0061 91.3216 75.0061 91.3728 74.9973C91.4085 74.9803 91.438 74.9526 91.4571 74.918C91.4732 74.892 91.4848 74.8635 91.4916 74.8337C91.505 74.783 91.505 74.7298 91.4916 74.6791C91.4836 74.649 91.4707 74.6205 91.4533 74.5948C91.4341 74.5602 91.4046 74.5325 91.3689 74.5155C91.2701 74.4759 91.1598 74.4759 91.061 74.5155C91.0248 74.5338 90.994 74.5611 90.9716 74.5948C90.9589 74.6218 90.9491 74.6501 90.9422 74.6791C90.9288 74.7298 90.9288 74.783 90.9422 74.8337C90.9491 74.8627 90.9589 74.891 90.9716 74.918H90.9741Z" fill="white"/>
<path d="M106.725 74.9244C106.74 74.9612 106.764 74.9938 106.794 75.0189C106.845 75.0282 106.898 75.0282 106.949 75.0189C107 75.027 107.052 75.027 107.104 75.0189C107.139 75.002 107.169 74.9743 107.188 74.9397C107.204 74.9137 107.216 74.8852 107.222 74.8554C107.236 74.8047 107.236 74.7514 107.222 74.7008C107.216 74.671 107.204 74.6425 107.188 74.6164C107.169 74.5819 107.139 74.5542 107.104 74.5372C107.054 74.5193 107.002 74.5093 106.949 74.5078C106.897 74.5034 106.845 74.5086 106.794 74.5232C106.758 74.5414 106.727 74.5687 106.705 74.6024L106.67 74.6867C106.668 74.7114 106.668 74.7362 106.67 74.7608C106.668 74.7872 106.668 74.8137 106.67 74.8401L106.725 74.9244Z" fill="white"/>
<path d="M105.856 74.918C105.878 74.9517 105.909 74.979 105.945 74.9972C105.996 75.0065 106.048 75.0065 106.1 74.9972C106.151 75.0053 106.203 75.0053 106.254 74.9972C106.29 74.9804 106.319 74.9527 106.339 74.918C106.355 74.892 106.366 74.8635 106.373 74.8337C106.386 74.783 106.386 74.7298 106.373 74.6791C106.366 74.6493 106.355 74.6208 106.339 74.5948C106.319 74.5602 106.29 74.5325 106.254 74.5155C106.205 74.4976 106.152 74.4876 106.1 74.4861C106.047 74.4862 105.994 74.4961 105.945 74.5155C105.909 74.5337 105.878 74.561 105.856 74.5948C105.843 74.6218 105.833 74.65 105.826 74.6791C105.821 74.7036 105.821 74.7287 105.826 74.7532C105.821 74.7794 105.821 74.8063 105.826 74.8324C105.833 74.8619 105.843 74.8906 105.856 74.918Z" fill="white"/>
<path d="M116.379 78.2251V76.4398C116.38 76.3103 116.362 76.1813 116.325 76.0572C116.297 75.9596 116.25 75.8686 116.186 75.7894C116.127 75.7201 116.057 75.6615 115.978 75.616C115.9 75.5698 115.813 75.5379 115.723 75.5216C115.634 75.5015 115.542 75.4917 115.45 75.4923H115.059C114.973 75.4922 114.888 75.5021 114.804 75.5216C114.716 75.539 114.632 75.5709 114.555 75.616C114.477 75.6628 114.407 75.7212 114.347 75.7894C114.284 75.8686 114.236 75.9596 114.208 76.0572C114.173 76.1815 114.156 76.3105 114.159 76.4398V77.2738C114.155 77.4031 114.172 77.5322 114.208 77.6563C114.233 77.7503 114.277 77.8383 114.336 77.915C114.396 77.9917 114.47 78.0555 114.555 78.1026C114.633 78.1472 114.717 78.1807 114.804 78.2021C114.896 78.2124 114.99 78.2124 115.082 78.2021H115.92C115.92 78.8397 115.552 78.8971 115.24 78.8971H114.743V79.3931H115.239C115.395 79.4104 115.553 79.3918 115.701 79.3389C115.849 79.2859 115.983 79.2 116.093 79.0876C116.203 78.9752 116.286 78.8392 116.336 78.69C116.386 78.5408 116.401 78.3822 116.38 78.2263L116.379 78.2251ZM115.932 76.7764V77.7685H115.079C115.013 77.774 114.946 77.7649 114.883 77.7418C114.821 77.7186 114.764 77.6821 114.717 77.6346C114.63 77.503 114.59 77.3456 114.604 77.1883V76.5188C114.59 76.3615 114.63 76.2042 114.717 76.0725C114.761 76.0265 114.815 75.9907 114.874 75.9676C114.933 75.9445 114.997 75.9346 115.06 75.9386H115.452C115.519 75.9349 115.586 75.9449 115.649 75.9679C115.712 75.9909 115.77 76.0265 115.819 76.0725C115.906 76.2042 115.946 76.3615 115.932 76.5188V76.7764Z" fill="white"/>
<path d="M111.452 73.8805V77.7787H110.386V76.4449C110.388 76.3154 110.37 76.1864 110.332 76.0623C110.304 75.9656 110.257 75.8755 110.193 75.7971C110.074 75.6588 109.911 75.5652 109.732 75.5318C109.64 75.5115 109.547 75.5016 109.454 75.5025H109.071C108.985 75.5021 108.9 75.512 108.816 75.5318C108.729 75.5492 108.644 75.5811 108.567 75.6262C108.488 75.6703 108.417 75.7292 108.36 75.7996C108.296 75.878 108.249 75.9682 108.221 76.0649C108.188 76.1793 108.171 76.2978 108.171 76.4168V76.6999C108.191 76.9802 108.122 77.2596 107.973 77.4982C107.886 77.5905 107.779 77.6616 107.661 77.7058C107.542 77.75 107.414 77.7663 107.288 77.7532H106.792V75.5063H106.307V77.7864H105.151V76.4615C105.154 76.3322 105.137 76.2032 105.101 76.0789C105.071 75.982 105.024 75.8913 104.962 75.8111C104.902 75.7418 104.831 75.6832 104.751 75.6377C104.674 75.5925 104.59 75.5606 104.502 75.5433C104.411 75.5232 104.318 75.5134 104.224 75.514H103.828C103.742 75.5132 103.656 75.5231 103.572 75.5433C103.483 75.5604 103.397 75.5923 103.317 75.6377C103.24 75.6845 103.17 75.7429 103.11 75.8111C103.048 75.8913 103.001 75.982 102.971 76.0789C102.935 76.2032 102.918 76.3322 102.921 76.4615V77.2954C102.917 77.4248 102.934 77.5538 102.971 77.678C103.001 77.7764 103.048 77.8688 103.11 77.9509C103.168 78.0204 103.239 78.0791 103.317 78.1243C103.397 78.1691 103.483 78.2026 103.572 78.2238C103.663 78.234 103.755 78.234 103.845 78.2238H104.681C104.681 78.8614 104.318 78.9188 104.006 78.9188H103.51V79.4148H104.006C104.164 79.4329 104.324 79.4142 104.474 79.3602C104.623 79.3062 104.758 79.2184 104.868 79.1035C104.978 78.9887 105.06 78.8501 105.108 78.6983C105.155 78.5466 105.167 78.3859 105.142 78.2289H107.295C107.435 78.2299 107.575 78.2149 107.712 78.1843C107.839 78.1563 107.961 78.1094 108.074 78.0453C108.166 77.986 108.248 77.9124 108.316 77.8272C108.331 77.864 108.349 77.8994 108.37 77.933C108.426 78.0048 108.497 78.0639 108.578 78.1065C108.655 78.1511 108.739 78.1846 108.826 78.2059C108.919 78.2164 109.012 78.2164 109.104 78.2059H111.91V73.8588L111.452 73.8805ZM104.693 76.7777V77.7698H103.845C103.778 77.7757 103.71 77.7668 103.647 77.7437C103.583 77.7205 103.526 77.6837 103.478 77.6359C103.391 77.5042 103.351 77.3469 103.365 77.1896V76.5201C103.351 76.3628 103.391 76.2055 103.478 76.0738C103.522 76.0278 103.576 75.992 103.635 75.9689C103.694 75.9457 103.758 75.9358 103.821 75.9399H104.215C104.282 75.934 104.35 75.9429 104.414 75.966C104.477 75.9892 104.535 76.026 104.582 76.0738C104.672 76.2045 104.712 76.3626 104.696 76.5201L104.693 76.7777ZM109.936 77.7698H109.086C109.02 77.7757 108.953 77.7667 108.89 77.7435C108.828 77.7204 108.771 77.6836 108.724 77.6359C108.635 77.5052 108.595 77.3471 108.611 77.1896V76.5201C108.595 76.3626 108.635 76.2045 108.724 76.0738C108.767 76.0284 108.82 75.9929 108.878 75.9695C108.936 75.9462 108.998 75.9357 109.061 75.9386H109.444C109.511 75.9324 109.579 75.9411 109.642 75.9643C109.706 75.9874 109.763 76.0244 109.811 76.0725C109.902 76.2023 109.945 76.3606 109.931 76.5188L109.936 77.7698Z" fill="white"/>
<path d="M68.4248 30.1616V68.8512" stroke="white" stroke-width="1.5"/>
<path d="M4.88789 40.8209L2.81951 42.4481L1.02785 40.2701C1.69104 39.5668 2.45259 38.9633 3.28878 38.4784C3.78526 39.1033 4.21713 39.6558 4.58439 40.1362C5.23425 39.5132 5.94562 38.9578 6.7076 38.4784L8.44442 40.7113L6.23833 42.4481L4.88789 40.8209ZM5.24622 43.8266C7.09979 46.4012 8.37836 49.3441 8.99531 52.4559C8.82123 53.397 8.53437 54.3137 8.14093 55.1861C7.07324 55.7649 5.88158 56.0772 4.66728 56.0966C3.55503 56.1116 2.47093 55.7468 1.59404 55.0624C1.17995 54.7721 0.842099 54.386 0.609205 53.9371C0.37631 53.4882 0.255262 52.9897 0.256355 52.4839C0.282101 51.3735 0.622606 50.2932 1.23826 49.3686C1.87024 48.3428 2.69938 47.4526 3.67772 46.7494L2.76723 45.7292C3.38257 44.8593 4.24678 44.196 5.24622 43.8266ZM5.30105 53.1458C5.80648 53.1439 6.30533 53.0312 6.76243 52.8155C6.33347 51.2043 5.67556 49.6631 4.80882 48.2388C3.60155 49.1499 2.72052 50.4263 2.29668 51.8782C2.64048 52.3368 3.09995 52.6958 3.62805 52.9185C4.15616 53.1413 4.73269 53.2197 5.30105 53.1458ZM19.8307 53.1458C19.8492 53.1442 19.8678 53.1467 19.8852 53.1531C19.9026 53.1595 19.9184 53.1696 19.9315 53.1827C19.9446 53.1958 19.9547 53.2116 19.9611 53.229C19.9675 53.2464 19.97 53.265 19.9684 53.2835V55.9589C19.97 55.9773 19.9675 55.9959 19.9611 56.0133C19.9547 56.0308 19.9446 56.0466 19.9315 56.0597C19.9184 56.0728 19.9026 56.0829 19.8852 56.0893C19.8678 56.0956 19.8492 56.0981 19.8307 56.0966C19.3434 56.1404 18.8524 56.0739 18.3943 55.9019C17.9362 55.7299 17.5228 55.4569 17.1847 55.1032C16.7948 56.5144 16.0769 57.8134 15.0895 58.8944C13.9553 60.1946 12.614 61.2985 11.1198 62.1614C10.2063 61.6141 9.45463 60.8338 8.94175 59.9005C12.1952 58.2096 14.2997 56.3074 15.2553 54.194C14.8341 52.0938 14.0203 50.092 12.8566 48.2936C13.6556 47.6093 14.613 47.1354 15.6417 46.9151C16.4767 48.6617 17.017 50.5343 17.2408 52.4572C18.0153 52.9427 18.9173 53.1827 19.8307 53.1458ZM35.2708 53.1458C35.2893 53.1442 35.3079 53.1467 35.3253 53.1531C35.3427 53.1595 35.3585 53.1696 35.3717 53.1827C35.3848 53.1958 35.3949 53.2116 35.4012 53.229C35.4076 53.2464 35.4101 53.265 35.4086 53.2835V55.9589C35.4101 55.9773 35.4076 55.9959 35.4012 56.0133C35.3949 56.0308 35.3848 56.0466 35.3717 56.0597C35.3585 56.0728 35.3427 56.0829 35.3253 56.0893C35.3079 56.0956 35.2893 56.0981 35.2708 56.0966C34.7481 56.1078 34.2305 55.9905 33.7636 55.755C33.2967 55.5196 32.8947 55.1732 32.5929 54.7461C32.2469 55.254 31.829 55.7089 31.3521 56.0966H19.8307C19.8122 56.0981 19.7949 56.0956 19.7775 56.0893C19.7601 56.0829 19.7443 56.0728 19.7312 56.0597C19.718 56.0466 19.708 56.0308 19.7016 56.0133C19.6952 55.9959 19.6927 55.9773 19.6943 55.9589V53.2809C19.6927 53.2625 19.6952 53.2439 19.7016 53.2265C19.708 53.209 19.718 53.1932 19.7312 53.1801C19.7443 53.167 19.7601 53.1569 19.7775 53.1505C19.7949 53.1442 19.8135 53.1417 19.832 53.1432H30.3639V52.9226C30.3639 50.2761 28.4341 48.9529 24.5744 48.9529C23.7341 48.9494 22.8948 49.0138 22.0649 49.1455C21.4393 48.6097 20.9881 47.8992 20.7692 47.1051C21.9426 45.5176 23.2234 44.0123 24.6025 42.5999C26.0075 41.1194 27.5087 39.7332 29.0963 38.4503C29.6488 38.5094 30.1817 38.6883 30.6579 38.9747C31.1341 39.261 31.5421 39.6478 31.8533 40.1081C28.9799 42.0091 26.2853 44.1676 23.803 46.5568C24.4568 46.3703 25.1356 46.2864 25.8152 46.3081C27.6425 46.2311 29.4356 46.8202 30.8612 47.9659C31.5257 48.5568 32.0489 49.2893 32.3923 50.1095C32.7358 50.9297 32.8906 51.8165 32.8454 52.7046C33.607 53.0447 34.4382 53.196 35.2708 53.1458ZM41.0883 42.9442L39.3234 40.7661C39.9685 40.0622 40.7224 39.4663 41.5563 39.0012L43.2931 41.2073L41.0883 42.9442ZM35.2708 56.0966C35.2524 56.0981 35.235 56.0956 35.2176 56.0893C35.2002 56.0829 35.1844 56.0728 35.1713 56.0597C35.1582 56.0466 35.1481 56.0308 35.1417 56.0133C35.1353 55.9959 35.1328 55.9773 35.1344 55.9589V53.3115C35.1328 53.2931 35.1353 53.2745 35.1417 53.2571C35.1481 53.2397 35.1582 53.2238 35.1713 53.2107C35.1844 53.1976 35.2002 53.1875 35.2176 53.1812C35.235 53.1748 35.2536 53.1723 35.2721 53.1738H38.9702C37.5182 52.4385 36.7922 51.5377 36.7922 50.4717C36.8512 49.1456 37.3733 47.8821 38.2676 46.9011C38.6607 46.3547 39.1755 45.9071 39.7712 45.5938C40.367 45.2804 41.0274 45.1098 41.7004 45.0954C42.2901 45.0953 42.8721 45.2293 43.4024 45.4873C43.9326 45.7454 44.3972 46.1207 44.7609 46.5849C45.6398 47.6741 46.091 49.0466 46.0297 50.4449C45.9639 52.4498 45.3644 54.4008 44.2929 56.0966H35.2708ZM42.7716 52.98C43.1283 52.1727 43.307 51.2981 43.2957 50.4156C43.3212 49.7493 43.1326 49.0923 42.7575 48.541C42.6064 48.3101 42.3997 48.1209 42.1564 47.9908C41.9131 47.8607 41.641 47.7938 41.365 47.7963C41.07 47.8065 40.7804 47.878 40.5145 48.0062C40.2487 48.1344 40.0124 48.3165 39.8208 48.541C39.3361 49.05 38.9939 49.6776 38.8287 50.3607C39.7811 51.6839 41.1827 52.615 42.7716 52.98Z" fill="white"/>
</g>
<defs>
<clipPath id="clip0_1531_11821">
<rect width="188.744" height="99.0036" fill="white" transform="translate(0.256348 0.49823)"/>
</clipPath>
</defs>
</svg>
