<svg width="51" height="50" viewBox="0 0 51 50" fill="none" xmlns="http://www.w3.org/2000/svg">
<path d="M22.4575 35.0992C22.3534 35.1878 22.2301 35.2508 22.0973 35.2834C21.9646 35.3159 21.8261 35.3171 21.6929 35.2868C21.5596 35.2564 21.4353 35.1954 21.3297 35.1086C21.2242 35.0218 21.1403 34.9116 21.0848 34.7867L19.4611 31.1318L18.2657 31.4453L13.6309 42.6979C13.6167 42.7323 13.6127 42.7701 13.6193 42.8067C13.6259 42.8434 13.6428 42.8774 13.6681 42.9048C13.6934 42.9321 13.726 42.9516 13.7621 42.9611C13.7981 42.9705 13.8361 42.9694 13.8715 42.958L17.6206 41.7438C18.0236 41.6151 18.4595 41.6354 18.8488 41.8009C19.2381 41.9663 19.5551 42.2661 19.7421 42.6456L21.3842 46.0121C21.4007 46.046 21.4267 46.0744 21.459 46.0939C21.4913 46.1133 21.5286 46.123 21.5663 46.1218C21.604 46.1205 21.6405 46.1084 21.6714 46.0868C21.7024 46.0653 21.7264 46.0352 21.7407 46.0003L24.7125 38.7216L23.0308 34.6113L22.4575 35.0992Z" fill="#2A6490"/>
<path d="M32.8695 31.4804L31.5388 31.1318L29.9152 34.7867C29.8594 34.9114 29.7755 35.0215 29.6699 35.1083C29.5644 35.1951 29.4402 35.2562 29.307 35.2868C29.2436 35.3012 29.1787 35.3085 29.1136 35.3085C28.9045 35.3086 28.7022 35.2345 28.5426 35.0994L25.5 32.5103L24.2832 33.5454L29.259 45.7063C29.2719 45.7421 29.2957 45.7731 29.3269 45.7949C29.3582 45.8167 29.3955 45.8283 29.4336 45.8281C29.4715 45.8306 29.5092 45.8214 29.5417 45.8018C29.5743 45.7822 29.6 45.7532 29.6156 45.7186L31.2577 42.352C31.4447 41.9725 31.7616 41.6727 32.151 41.5072C32.5404 41.3418 32.9762 41.3216 33.3792 41.4504L37.1282 42.6644C37.1637 42.6758 37.2016 42.6769 37.2377 42.6675C37.2737 42.658 37.3063 42.6385 37.3316 42.6112C37.3569 42.5838 37.3739 42.5498 37.3805 42.5132C37.3871 42.4765 37.3831 42.4388 37.3689 42.4043L32.8695 31.4804Z" fill="#2A6490"/>
<path d="M25.4996 9.98535C23.7963 9.98533 22.1312 10.4904 20.7149 11.4367C19.2986 12.383 18.1947 13.7281 17.5428 15.3018C16.891 16.8755 16.7204 18.6071 17.0527 20.2777C17.385 21.9484 18.2052 23.4829 19.4096 24.6874C20.6141 25.8919 22.1486 26.7121 23.8192 27.0445C25.4899 27.3768 27.2215 27.2063 28.7952 26.5544C30.3689 25.9026 31.714 24.7988 32.6603 23.3825C33.6067 21.9662 34.1118 20.3011 34.1118 18.5978C34.1093 16.3144 33.2012 14.1253 31.5866 12.5107C29.9721 10.8961 27.783 9.98791 25.4996 9.98535ZM25.4996 18.1018C26.3603 18.1017 27.1903 18.4216 27.8283 18.9992C28.4663 19.5769 28.8668 20.3711 28.952 21.2275C29.0373 22.084 28.8011 22.9415 28.2894 23.6336C27.7777 24.3256 27.027 24.8027 26.1832 24.9723V25.879C26.1832 26.0862 26.1009 26.2849 25.9544 26.4314C25.8079 26.5779 25.6092 26.6603 25.402 26.6603C25.1948 26.6603 24.996 26.5779 24.8495 26.4314C24.703 26.2849 24.6207 26.0862 24.6207 25.879V24.9272C23.8792 24.7319 23.2231 24.2969 22.7546 23.6899C22.286 23.0828 22.0315 22.3379 22.0305 21.5711C22.0305 21.3639 22.1128 21.1652 22.2593 21.0187C22.4058 20.8722 22.6045 20.7898 22.8117 20.7898C23.0189 20.7898 23.2176 20.8722 23.3641 21.0187C23.5107 21.1652 23.593 21.3639 23.593 21.5711C23.593 21.9482 23.7049 22.3168 23.9144 22.6303C24.1239 22.9438 24.4217 23.1882 24.7701 23.3325C25.1185 23.4767 25.5019 23.5145 25.8717 23.4409C26.2415 23.3673 26.5813 23.1857 26.8479 22.919C27.1145 22.6524 27.2961 22.3126 27.3696 21.9428C27.4432 21.5729 27.4054 21.1896 27.2611 20.8412C27.1168 20.4928 26.8724 20.1951 26.5589 19.9856C26.2453 19.7761 25.8767 19.6643 25.4996 19.6643C24.6563 19.6642 23.8419 19.3569 23.2087 18.8C22.5755 18.243 22.1669 17.4745 22.0592 16.6381C21.9515 15.8017 22.1521 14.9547 22.6235 14.2555C23.095 13.5563 23.805 13.0528 24.6207 12.8391V11.7188C24.6207 11.5116 24.703 11.3129 24.8495 11.1664C24.996 11.0199 25.1948 10.9376 25.402 10.9376C25.6092 10.9376 25.8079 11.0199 25.9544 11.1664C26.1009 11.3129 26.1832 11.5116 26.1832 11.7188V12.7939C26.9684 12.9529 27.6746 13.3782 28.1822 13.998C28.6898 14.6178 28.9677 15.394 28.9688 16.1951C28.9688 16.4023 28.8864 16.601 28.7399 16.7475C28.5934 16.8941 28.3947 16.9764 28.1875 16.9764C27.9803 16.9764 27.7816 16.8941 27.6351 16.7475C27.4886 16.601 27.4063 16.4023 27.4063 16.1951C27.4063 15.818 27.2944 15.4494 27.0849 15.1358C26.8754 14.8223 26.5776 14.5779 26.2293 14.4336C25.8809 14.2893 25.4975 14.2515 25.1276 14.3251C24.7578 14.3987 24.4181 14.5803 24.1514 14.8469C23.8848 15.1136 23.7032 15.4533 23.6296 15.8232C23.556 16.193 23.5938 16.5764 23.7381 16.9248C23.8824 17.2732 24.1268 17.5709 24.4403 17.7804C24.7539 17.9899 25.1225 18.1018 25.4996 18.1018Z" fill="#2A6490"/>
<path d="M37.6645 20.7955L40.5949 18.5947L37.6652 16.4007C37.498 16.2763 37.3807 16.0963 37.3343 15.8932C37.2879 15.69 37.3154 15.4769 37.412 15.2923L39.0984 12.0459L35.5096 11.3474C35.3047 11.3082 35.1205 11.1971 34.9902 11.0342C34.86 10.8713 34.7922 10.6672 34.799 10.4587L34.9139 6.79453L31.3727 7.72227C31.1711 7.77548 30.9571 7.75511 30.7692 7.6648C30.5812 7.57448 30.4317 7.42015 30.3473 7.22949L28.8592 3.87891L26.0702 6.25195C25.9116 6.38794 25.7095 6.46268 25.5005 6.46268C25.2916 6.46268 25.0895 6.38794 24.9309 6.25195L22.142 3.87891L20.6538 7.22852C20.5695 7.4193 20.42 7.57378 20.2321 7.66423C20.0441 7.75467 19.8301 7.77514 19.6284 7.72197L16.0867 6.79424L16.2011 10.4569C16.2082 10.6656 16.1405 10.87 16.0103 11.0332C15.88 11.1964 15.6957 11.3078 15.4906 11.3471L11.9018 12.0456L13.5881 15.2918C13.6847 15.4766 13.7122 15.6898 13.6657 15.893C13.6191 16.0963 13.5016 16.2763 13.3342 16.4006L10.4048 18.594L13.3352 20.7948C13.5017 20.9193 13.6186 21.0989 13.6649 21.3016C13.7113 21.5043 13.684 21.7168 13.588 21.9013L11.9009 25.1493L15.4896 25.8479C15.6945 25.887 15.8787 25.9981 16.009 26.161C16.1392 26.3239 16.2071 26.528 16.2002 26.7365L16.0857 30.4007L19.627 29.4729C19.8285 29.4197 20.0425 29.44 20.2305 29.5303C20.4184 29.6207 20.568 29.775 20.6523 29.9657L22.1408 33.3163L24.9298 30.9433C25.0884 30.8073 25.2905 30.7325 25.4995 30.7325C25.7084 30.7325 25.9105 30.8073 26.0691 30.9433L28.858 33.3163L30.3462 29.9667C30.4305 29.7759 30.58 29.6214 30.7679 29.531C30.9559 29.4405 31.1699 29.4201 31.3716 29.4732L34.9133 30.401L34.7994 26.7389C34.7923 26.5302 34.8599 26.3258 34.9902 26.1626C35.1205 25.9994 35.3048 25.8881 35.5099 25.8487L39.0987 25.1502L37.4123 21.9036C37.316 21.719 37.2884 21.5062 37.3346 21.3032C37.3809 21.1002 37.4978 20.9202 37.6645 20.7955ZM25.4998 28.7726C23.4874 28.7726 21.5202 28.1759 19.847 27.0578C18.1737 25.9398 16.8696 24.3508 16.0995 22.4916C15.3293 20.6324 15.1278 18.5866 15.5204 16.6128C15.913 14.6391 16.882 12.8261 18.305 11.4031C19.7279 9.98016 21.5409 9.01109 23.5146 8.61847C25.4883 8.22586 27.5341 8.42733 29.3933 9.19742C31.2526 9.96751 32.8417 11.2716 33.9597 12.9449C35.0777 14.6181 35.6745 16.5853 35.6745 18.5977C35.6715 21.2953 34.5986 23.8815 32.6911 25.789C30.7836 27.6965 28.1974 28.7695 25.4998 28.7726Z" fill="#2A6490"/>
<circle cx="25.5" cy="18.5" r="8.5" fill="#2A6490"/>
</svg>
