<svg width="51" height="50" viewBox="0 0 51 50" fill="none" xmlns="http://www.w3.org/2000/svg">
<g clip-path="url(#clip0_1184_11843)">
<path d="M50.337 2.11925C50.2283 1.03229 49.4131 0.217072 48.3261 0.108376C34.5761 -0.97858 24.7392 5.7062 18.5979 14.0758C15.2283 12.9888 11.587 13.3692 8.2718 15.2171C5.06528 17.0105 2.40224 20.054 0.663107 23.7497C0.282672 24.6192 0.445716 25.5975 1.15224 26.2497C1.80441 26.9019 2.83702 27.0105 3.65224 26.5758C7.1305 24.7279 11.0435 25.1084 13.3805 27.4453L22.9457 37.0105L23.0001 37.0649C25.337 39.4019 25.7175 43.3149 23.8696 46.7932C23.4348 47.6084 23.5979 48.641 24.1957 49.2932C24.6305 49.7279 25.174 49.9453 25.7718 49.9453C26.0979 49.9453 26.424 49.891 26.6957 49.7279C30.3914 47.9888 33.4348 45.2714 35.2283 42.1192C37.1305 38.804 37.5109 35.1627 36.3696 31.7388C38.8153 29.9453 41.0435 27.9888 42.8914 25.8149C48.6522 19.2388 51.1522 11.2497 50.337 2.11925ZM7.78267 21.0866C10.1196 18.804 13.0544 17.391 16.1522 17.9345C15.2827 19.4562 14.5761 20.9779 13.924 22.4997C12.0761 21.4671 9.95658 20.9779 7.78267 21.0866ZM29.4675 42.7171C29.5218 40.4888 29.0327 38.3692 28.0544 36.5214C29.6305 35.8692 31.1522 35.1084 32.6196 34.2932C33.1631 37.391 31.8044 40.3801 29.4675 42.7171ZM25.1196 32.9888L17.4566 25.3258C21.3153 15.054 30.8805 4.07577 46.1522 4.34751C46.6414 22.554 31.6414 30.4345 25.1196 32.9888ZM39.1957 11.304C39.8479 11.9562 40.2283 12.8801 40.2283 13.804C40.2283 14.7279 39.8479 15.6519 39.1957 16.304C38.5435 16.9562 37.6196 17.3366 36.6957 17.3366C35.7718 17.3366 34.8479 17.0105 34.1957 16.304C33.5435 15.5975 33.1631 14.7279 33.1631 13.804C33.1631 12.8801 33.5435 11.9562 34.1957 11.304C34.8479 10.6519 35.7718 10.2714 36.6957 10.2714C37.6196 10.2714 38.5435 10.6519 39.1957 11.304ZM8.59789 33.9127C6.09789 36.4127 5.98919 41.4127 5.98919 42.391C5.98919 43.5866 6.96745 44.5649 8.16311 44.5649H8.21745C9.35876 44.5649 14.1414 44.4019 16.587 41.9562C18.1088 40.4345 18.4348 38.8584 18.4348 37.8258C18.4348 36.3584 17.837 34.9453 16.6957 33.804C13.9783 31.0323 10.5544 31.9019 8.59789 33.9127ZM13.5435 38.8584C13.0001 39.4019 11.8044 39.7823 10.5544 39.9453C10.7718 38.6953 11.1522 37.4997 11.6414 37.0105C12.0218 36.6301 12.3479 36.4127 12.7283 36.4127C13.0001 36.4127 13.3261 36.5758 13.6522 36.9019C13.9783 37.2279 14.1414 37.554 14.1414 37.8258C14.087 38.1519 13.8153 38.5866 13.5435 38.8584Z" fill="#2A6490"/>
</g>
<defs>
<clipPath id="clip0_1184_11843">
<rect width="50" height="50" fill="white" transform="translate(0.5)"/>
</clipPath>
</defs>
</svg>
