<svg width="38" height="38" viewBox="0 0 38 38" fill="none" xmlns="http://www.w3.org/2000/svg">
<g clip-path="url(#clip0_2021_1902)">
<path opacity="0.3" fill-rule="evenodd" clip-rule="evenodd" d="M5.6875 25H8.8125C9.67545 25 10.375 24.3004 10.375 23.4375C10.375 22.5746 9.67545 21.875 8.8125 21.875H5.6875V18.75H8.8125C9.67545 18.75 10.375 18.0504 10.375 17.1875C10.375 16.3246 9.67545 15.625 8.8125 15.625H5.6875V12.5H8.8125C9.67545 12.5 10.375 11.8004 10.375 10.9375C10.375 10.0746 9.67545 9.375 8.8125 9.375H5.6875V6.25C5.6875 5.38706 6.38706 4.6875 7.25 4.6875H16.625C17.4879 4.6875 18.1875 5.38706 18.1875 6.25V29.6875C18.1875 30.5504 17.4879 31.25 16.625 31.25H7.25C6.38706 31.25 5.6875 30.5504 5.6875 29.6875V25Z" fill="#2A6490"/>
<path fill-rule="evenodd" clip-rule="evenodd" d="M26 4.6875H30.6875C32.4134 4.6875 33.8125 6.08661 33.8125 7.8125V23.8258C33.8125 24.5828 33.5378 25.314 33.0393 25.8837L28.9317 30.5781C28.6476 30.9028 28.154 30.9357 27.8293 30.6516C27.8032 30.6287 27.7786 30.6042 27.7558 30.5781L23.6482 25.8837C23.1497 25.314 22.875 24.5828 22.875 23.8258V7.8125C22.875 6.08661 24.2741 4.6875 26 4.6875Z" fill="#2A6490"/>
</g>
<defs>
<clipPath id="clip0_2021_1902">
<rect width="37.5" height="37.5" fill="white" transform="translate(0.5)"/>
</clipPath>
</defs>
</svg>
