<svg width="166" height="167" viewBox="0 0 166 167" fill="none" xmlns="http://www.w3.org/2000/svg">
<rect x="3.3125" y="3.71289" width="159.375" height="159.375" rx="79.6875" fill="#E8F1F8"/>
<path d="M39.9688 106.796H49.5312V125.921H39.9688V106.796ZM59.0938 97.2334H68.6562V125.921H59.0938V97.2334ZM78.2188 87.6709H87.7812V125.921H78.2188V87.6709ZM97.3438 106.796H106.906V125.921H97.3438V106.796ZM116.469 106.796H126.031V125.921H116.469V106.796ZM83 63.7646V39.8584H59.0938L83 63.7646Z" fill="#2A6490"/>
<path d="M39.9697 76.127L71.046 45.0496L77.8078 51.8112L46.7316 82.8885L39.9697 76.127Z" fill="#2A6490"/>
<path d="M126.031 78.1084C126.031 82.8896 123.163 89.5834 116.469 91.4959V97.2334H106.906V91.4959C100.213 89.5834 97.3438 82.8896 97.3438 78.1084H106.906C106.906 80.499 107.863 82.8896 111.688 82.8896C115.513 82.8896 116.469 80.499 116.469 78.1084C116.469 75.7178 115.513 75.2396 109.775 72.849C104.994 70.9365 97.3438 68.0678 97.3438 58.9834C97.3438 51.3334 102.125 47.0303 106.906 45.5959V39.8584H116.469V45.5959C123.163 47.5084 126.031 54.2021 126.031 58.9834H121.25H116.469C116.469 56.5928 115.513 54.2021 111.688 54.2021C109.297 54.2021 106.906 55.1584 106.906 58.9834C106.906 61.374 107.862 61.8521 113.6 64.2428C118.381 66.1553 126.031 69.024 126.031 78.1084Z" fill="#2A6490"/>
<rect x="3.3125" y="3.71289" width="159.375" height="159.375" rx="79.6875" stroke="white" stroke-width="6.375"/>
</svg>
