<svg width="38" height="38" viewBox="0 0 38 38" fill="none" xmlns="http://www.w3.org/2000/svg">
<path opacity="0.3" d="M6.75 12.5H13V23.4375H6.75V12.5Z" fill="#2A6490"/>
<path d="M30.9688 4.6875H17.6875V7.8125H30.1875V21.875H17.6875V25H30.9688C32.2609 25 33.3125 23.9484 33.3125 22.6562V7.03125C33.3125 5.73906 32.2609 4.6875 30.9688 4.6875ZM9.875 3.125C9.0462 3.125 8.25134 3.45424 7.66529 4.04029C7.07924 4.62634 6.75 5.4212 6.75 6.25C6.75 7.0788 7.07924 7.87366 7.66529 8.45971C8.25134 9.04576 9.0462 9.375 9.875 9.375C10.7038 9.375 11.4987 9.04576 12.0847 8.45971C12.6708 7.87366 13 7.0788 13 6.25C13 5.4212 12.6708 4.62634 12.0847 4.04029C11.4987 3.45424 10.7038 3.125 9.875 3.125ZM8.3125 10.9375C6.58594 10.9375 5.1875 12.3359 5.1875 14.0625V25H14.5625V10.9375H8.3125ZM11.4375 21.875H8.3125V14.0625H11.4375V21.875Z" fill="#2A6490"/>
<path d="M13 10.9375H23.9375V14.0625H13V10.9375ZM11.4375 23.4375H14.5625V34.375H11.4375V23.4375ZM5.1875 23.4375H8.3125V34.375H5.1875V23.4375ZM20.675 23.4375L25.3625 34.375H28.7625L24.075 23.4375H20.675Z" fill="#2A6490"/>
<path opacity="0.3" d="M17.6875 6.25H31.75V23.4375H17.6875V6.25Z" fill="#2A6490"/>
</svg>
