<svg width="64" height="44" viewBox="0 0 64 44" fill="none" xmlns="http://www.w3.org/2000/svg">
<rect width="64" height="44" rx="22" fill="white"/>
<path opacity="0.25" d="M40.9997 17.5C41.4997 25 35.9997 31 28.9997 31C26.5878 31 24.1759 30.6768 22.2836 29.7706C21.8503 29.5631 22.0197 28.985 22.4991 28.9532C24.8292 28.7987 26.7574 28.2423 27.9997 27C30.9999 24 31.4998 23 32.2644 19.024C32.0931 18.548 31.9997 18.0349 31.9997 17.5C31.9997 15.0147 34.0145 13 36.4997 13C38.0179 13 39.3605 13.7518 40.1755 14.9035L41.8927 14.6582C42.3205 14.597 42.6192 15.0709 42.3794 15.4305L40.9997 17.5Z" fill="#12131A"/>
<path d="M27.9997 26.9999C22.5833 25.1944 21.649 18.4994 22.622 15.0071C22.7363 14.597 23.2694 14.5949 23.4843 14.9623C25.1458 17.8036 28.3049 19.3899 32.2644 19.0239C38.4998 19.0239 36.9998 29.9999 27.9997 26.9999Z" fill="#12131A"/>
</svg>
