<svg viewBox="0 0 24 24" xmlns="http://www.w3.org/2000/svg"><path d="M19.01 4.94C17.11 3.04 14.6 2 11.94 2c-5.46 0-9.89 4.46-9.89 9.94 -.001 1.65.4 3.26 1.16 4.67l-1.19 4.45c-.07.25 0 .53.19.72 .14.14.33.22.53.22 .06 0 .13-.01.19-.02l4.56-1.2c1.38.72 2.91 1.1 4.43 1.1 5.55 0 10.06-4.46 10.06-9.94 0-2.58-1.06-5.07-2.99-7Zm-2.84 10.31l-.84.83c-.88.88-3.2-.08-5.27-2.15 -2.07-2.06-3-4.39-2.16-5.27l.83-.84c.1-.08.31-.23.58-.24 .25 0 .42.11.6.23 .72.5 1.09.74 1.23 1.22 .17.58-.05 1.11-.15 1.31 .06.3.26 1.1.97 1.79 .71.7 1.51.9 1.81.96 .19-.13.64-.39 1.15-.28 .43.09.69.48 1.23 1.23 .11.16.22.34.23.58 0 .29-.15.51-.23.61Z"/></svg>