<svg width="64" height="44" viewBox="0 0 64 44" fill="none" xmlns="http://www.w3.org/2000/svg">
<rect width="64" height="44" rx="22" fill="white"/>
<path opacity="0.25" d="M20.2047 17.686C20.3501 15.8209 21.821 14.3617 23.6883 14.2461C25.6854 14.1224 28.5367 14 32 14C35.4633 14 38.3146 14.1224 40.3117 14.2461C42.179 14.3617 43.6499 15.8209 43.7953 17.686C43.9035 19.0743 44 20.6819 44 22C44 23.3181 43.9035 24.9257 43.7953 26.314C43.6499 28.1791 42.179 29.6383 40.3117 29.7539C38.3146 29.8776 35.4633 30 32 30C28.5367 30 25.6854 29.8776 23.6883 29.7539C21.821 29.6383 20.3501 28.1791 20.2047 26.314C20.0965 24.9257 20 23.3181 20 22C20 20.6819 20.0965 19.0743 20.2047 17.686Z" fill="#12131A"/>
<path d="M31.5547 19.0363L34.752 21.1678C35.3457 21.5636 35.3457 22.4361 34.752 22.8319L31.5547 24.9634C30.8902 25.4064 30 24.93 30 24.1313V19.8684C30 19.0697 30.8902 18.5933 31.5547 19.0363Z" fill="#12131A"/>
</svg>
