<svg width="38" height="38" viewBox="0 0 38 38" fill="none" xmlns="http://www.w3.org/2000/svg">
<path opacity="0.3" d="M7.25 7.3125H32.25V30.75H7.25V7.3125Z" fill="#2A6490"/>
<path d="M30.6875 4.1875H24.15C23.5047 2.37031 21.7875 1.0625 19.75 1.0625C17.7125 1.0625 15.9953 2.37031 15.35 4.1875H8.8125C7.08594 4.1875 5.6875 5.58594 5.6875 7.3125V29.1875C5.6875 30.9141 7.08594 32.3125 8.8125 32.3125H30.6875C32.4141 32.3125 33.8125 30.9141 33.8125 29.1875V7.3125C33.8125 5.58594 32.4141 4.1875 30.6875 4.1875ZM18.1875 24.5H11.9375V21.375H18.1875V24.5ZM18.1875 16.6875H11.9375V13.5625H18.1875V16.6875ZM19.75 7.3125C18.8875 7.3125 18.1875 6.6125 18.1875 5.75C18.1875 4.8875 18.8875 4.1875 19.75 4.1875C20.6125 4.1875 21.3125 4.8875 21.3125 5.75C21.3125 6.6125 20.6125 7.3125 19.75 7.3125ZM25.0844 24.5H21.3125V21.375H23.7906L26.9156 18.25L29.125 20.4594L25.0844 24.5ZM25.0844 16.6875H21.3125V13.5625H23.7906L26.9156 10.4375L29.125 12.6469L25.0844 16.6875ZM30.6875 29.1875H8.8125V7.3125H30.6875V29.1875Z" fill="#2A6490"/>
</svg>
