<svg width="60" height="60" viewBox="0 0 60 60" fill="none" xmlns="http://www.w3.org/2000/svg">
<g id="icons8-new-company 1" clip-path="url(#clip0_2924_45815)">
<path id="Vector" d="M22.5 17.5H27.5V22.5H22.5V17.5ZM22.5 27.5H27.5V32.5H22.5V27.5ZM22.5 37.5H27.5V42.5H22.5V37.5ZM32.5 17.5H37.5V22.5H32.5V17.5ZM32.5 27.5H37.5V32.5H32.5V27.5ZM47.5 60C46.75 60 46.25 59.75 45.75 59.25L44 57.5H40C38.5 57.5 37.5 56.5 37.5 55V51L35.75 49.25C34.75 48.25 34.75 46.75 35.75 45.75L37.5 44V40C37.5 38.5 38.5 37.5 40 37.5H44L45.75 35.75C46.75 34.75 48.25 34.75 49.25 35.75L51 37.5H55C56.5 37.5 57.5 38.5 57.5 40V44L59.25 45.75C60.25 46.75 60.25 48.25 59.25 49.25L57.5 51V55C57.5 56.5 56.5 57.5 55 57.5H51L49.25 59.25C48.75 59.75 48.25 60 47.5 60ZM42.5 52.5H45C45.75 52.5 46.25 52.75 46.75 53.25L47.5 54L48.25 53.25C48.75 52.75 49.25 52.5 50 52.5H52.5V50C52.5 49.25 52.75 48.75 53.25 48.25L54 47.5L53.25 46.75C52.75 46.25 52.5 45.75 52.5 45V42.5H50C49.25 42.5 48.75 42.25 48.25 41.75L47.5 41L46.75 41.75C46.25 42.25 45.75 42.5 45 42.5H42.5V45C42.5 45.75 42.25 46.25 41.75 46.75L41 47.5L41.75 48.25C42.25 48.75 42.5 49.25 42.5 50V52.5Z" fill="#2A6490"/>
<path id="Vector_2" d="M30 47.5H17.5V12.5H42.5V32C44 30.75 45.75 30 47.5 30V12.5C47.5 9.75 45.25 7.5 42.5 7.5H17.5C14.75 7.5 12.5 9.75 12.5 12.5V52.5H32C30.75 51 30 49.25 30 47.5Z" fill="#2A6490"/>
</g>
<defs>
<clipPath id="clip0_2924_45815">
<rect width="60" height="60" fill="white"/>
</clipPath>
</defs>
</svg>
