<svg width="48" height="48" viewBox="0 0 48 48" fill="none" xmlns="http://www.w3.org/2000/svg">
<g id="icons8-connected-people 1">
<path id="Vector" d="M11 18C7.14 18 4 14.86 4 11C4 7.14 7.14 4 11 4C14.86 4 18 7.14 18 11C18 14.86 14.86 18 11 18ZM11 8C9.346 8 8 9.346 8 11C8 12.654 9.346 14 11 14C12.654 14 14 12.654 14 11C14 9.346 12.654 8 11 8Z" fill="#2A6490"/>
<path id="Vector_2" d="M37 38C33.14 38 30 34.86 30 31C30 27.14 33.14 24 37 24C40.86 24 44 27.14 44 31C44 34.86 40.86 38 37 38ZM37 28C35.346 28 34 29.346 34 31C34 32.654 35.346 34 37 34C38.654 34 40 32.654 40 31C40 29.346 38.654 28 37 28Z" fill="#2A6490"/>
<path id="Vector_3" d="M24 6C32.44 6 39.524 11.81 41.47 19.65" stroke="#2A6490" stroke-width="4" stroke-miterlimit="10"/>
<path id="Vector_4" d="M23.9983 41.9994C15.9403 41.9994 9.11827 36.7034 6.82227 29.4014" stroke="#2A6490" stroke-width="4" stroke-miterlimit="10"/>
<path id="Vector_5" d="M4 24C4 20.686 7.134 18 11 18C14.866 18 18 20.686 18 24" stroke="#2A6490" stroke-width="4" stroke-miterlimit="10"/>
<path id="Vector_6" d="M30 44C30 40.686 33.134 38 37 38C40.866 38 44 40.686 44 44" stroke="#2A6490" stroke-width="4" stroke-miterlimit="10"/>
</g>
</svg>
