<svg width="48" height="48" viewBox="0 0 48 48" fill="none" xmlns="http://www.w3.org/2000/svg">
<g id="note-21 1">
<path id="Vector" opacity="0.4" d="M43.3204 20.8829L41.3604 29.2429C39.6804 36.4629 36.3604 39.3829 30.1204 38.7829C29.1204 38.7029 28.0404 38.5229 26.8804 38.2429L23.5204 37.4429C15.1804 35.4629 12.6004 31.3429 14.5604 22.9829L16.5204 14.6029C16.9204 12.9029 17.4004 11.4229 18.0004 10.2029C20.3404 5.36295 24.3204 4.06295 31.0004 5.64295L34.3404 6.42295C42.7204 8.38295 45.2804 12.5229 43.3204 20.8829Z" fill="#307094"/>
<path id="Vector_2" d="M30.1226 38.7773C28.8826 39.6173 27.3226 40.3173 25.4226 40.9373L22.2626 41.9773C14.3226 44.5373 10.1426 42.3973 7.56264 34.4573L5.00264 26.5573C2.44264 18.6173 4.56263 14.4173 12.5026 11.8573L15.6626 10.8173C16.4826 10.5573 17.2626 10.3373 18.0026 10.1973C17.4026 11.4173 16.9226 12.8973 16.5226 14.5973L14.5626 22.9773C12.6026 31.3373 15.1826 35.4573 23.5226 37.4373L26.8826 38.2373C28.0426 38.5173 29.1226 38.6973 30.1226 38.7773Z" fill="#307094"/>
<path id="Vector_3" d="M34.9788 21.0176C34.8588 21.0176 34.7388 20.9976 34.5988 20.9776L24.8988 18.5176C24.0988 18.3176 23.6188 17.4976 23.8188 16.6976C24.0188 15.8976 24.8388 15.4176 25.6388 15.6176L35.3388 18.0776C36.1388 18.2776 36.6188 19.0976 36.4188 19.8976C36.2588 20.5576 35.6388 21.0176 34.9788 21.0176Z" fill="#307094"/>
<path id="Vector_4" d="M29.1222 27.7837C29.0022 27.7837 28.8822 27.7637 28.7422 27.7437L22.9222 26.2637C22.1222 26.0637 21.6422 25.2437 21.8422 24.4437C22.0422 23.6437 22.8622 23.1637 23.6622 23.3637L29.4822 24.8437C30.2822 25.0437 30.7622 25.8637 30.5622 26.6637C30.4022 27.3437 29.8022 27.7837 29.1222 27.7837Z" fill="#307094"/>
</g>
</svg>
