<svg width="56" height="56" viewBox="0 0 56 56" fill="none" xmlns="http://www.w3.org/2000/svg">
<g id="014-people 1" clip-path="url(#clip0_2923_45753)">
<g id="Group">
<g id="Group_2">
<path id="Vector" d="M28 16.3633C23.6027 16.3633 20.0254 19.9406 20.0254 24.3379C20.0254 28.7352 23.6028 32.3126 28 32.3126C32.3972 32.3126 35.9747 28.7351 35.9747 24.3379C35.9747 19.9407 32.3973 16.3633 28 16.3633ZM28 28.7684C25.5568 28.7684 23.5697 26.7806 23.5697 24.338C23.5697 21.8948 25.5568 19.9077 28 19.9077C30.4432 19.9077 32.4304 21.8948 32.4304 24.338C32.4304 26.7812 30.4432 28.7684 28 28.7684Z" fill="#2A6490"/>
</g>
</g>
<g id="Group_3">
<g id="Group_4">
<path id="Vector_2" d="M28.0004 28.709C21.4534 28.709 16.127 34.0354 16.127 40.5824V43.2407C16.127 44.2195 16.9203 45.0129 17.8992 45.0129C18.878 45.0129 19.6714 44.2196 19.6714 43.2407V40.5824C19.6714 35.9895 23.4076 32.2533 28.0005 32.2533C32.5934 32.2533 36.3296 35.9902 36.3296 40.5824V43.2407C36.3296 44.2195 37.1229 45.0129 38.1018 45.0129C39.0806 45.0129 39.874 44.2196 39.874 43.2407V40.5824C39.8738 34.0354 34.5473 28.709 28.0004 28.709Z" fill="#2A6490"/>
</g>
</g>
<g id="Group_5">
<g id="Group_6">
<path id="Vector_3" d="M44.127 10.9873C39.7297 10.9873 36.1523 14.5647 36.1523 18.9619C36.1523 23.3591 39.7298 26.9366 44.127 26.9366C48.5248 26.9366 52.1016 23.3591 52.1016 18.9619C52.1016 14.5647 48.5243 10.9873 44.127 10.9873ZM44.127 23.3923C41.6838 23.3923 39.6966 21.4052 39.6966 18.9619C39.6966 16.5187 41.6838 14.5316 44.127 14.5316C46.5702 14.5316 48.5573 16.5187 48.5573 18.9619C48.5573 21.4052 46.5702 23.3923 44.127 23.3923Z" fill="#2A6490"/>
</g>
</g>
<g id="Group_7">
<g id="Group_8">
<path id="Vector_4" d="M44.1268 23.333C38.6963 23.333 33.9577 27.0138 32.6049 32.2847C32.3616 33.2322 32.9327 34.198 33.8802 34.4415C34.8283 34.6872 35.7935 34.1142 36.037 33.1661C36.988 29.4629 40.315 26.8774 44.1269 26.8774C48.7198 26.8774 52.456 30.6143 52.456 35.2065V37.8648C52.456 38.8436 53.2493 39.637 54.2282 39.637C55.207 39.637 56.0004 38.8437 56.0003 37.8648V35.2064C56.0002 28.6596 50.6738 23.333 44.1268 23.333Z" fill="#2A6490"/>
</g>
</g>
<g id="Group_9">
<g id="Group_10">
<path id="Vector_5" d="M11.8731 10.9873C7.47577 10.9873 3.89844 14.5647 3.89844 18.9619C3.89844 23.3591 7.47587 26.9366 11.8731 26.9366C16.2704 26.9366 19.8477 23.3591 19.8477 18.9619C19.8477 14.5647 16.2704 10.9873 11.8731 10.9873ZM11.8731 23.3923C9.42986 23.3923 7.44273 21.4052 7.44273 18.9619C7.44273 16.5187 9.42986 14.5316 11.8731 14.5316C14.3163 14.5316 16.3034 16.5187 16.3034 18.9619C16.3034 21.4052 14.3163 23.3923 11.8731 23.3923Z" fill="#2A6490"/>
</g>
</g>
<g id="Group_11">
<g id="Group_12">
<path id="Vector_6" d="M23.3369 32.2256C21.9925 26.9895 17.2785 23.333 11.8734 23.333C5.32645 23.3329 0 28.6595 0 35.2063V37.8646C0 38.8434 0.793297 39.6368 1.7722 39.6368C2.751 39.6368 3.54441 38.8435 3.54441 37.8646V35.2063C3.54441 30.6141 7.28066 26.8772 11.8735 26.8772C15.66 26.8772 18.9621 29.4385 19.9037 33.1069C20.1471 34.0544 21.1094 34.6238 22.061 34.3828C23.009 34.1395 23.5803 33.1731 23.3369 32.2256Z" fill="#2A6490"/>
</g>
</g>
</g>
<defs>
<clipPath id="clip0_2923_45753">
<rect width="56" height="56" fill="white"/>
</clipPath>
</defs>
</svg>
