<svg width="44" height="29" viewBox="0 0 44 29" fill="none" xmlns="http://www.w3.org/2000/svg">
<path d="M1.3118 28.8199C0.831796 28.8199 0.591797 28.3399 0.591797 27.3799C0.591797 25.9399 1.2518 23.3599 2.5718 19.6399C4.01179 15.9199 5.4518 12.5599 6.8918 9.55993L8.87179 5.23992C10.1918 2.35992 13.6718 0.919922 19.3118 0.919922C22.6718 0.919922 24.3518 1.69992 24.3518 3.25992C24.3518 4.57992 21.1718 9.07992 14.8118 16.7599C8.4518 24.3199 3.9518 28.3399 1.3118 28.8199ZM20.5718 28.8199C20.0918 28.8199 19.8518 28.3399 19.8518 27.3799C19.8518 25.9399 20.5118 23.3599 21.8318 19.6399C23.2718 15.9199 24.6518 12.5599 25.9718 9.55993L28.1318 5.23992C29.3318 2.35992 32.8118 0.919922 38.5718 0.919922C41.9318 0.919922 43.6118 1.69992 43.6118 3.25992C43.6118 4.57992 40.4318 9.07992 34.0718 16.7599C27.7118 24.3199 23.2118 28.3399 20.5718 28.8199Z" fill="#D7D7D7"/>
</svg>
