<svg width="36" height="36" viewBox="0 0 36 36" fill="none" xmlns="http://www.w3.org/2000/svg">
<g id="bullhorn-marketing-affiliate-broadcast.2 2">
<path id="Vector" opacity="0.3" d="M12.32 20.2622C10.7126 19.8603 9.0838 20.8376 8.68195 22.445L8.02294 25.0811C7.58302 26.8407 8.29678 28.6869 9.80596 29.6931C12.0742 31.2053 15.1591 30.2471 16.1716 27.716L18.5319 21.8151L12.32 20.2622Z" fill="#2A6490"/>
<path id="Vector_2" d="M24.6043 7.95208C25.8999 7.08838 27.6559 7.5029 28.4285 8.85479C31.2612 13.8121 31.2612 19.8978 28.4285 24.8551C27.6559 26.207 25.8999 26.6215 24.6043 25.7579C24.6043 25.7579 24.6043 25.7579 24.6043 25.7579L23.2703 24.8686C19.8338 22.5775 15.7961 21.3549 11.6659 21.3549H9C6.5147 21.3549 4.5 19.3403 4.5 16.8549C4.5 14.3697 6.5147 12.355 9 12.355H11.6659C15.7961 12.355 19.8338 11.1324 23.2702 8.84145C23.2702 8.84144 23.2702 8.84144 23.2703 8.84143L24.6043 7.95209L23.7735 6.70576L24.6043 7.95208Z" stroke="#2A6490" stroke-width="3"/>
</g>
</svg>
