<svg width="36" height="36" viewBox="0 0 36 36" fill="none" xmlns="http://www.w3.org/2000/svg">
<g id="icons8-money-bag-with-coins 1">
<path id="Vector" opacity="0.3" d="M29.998 10.5H7.49805V13.5H29.998V10.5Z" fill="#307094"/>
<path id="Vector_2" opacity="0.3" d="M32.998 28.9737V23.9982C32.998 19.8132 31.2715 16.0287 28.498 13.3047V14.9982H7.49805V13.3047C4.72455 16.0287 2.99805 19.8132 2.99805 23.9982V28.9737L1.49805 32.9982V34.4982H34.498V32.9982L32.998 28.9737Z" fill="#307094"/>
<path id="Vector_3" d="M32.998 28.9755V24C32.998 21.264 32.242 18.708 30.9535 16.5H31.498V13.221C31.498 10.5315 29.626 8.283 27.1195 7.6755C27.121 7.617 27.139 7.5585 27.139 7.5C27.139 4.191 24.448 1.5 21.139 1.5C20.0185 1.5 18.928 1.812 17.98 2.4015C17.068 1.8405 16.0045 1.5 14.857 1.5C11.548 1.5 8.85705 4.191 8.85705 7.5C8.85705 7.56 8.86605 7.6185 8.86755 7.6785C6.36705 8.289 4.49805 10.533 4.49805 13.221V16.5H5.04255C3.75405 18.708 2.99805 21.264 2.99805 24V28.9755L1.49805 33V34.5H34.498V33L32.998 28.9755ZM21.139 4.5C22.7935 4.5 24.139 5.8455 24.139 7.5H20.857C20.857 6.4815 20.578 5.5365 20.1295 4.6965C20.4535 4.5795 20.7895 4.5 21.139 4.5ZM14.857 4.5C16.5115 4.5 17.857 5.8455 17.857 7.5H11.857C11.857 5.8455 13.204 4.5 14.857 4.5ZM7.49805 13.221C7.49805 11.721 8.71755 10.5 10.2175 10.5H25.777C27.2785 10.5 28.498 11.721 28.498 13.221V13.5H7.49805V13.221ZM5.21655 31.5L5.88855 29.826L5.99805 29.2665V24C5.99805 21.156 7.00905 18.5565 8.66955 16.5H18.877L16.9375 18.4395L19.0585 20.5605L21.949 17.67L24.1045 23.058L26.89 21.945L24.7135 16.5H27.3265C28.987 18.5565 29.998 21.156 29.998 24V29.2665L30.106 29.826L30.7795 31.5H5.21655Z" fill="#307094"/>
</g>
</svg>
