<svg width="36" height="36" viewBox="0 0 36 36" fill="none" xmlns="http://www.w3.org/2000/svg">
<g id="color-profile 1" clip-path="url(#clip0_3493_3741)">
<g id="Icons-/-Design-/-Color-profile">
<path id="Combined-Shape" opacity="0.3" d="M18 16.4995C19.2535 15.5579 20.8116 15 22.5 15C26.6421 15 30 18.3579 30 22.5C30 26.6421 26.6421 30 22.5 30C20.8116 30 19.2535 29.4421 18 28.5005C16.7465 29.4421 15.1884 30 13.5 30C9.35786 30 6 26.6421 6 22.5C6 18.3579 9.35786 15 13.5 15C15.1884 15 16.7465 15.5579 18 16.4995ZM20.0004 18.7565C20.6362 19.8582 21 21.1366 21 22.5C21 23.8633 20.6362 25.1417 20.0005 26.2434C20.7283 26.731 21.5908 27 22.5 27C24.9853 27 27 24.9853 27 22.5C27 20.0147 24.9853 18 22.5 18C21.5896 18 20.7264 18.2707 20.0004 18.7565Z" fill="#307094"/>
<path id="Oval-14" d="M18 21C22.1421 21 25.5 17.6421 25.5 13.5C25.5 9.35786 22.1421 6 18 6C13.8579 6 10.5 9.35786 10.5 13.5C10.5 17.6421 13.8579 21 18 21Z" fill="#307094"/>
</g>
</g>
<defs>
<clipPath id="clip0_3493_3741">
<rect width="36" height="36" fill="white"/>
</clipPath>
</defs>
</svg>
