<svg width="36" height="36" viewBox="0 0 36 36" fill="none" xmlns="http://www.w3.org/2000/svg">
<g id="icons8-workspace 1">
<path id="Vector" d="M31.5 4.5H4.5C2.8425 4.5 1.5 5.8425 1.5 7.5V25.5C1.5 27.1575 2.8425 28.5 4.5 28.5H6.9795C7.8 27.2955 9.111 26.271 10.758 25.5H4.5V7.5H31.5V25.5H25.242C26.889 26.271 28.2 27.2955 29.0205 28.5H31.5C33.1575 28.5 34.5 27.1575 34.5 25.5V7.5C34.5 5.8425 33.1575 4.5 31.5 4.5Z" fill="#307094"/>
<path id="Vector_2" d="M18 27C13.083 27 9 29.1435 9 31.5C9 32.1225 9 33 9 33H27C27 33 27 32.1225 27 31.5C27 29.1435 22.917 27 18 27ZM18 18C18.897 18 19.5 18.603 19.5 19.5C19.5 20.397 18.897 21 18 21C17.103 21 16.5 20.397 16.5 19.5C16.5 18.603 17.103 18 18 18ZM18 15C15.45 15 13.5 16.95 13.5 19.5C13.5 22.05 15.45 24 18 24C20.55 24 22.5 22.05 22.5 19.5C22.5 16.95 20.55 15 18 15Z" fill="#307094"/>
<path id="Vector_3" opacity="0.3" d="M31.5 6H4.5C3.672 6 3 6.672 3 7.5V25.5C3 26.328 3.672 27 4.5 27H8.3535C10.5225 25.1715 13.9965 24 18 24C22.0035 24 25.4775 25.1715 27.6465 27H31.5C32.328 27 33 26.328 33 25.5V7.5C33 6.672 32.328 6 31.5 6ZM18 22.5C16.3425 22.5 15 21.1575 15 19.5C15 17.8425 16.3425 16.5 18 16.5C19.6575 16.5 21 17.8425 21 19.5C21 21.1575 19.6575 22.5 18 22.5Z" fill="#307094"/>
</g>
</svg>
