<svg width="36" height="36" viewBox="0 0 36 36" fill="none" xmlns="http://www.w3.org/2000/svg">
<g id="icons8-heart-health 1">
<path id="Vector" opacity="0.3" d="M24.75 4.5C20.4 4.5 18 7.65 18 7.65C18 7.65 15.6 4.5 11.25 4.5C6.75 4.5 3 8.25 3 12.75C3 19.05 10.35 25.05 12.45 27C14.85 29.25 18 32.1 18 32.1C18 32.1 21.15 29.25 23.55 27C25.65 25.05 33 19.05 33 12.75C33 8.25 29.25 4.5 24.75 4.5Z" fill="#2A6490"/>
<path id="Vector_2" d="M18.0002 21.5992L10.9502 14.5492L13.0502 12.4492L18.0002 17.3992L27.4502 7.94922L29.5502 10.0492L18.0002 21.5992Z" fill="#2A6490"/>
<path id="Vector_3" d="M24.75 4.5C20.4 4.5 18 7.65 18 7.65C18 7.65 15.6 4.5 11.25 4.5C6.75 4.5 3 8.25 3 12.75C3 19.05 10.35 25.05 12.45 27C14.85 29.25 18 32.1 18 32.1C18 32.1 21.15 29.25 23.55 27C25.65 25.05 33 19.05 33 12.75C33 8.25 29.25 4.5 24.75 4.5ZM22.2 24.15C21.9 24.45 21.75 24.6 21.45 24.75C20.25 25.8 19.05 27 17.85 27.9C16.8 27 15.45 25.8 14.25 24.75C14.1 24.6 13.8 24.3 13.5 24.15C11.7 22.2 6 17.1 6 12.75C6 9.9 8.4 7.5 11.25 7.5C13.95 7.5 15.6 9.45 15.6 9.45L18 12L20.4 9.45C20.4 9.45 22.05 7.5 24.75 7.5C27.6 7.5 30 9.9 30 12.75C30 17.1 24.3 22.2 22.2 24.15Z" fill="#2A6490"/>
</g>
</svg>
