<svg width="38" height="38" viewBox="0 0 38 38" fill="none" xmlns="http://www.w3.org/2000/svg">
<path opacity="0.3" d="M30.9688 5.75C31.4375 5.75 31.75 6.0625 31.75 6.53125V20.5938C31.75 21.0625 31.4375 21.375 30.9688 21.375H7.53125C7.0625 21.375 6.75 21.0625 6.75 20.5938V6.53125C6.75 6.0625 7.0625 5.75 7.53125 5.75H30.9688Z" fill="#2A6490"/>
<path d="M30.9688 22.9375H7.53125C6.28125 22.9375 5.1875 21.8438 5.1875 20.5938V6.53125C5.1875 5.28125 6.28125 4.1875 7.53125 4.1875H30.9688C32.2188 4.1875 33.3125 5.28125 33.3125 6.53125V20.5938C33.3125 21.8438 32.2188 22.9375 30.9688 22.9375ZM8.3125 19.8125H30.1875V7.3125H8.3125V19.8125ZM19.25 26.0625C18.4212 26.0625 17.6263 26.3917 17.0403 26.9778C16.4542 27.5638 16.125 28.3587 16.125 29.1875C16.125 30.0163 16.4542 30.8112 17.0403 31.3972C17.6263 31.9833 18.4212 32.3125 19.25 32.3125C20.0788 32.3125 20.8737 31.9833 21.4597 31.3972C22.0458 30.8112 22.375 30.0163 22.375 29.1875C22.375 28.3587 22.0458 27.5638 21.4597 26.9778C20.8737 26.3917 20.0788 26.0625 19.25 26.0625ZM28.625 26.0625C27.7962 26.0625 27.0013 26.3917 26.4153 26.9778C25.8292 27.5638 25.5 28.3587 25.5 29.1875C25.5 30.0163 25.8292 30.8112 26.4153 31.3972C27.0013 31.9833 27.7962 32.3125 28.625 32.3125C29.4538 32.3125 30.2487 31.9833 30.8347 31.3972C31.4208 30.8112 31.75 30.0163 31.75 29.1875C31.75 28.3587 31.4208 27.5638 30.8347 26.9778C30.2487 26.3917 29.4538 26.0625 28.625 26.0625ZM9.875 26.0625C9.0462 26.0625 8.25134 26.3917 7.66529 26.9778C7.07924 27.5638 6.75 28.3587 6.75 29.1875C6.75 30.0163 7.07924 30.8112 7.66529 31.3972C8.25134 31.9833 9.0462 32.3125 9.875 32.3125C10.7038 32.3125 11.4987 31.9833 12.0847 31.3972C12.6708 30.8112 13 30.0163 13 29.1875C13 28.3587 12.6708 27.5638 12.0847 26.9778C11.4987 26.3917 10.7038 26.0625 9.875 26.0625Z" fill="#2A6490"/>
<path d="M23.9375 21.375V16.6875L27.0625 15.125L19.25 12L11.4375 15.125L14.5625 16.6875V21.375H23.9375Z" fill="#2A6490"/>
</svg>
