<svg width="20" height="20" viewBox="0 0 20 20" fill="none" xmlns="http://www.w3.org/2000/svg">
<path fill-rule="evenodd" clip-rule="evenodd" d="M10 10.8333C6.77834 10.8333 4.16667 13.445 4.16667 16.6667V18.3333C4.16667 18.7936 3.79357 19.1667 3.33333 19.1667C2.8731 19.1667 2.5 18.7936 2.5 18.3333V16.6667C2.5 12.5245 5.85787 9.16666 10 9.16666C14.1422 9.16666 17.5 12.5245 17.5 16.6667V18.3333C17.5 18.7936 17.1269 19.1667 16.6667 19.1667C16.2064 19.1667 15.8333 18.7936 15.8333 18.3333V16.6667C15.8333 13.445 13.2217 10.8333 10 10.8333Z" fill="#BBBEDA"/>
<path fill-rule="evenodd" clip-rule="evenodd" d="M10 9.16668C11.8409 9.16668 13.3333 7.67429 13.3333 5.83334C13.3333 3.99239 11.8409 2.50001 10 2.50001C8.15905 2.50001 6.66667 3.99239 6.66667 5.83334C6.66667 7.67429 8.15905 9.16668 10 9.16668ZM10 10.8333C12.7614 10.8333 15 8.59476 15 5.83334C15 3.07192 12.7614 0.833344 10 0.833344C7.23857 0.833344 5 3.07192 5 5.83334C5 8.59476 7.23857 10.8333 10 10.8333Z" fill="#BBBEDA"/>
</svg>
