<svg width="20" height="20" viewBox="0 0 20 20" fill="none" xmlns="http://www.w3.org/2000/svg">
<path fill-rule="evenodd" clip-rule="evenodd" d="M14.1668 1.66667H5.8335C5.37326 1.66667 5.00016 2.03977 5.00016 2.5V17.5C5.00016 17.9602 5.37326 18.3333 5.8335 18.3333H14.1668C14.6271 18.3333 15.0002 17.9602 15.0002 17.5V2.5C15.0002 2.03977 14.6271 1.66667 14.1668 1.66667ZM5.8335 0C4.45279 0 3.3335 1.11929 3.3335 2.5V17.5C3.3335 18.8807 4.45279 20 5.8335 20H14.1668C15.5476 20 16.6668 18.8807 16.6668 17.5V2.5C16.6668 1.11929 15.5476 0 14.1668 0H5.8335Z" fill="#DEDFED"/>
<path d="M10.8332 15.8333C10.8332 16.2936 10.4601 16.6667 9.99984 16.6667C9.53959 16.6667 9.1665 16.2936 9.1665 15.8333C9.1665 15.3731 9.53959 15 9.99984 15C10.4601 15 10.8332 15.3731 10.8332 15.8333Z" fill="#DEDFED"/>
</svg>
