<svg viewBox="0 0 24 24" xmlns="http://www.w3.org/2000/svg"><path d="M17.14 2H6.86C4.18 2 2 4.18 2 6.86v10.28C2 19.82 4.18 22 6.86 22h10.28c2.68 0 4.86-2.18 4.86-4.86V6.86C22 4.18 19.82 2 17.14 2Zm-.35 6.87c.62 2.44-.07 5-1.83 6.57 -2.26 2.02-5.93 2.11-8.62.01 .2.03.38.04.54.03 1.27-.05 2.13-1.06 2.4-1.4 -.47-.41-1.2-1.13-1.71-2.24 -.72-1.54-.65-2.99-.53-3.81 .03-.16.22-.22.34-.09 .37.42.97.99 1.85 1.4 .95.44 1.81.52 2.3.52 -.03-1.19.68-2.26 1.75-2.67 .94-.37 2.03-.16 2.8.54 .52-.02 1.04-.04 1.56-.06 -.29.4-.58.79-.87 1.19Z"/></svg>